<svg xmlns="http://www.w3.org/2000/svg" width="183" height="48" fill="none" viewBox="0 0 183 48"><path fill="#fff" d="M15.7151 33.4286C24.3939 33.4286 31.4294 26.393 31.4294 17.7143C31.4294 16.7307 31.339 15.7682 31.1661 14.8347C30.2326 14.6618 29.2701 14.5714 28.2865 14.5714C19.6078 14.5714 12.5723 21.6069 12.5723 30.2857C12.5723 31.2693 12.6626 32.2318 12.8355 33.1653C13.769 33.3382 14.7315 33.4286 15.7151 33.4286Z"/><path fill="#C1C5CF" fill-rule="evenodd" d="M12.8347 33.1653C5.53118 31.8127 0 25.4095 0 17.7143C0 9.03553 7.03553 2 15.7143 2C23.4095 2 29.8128 7.53118 31.1653 14.8347C30.2318 14.6618 29.2693 14.5714 28.2857 14.5714C19.607 14.5714 12.5714 21.607 12.5714 30.2857C12.5714 31.2693 12.6618 32.2318 12.8347 33.1653Z" clip-rule="evenodd"/><path fill="#C1C5CF" fill-rule="evenodd" d="M15.7136 33.4285C24.3924 33.4285 31.4279 26.393 31.4279 17.7142C31.4279 16.7306 31.3375 15.7681 31.1646 14.8346C38.4681 16.1872 43.9993 22.5905 43.9993 30.2856C43.9993 38.9644 36.9638 45.9999 28.285 45.9999C20.5899 45.9999 14.1866 40.4687 12.834 33.1652C13.7675 33.3381 14.73 33.4285 15.7136 33.4285Z" clip-rule="evenodd"/><path fill="#C1C5CF" d="M74.2284 28.9039C73.6684 30.7146 72.6884 32.0679 71.2884 32.9639C69.8884 33.8413 68.255 34.2799 66.3884 34.2799C64.559 34.2799 62.9724 33.8973 61.6284 33.1319C60.303 32.3666 59.2764 31.2746 58.5484 29.8559C57.839 28.4373 57.4844 26.7386 57.4844 24.7599C57.4844 22.7813 57.8484 21.0826 58.5764 19.6639C59.3044 18.2453 60.331 17.1533 61.6564 16.3879C62.9817 15.6226 64.5404 15.2399 66.3324 15.2399C68.2177 15.2399 69.8324 15.6413 71.1764 16.4439C72.539 17.2279 73.4724 18.4226 73.9764 20.0279L70.4764 21.5119C70.159 20.3919 69.6737 19.5986 69.0204 19.1319C68.367 18.6466 67.527 18.4039 66.5004 18.4039C64.9697 18.4039 63.747 18.9546 62.8324 20.0559C61.9364 21.1386 61.4884 22.7066 61.4884 24.7599C61.4884 26.7946 61.9177 28.3626 62.7764 29.4639C63.635 30.5653 64.8764 31.1159 66.5004 31.1159C67.5084 31.1159 68.3764 30.8453 69.1044 30.3039C69.851 29.7626 70.3737 28.9413 70.6724 27.8399L74.2284 28.9039Z"/><path fill="#C1C5CF" d="M79.0617 17.9839C77.475 17.9839 76.6817 17.3026 76.6817 15.9399C76.6817 14.5586 77.475 13.8679 79.0617 13.8679C80.6483 13.8679 81.4417 14.5586 81.4417 15.9399C81.4417 17.3026 80.6483 17.9839 79.0617 17.9839ZM80.9657 19.9999V33.9999H77.1297V19.9999H80.9657Z"/><path fill="#C1C5CF" d="M85.032 33.9999V19.9999H88.364L88.616 22.7439C88.9707 21.7919 89.5027 21.0546 90.212 20.5319C90.94 19.9906 91.8547 19.7199 92.956 19.7199C93.6093 19.7199 94.1133 19.8226 94.468 20.0279L94.02 23.2479C93.8333 23.1919 93.6 23.1453 93.32 23.1079C93.0587 23.0519 92.7133 23.0239 92.284 23.0239C91.7053 23.0239 91.1547 23.1639 90.632 23.4439C90.128 23.7053 89.708 24.1159 89.372 24.6759C89.036 25.2173 88.868 25.9079 88.868 26.7479V33.9999H85.032Z"/><path fill="#C1C5CF" d="M102.927 19.7199C104.794 19.7199 106.24 20.1213 107.267 20.9239C108.312 21.7266 109.003 22.6973 109.339 23.8359L105.755 25.1239C105.382 23.4253 104.458 22.5759 102.983 22.5759C101.919 22.5759 101.088 22.9493 100.491 23.6959C99.9124 24.4426 99.6231 25.5533 99.6231 27.0279C99.6231 28.5213 99.9217 29.6319 100.519 30.3599C101.135 31.0693 101.966 31.4239 103.011 31.4239C104.635 31.4239 105.606 30.5933 105.923 28.9319L109.395 30.0519C109.078 31.3026 108.368 32.3199 107.267 33.1039C106.184 33.8879 104.775 34.2799 103.039 34.2799C101.583 34.2799 100.304 33.9906 99.203 33.4119C98.1204 32.8333 97.2804 32.0026 96.6831 30.9199C96.0857 29.8373 95.7871 28.5306 95.7871 26.9999C95.7871 25.4693 96.0857 24.1626 96.6831 23.0799C97.299 21.9973 98.139 21.1666 99.203 20.5879C100.286 20.0093 101.527 19.7199 102.927 19.7199Z"/><path fill="#C1C5CF" d="M118.76 19.7199C120.16 19.7199 121.401 20.0093 122.484 20.5879C123.566 21.1666 124.406 21.9973 125.004 23.0799C125.62 24.1626 125.928 25.4693 125.928 26.9999C125.928 28.5306 125.62 29.8373 125.004 30.9199C124.406 32.0026 123.566 32.8333 122.484 33.4119C121.401 33.9906 120.16 34.2799 118.76 34.2799C117.341 34.2799 116.09 33.9906 115.008 33.4119C113.944 32.8333 113.104 32.0026 112.488 30.9199C111.89 29.8373 111.592 28.5306 111.592 26.9999C111.592 25.4693 111.89 24.1626 112.488 23.0799C113.104 21.9973 113.944 21.1666 115.008 20.5879C116.09 20.0093 117.341 19.7199 118.76 19.7199ZM118.76 22.5759C117.714 22.5759 116.893 22.9493 116.296 23.6959C115.717 24.4239 115.428 25.5253 115.428 26.9999C115.428 28.4746 115.717 29.5853 116.296 30.3319C116.893 31.0599 117.714 31.4239 118.76 31.4239C119.786 31.4239 120.589 31.0599 121.168 30.3319C121.765 29.5853 122.064 28.4746 122.064 26.9999C122.064 25.5253 121.765 24.4239 121.168 23.6959C120.589 22.9493 119.786 22.5759 118.76 22.5759Z"/><path fill="#C1C5CF" d="M135.521 19.7199C136.921 19.7199 138.163 20.0093 139.245 20.5879C140.328 21.1666 141.168 21.9973 141.765 23.0799C142.381 24.1626 142.689 25.4693 142.689 26.9999C142.689 28.5306 142.381 29.8373 141.765 30.9199C141.168 32.0026 140.328 32.8333 139.245 33.4119C138.163 33.9906 136.921 34.2799 135.521 34.2799C134.103 34.2799 132.852 33.9906 131.769 33.4119C130.705 32.8333 129.865 32.0026 129.249 30.9199C128.652 29.8373 128.353 28.5306 128.353 26.9999C128.353 25.4693 128.652 24.1626 129.249 23.0799C129.865 21.9973 130.705 21.1666 131.769 20.5879C132.852 20.0093 134.103 19.7199 135.521 19.7199ZM135.521 22.5759C134.476 22.5759 133.655 22.9493 133.057 23.6959C132.479 24.4239 132.189 25.5253 132.189 26.9999C132.189 28.4746 132.479 29.5853 133.057 30.3319C133.655 31.0599 134.476 31.4239 135.521 31.4239C136.548 31.4239 137.351 31.0599 137.929 30.3319C138.527 29.5853 138.825 28.4746 138.825 26.9999C138.825 25.5253 138.527 24.4239 137.929 23.6959C137.351 22.9493 136.548 22.5759 135.521 22.5759Z"/><path fill="#C1C5CF" d="M149.679 13.8679V29.6879C149.679 30.3413 149.791 30.7986 150.015 31.0599C150.239 31.3213 150.612 31.4519 151.135 31.4519C151.452 31.4519 151.714 31.4333 151.919 31.3959C152.125 31.3586 152.386 31.2839 152.703 31.1719L152.367 33.6919C152.05 33.8786 151.648 34.0186 151.163 34.1119C150.696 34.2239 150.23 34.2799 149.763 34.2799C148.4 34.2799 147.402 33.9533 146.767 33.2999C146.151 32.6279 145.843 31.5639 145.843 30.1079V13.8679H149.679Z"/><path fill="#C1C5CF" d="M161.337 34.2799C159.134 34.2799 157.37 33.6453 156.045 32.3759C154.719 31.0879 154.057 29.2959 154.057 26.9999C154.057 25.4693 154.355 24.1626 154.953 23.0799C155.55 21.9973 156.381 21.1666 157.445 20.5879C158.527 20.0093 159.759 19.7199 161.141 19.7199C162.559 19.7199 163.763 20.0093 164.753 20.5879C165.742 21.1479 166.498 21.9226 167.021 22.9119C167.543 23.8826 167.805 24.9933 167.805 26.2439C167.805 26.6173 167.795 26.9719 167.777 27.3079C167.758 27.6439 167.73 27.9426 167.693 28.2039H157.809C157.958 29.2866 158.331 30.0986 158.929 30.6399C159.545 31.1626 160.338 31.4239 161.309 31.4239C162.13 31.4239 162.793 31.2653 163.297 30.9479C163.801 30.6306 164.193 30.1919 164.473 29.6319L167.525 30.8079C167.077 31.9093 166.293 32.7679 165.173 33.3839C164.053 33.9813 162.774 34.2799 161.337 34.2799ZM161.113 22.5479C159.302 22.5479 158.21 23.5466 157.837 25.5439H164.137C164.025 24.5733 163.707 23.8359 163.185 23.3319C162.681 22.8093 161.99 22.5479 161.113 22.5479Z"/><path fill="#C1C5CF" d="M176.655 34.2799C175.237 34.2799 173.939 34.0279 172.763 33.5239C171.606 33.0199 170.663 32.3106 169.935 31.3959L172.147 29.1559C172.595 29.8279 173.193 30.3786 173.939 30.8079C174.686 31.2373 175.573 31.4519 176.599 31.4519C177.327 31.4519 177.906 31.3493 178.335 31.1439C178.783 30.9199 179.007 30.5746 179.007 30.1079C179.007 29.8093 178.905 29.5573 178.699 29.3519C178.494 29.1279 178.083 28.9506 177.467 28.8199L175.003 28.3159C173.379 27.9799 172.222 27.4759 171.531 26.8039C170.859 26.1133 170.523 25.2266 170.523 24.1439C170.523 23.3786 170.747 22.6599 171.195 21.9879C171.662 21.3159 172.353 20.7746 173.267 20.3639C174.182 19.9346 175.321 19.7199 176.683 19.7199C179.521 19.7199 181.555 20.5879 182.787 22.3239L180.491 24.5639C180.081 23.9106 179.539 23.4159 178.867 23.0799C178.214 22.7253 177.523 22.5479 176.795 22.5479C175.153 22.5479 174.331 23.0053 174.331 23.9199C174.331 24.2186 174.462 24.4799 174.723 24.7039C174.985 24.9093 175.461 25.0866 176.151 25.2359L179.007 25.8239C180.389 26.1039 181.378 26.5799 181.975 27.2519C182.573 27.9053 182.871 28.6986 182.871 29.6319C182.871 30.9759 182.33 32.0866 181.247 32.9639C180.183 33.8413 178.653 34.2799 176.655 34.2799Z"/></svg>