<svg width="194" height="48" viewBox="0 0 194 48" fill="none" xmlns="http://www.w3.org/2000/svg">
<path d="M33.8812 24C30.3268 27.9713 25.1614 30.4706 19.4123 30.4706C13.6632 30.4706 8.49779 27.9713 4.94336 24C8.49779 20.0287 13.6632 17.5294 19.4123 17.5294C25.1614 17.5294 30.3268 20.0287 33.8812 24Z" fill="white"/>
<path fill-rule="evenodd" clip-rule="evenodd" d="M0 36.9412C0 26.2204 8.69094 17.5294 19.4118 17.5294C13.6626 17.5294 8.4973 20.0287 4.94288 24C8.4973 27.9713 13.6627 30.4706 19.4118 30.4706C25.1609 30.4706 30.3263 27.9713 33.8807 24C36.9545 27.4343 38.8235 31.9695 38.8235 36.9412V44.2745C38.8235 45.2275 38.051 46 37.098 46H1.72549C0.772528 46 0 45.2275 0 44.2745V36.9412ZM33.8807 24C33.8807 24 33.8807 24 33.8807 24V24Z" fill="#C1C5CF"/>
<path fill-rule="evenodd" clip-rule="evenodd" d="M12.1306 29.0589C9.3589 27.9366 6.90535 26.1926 4.94288 24C8.4973 20.0287 13.6627 17.5294 19.4118 17.5294C25.1609 17.5294 30.3263 20.0287 33.8807 24C33.8807 24 33.8807 24 33.8807 24C36.9545 20.5657 38.8235 16.0305 38.8235 11.0588V3.72549C38.8235 2.77253 38.051 2 37.098 2L1.72549 2C0.772529 2 7.24411e-07 2.77253 6.41101e-07 3.72549L0 11.0588C-1.28944e-06 19.2047 5.01754 26.1788 12.1306 29.0589Z" fill="#C1C5CF"/>
<path d="M69.1436 14.456V34H65.2236V25.684H56.8516V34H52.9316V14.456H56.8516V22.492H65.2236V14.456H69.1436Z" fill="#C1C5CF"/>
<path d="M79.8899 34.252C78.3966 34.252 77.0526 33.9254 75.8579 33.272C74.6633 32.6 73.7206 31.6574 73.0299 30.444C72.3579 29.2307 72.0219 27.8307 72.0219 26.244C72.0219 24.6574 72.3673 23.2574 73.0579 22.044C73.7673 20.8307 74.7286 19.8974 75.9419 19.244C77.1553 18.572 78.5086 18.236 80.0019 18.236C81.4953 18.236 82.8486 18.572 84.0619 19.244C85.2753 19.8974 86.2273 20.8307 86.9179 22.044C87.6273 23.2574 87.9819 24.6574 87.9819 26.244C87.9819 27.8307 87.6179 29.2307 86.8899 30.444C86.1806 31.6574 85.2099 32.6 83.9779 33.272C82.7646 33.9254 81.4019 34.252 79.8899 34.252ZM79.8899 30.836C80.5993 30.836 81.2619 30.668 81.8779 30.332C82.5126 29.9774 83.0166 29.4547 83.3899 28.764C83.7633 28.0734 83.9499 27.2334 83.9499 26.244C83.9499 24.7694 83.5579 23.64 82.7739 22.856C82.0086 22.0534 81.0659 21.652 79.9459 21.652C78.8259 21.652 77.8833 22.0534 77.1179 22.856C76.3713 23.64 75.9979 24.7694 75.9979 26.244C75.9979 27.7187 76.3619 28.8574 77.0899 29.66C77.8366 30.444 78.7699 30.836 79.8899 30.836Z" fill="#C1C5CF"/>
<path d="M105.501 18.488V34H101.553V32.04C101.049 32.712 100.387 33.244 99.5654 33.636C98.7627 34.0094 97.8854 34.196 96.9334 34.196C95.7201 34.196 94.6467 33.944 93.7134 33.44C92.7801 32.9174 92.0427 32.1614 91.5014 31.172C90.9787 30.164 90.7174 28.9694 90.7174 27.588V18.488H94.6374V27.028C94.6374 28.26 94.9454 29.212 95.5614 29.884C96.1774 30.5374 97.0174 30.864 98.0814 30.864C99.1641 30.864 100.013 30.5374 100.629 29.884C101.245 29.212 101.553 28.26 101.553 27.028V18.488H105.501Z" fill="#C1C5CF"/>
<path d="M113.289 20.896C113.793 20.0747 114.446 19.4307 115.249 18.964C116.07 18.4974 117.004 18.264 118.049 18.264V22.38H117.013C115.781 22.38 114.848 22.6694 114.213 23.248C113.597 23.8267 113.289 24.8347 113.289 26.272V34H109.369V18.488H113.289V20.896Z" fill="#C1C5CF"/>
<path d="M126.765 18.236C127.923 18.236 128.94 18.4694 129.817 18.936C130.695 19.384 131.385 19.972 131.889 20.7V18.488H135.837V34.112C135.837 35.5494 135.548 36.828 134.969 37.948C134.391 39.0867 133.523 39.9827 132.365 40.636C131.208 41.308 129.808 41.644 128.165 41.644C125.963 41.644 124.152 41.1307 122.733 40.104C121.333 39.0774 120.54 37.6774 120.353 35.904H124.245C124.451 36.6134 124.889 37.1734 125.561 37.584C126.252 38.0134 127.083 38.228 128.053 38.228C129.192 38.228 130.116 37.8827 130.825 37.192C131.535 36.52 131.889 35.4934 131.889 34.112V31.704C131.385 32.432 130.685 33.0387 129.789 33.524C128.912 34.0094 127.904 34.252 126.765 34.252C125.459 34.252 124.264 33.916 123.181 33.244C122.099 32.572 121.24 31.6294 120.605 30.416C119.989 29.184 119.681 27.7747 119.681 26.188C119.681 24.62 119.989 23.2294 120.605 22.016C121.24 20.8027 122.089 19.8694 123.153 19.216C124.236 18.5627 125.44 18.236 126.765 18.236ZM131.889 26.244C131.889 25.292 131.703 24.48 131.329 23.808C130.956 23.1174 130.452 22.5947 129.817 22.24C129.183 21.8667 128.501 21.68 127.773 21.68C127.045 21.68 126.373 21.8574 125.757 22.212C125.141 22.5667 124.637 23.0894 124.245 23.78C123.872 24.452 123.685 25.2547 123.685 26.188C123.685 27.1214 123.872 27.9427 124.245 28.652C124.637 29.3427 125.141 29.8747 125.757 30.248C126.392 30.6214 127.064 30.808 127.773 30.808C128.501 30.808 129.183 30.6307 129.817 30.276C130.452 29.9027 130.956 29.38 131.329 28.708C131.703 28.0174 131.889 27.196 131.889 26.244Z" fill="#C1C5CF"/>
<path d="M143.586 13.28V34H139.666V13.28H143.586Z" fill="#C1C5CF"/>
<path d="M146.451 26.188C146.451 24.62 146.759 23.2294 147.375 22.016C148.01 20.8027 148.859 19.8694 149.923 19.216C151.006 18.5627 152.21 18.236 153.535 18.236C154.692 18.236 155.7 18.4694 156.559 18.936C157.436 19.4027 158.136 19.9907 158.659 20.7V18.488H162.607V34H158.659V31.732C158.155 32.46 157.455 33.0667 156.559 33.552C155.682 34.0187 154.664 34.252 153.507 34.252C152.2 34.252 151.006 33.916 149.923 33.244C148.859 32.572 148.01 31.6294 147.375 30.416C146.759 29.184 146.451 27.7747 146.451 26.188ZM158.659 26.244C158.659 25.292 158.472 24.48 158.099 23.808C157.726 23.1174 157.222 22.5947 156.587 22.24C155.952 21.8667 155.271 21.68 154.543 21.68C153.815 21.68 153.143 21.8574 152.527 22.212C151.911 22.5667 151.407 23.0894 151.015 23.78C150.642 24.452 150.455 25.2547 150.455 26.188C150.455 27.1214 150.642 27.9427 151.015 28.652C151.407 29.3427 151.911 29.8747 152.527 30.248C153.162 30.6214 153.834 30.808 154.543 30.808C155.271 30.808 155.952 30.6307 156.587 30.276C157.222 29.9027 157.726 29.38 158.099 28.708C158.472 28.0174 158.659 27.196 158.659 26.244Z" fill="#C1C5CF"/>
<path d="M172.371 34.252C171.102 34.252 169.963 34.028 168.955 33.58C167.947 33.1134 167.145 32.488 166.547 31.704C165.969 30.92 165.651 30.052 165.595 29.1H169.543C169.618 29.6974 169.907 30.192 170.411 30.584C170.934 30.976 171.578 31.172 172.343 31.172C173.09 31.172 173.669 31.0227 174.079 30.724C174.509 30.4254 174.723 30.0427 174.723 29.576C174.723 29.072 174.462 28.6987 173.939 28.456C173.435 28.1947 172.623 27.9147 171.503 27.616C170.346 27.336 169.394 27.0467 168.647 26.748C167.919 26.4494 167.285 25.992 166.743 25.376C166.221 24.76 165.959 23.9294 165.959 22.884C165.959 22.0254 166.202 21.2414 166.687 20.532C167.191 19.8227 167.901 19.2627 168.815 18.852C169.749 18.4414 170.841 18.236 172.091 18.236C173.939 18.236 175.414 18.7027 176.515 19.636C177.617 20.5507 178.223 21.792 178.335 23.36H174.583C174.527 22.744 174.266 22.2587 173.799 21.904C173.351 21.5307 172.745 21.344 171.979 21.344C171.27 21.344 170.719 21.4747 170.327 21.736C169.954 21.9974 169.767 22.3614 169.767 22.828C169.767 23.3507 170.029 23.752 170.551 24.032C171.074 24.2934 171.886 24.564 172.987 24.844C174.107 25.124 175.031 25.4134 175.759 25.712C176.487 26.0107 177.113 26.4774 177.635 27.112C178.177 27.728 178.457 28.5494 178.475 29.576C178.475 30.472 178.223 31.2747 177.719 31.984C177.234 32.6934 176.525 33.2534 175.591 33.664C174.677 34.056 173.603 34.252 172.371 34.252Z" fill="#C1C5CF"/>
<path d="M187.629 34.252C186.36 34.252 185.221 34.028 184.213 33.58C183.205 33.1134 182.403 32.488 181.805 31.704C181.227 30.92 180.909 30.052 180.853 29.1H184.801C184.876 29.6974 185.165 30.192 185.669 30.584C186.192 30.976 186.836 31.172 187.601 31.172C188.348 31.172 188.927 31.0227 189.337 30.724C189.767 30.4254 189.981 30.0427 189.981 29.576C189.981 29.072 189.72 28.6987 189.197 28.456C188.693 28.1947 187.881 27.9147 186.761 27.616C185.604 27.336 184.652 27.0467 183.905 26.748C183.177 26.4494 182.543 25.992 182.001 25.376C181.479 24.76 181.217 23.9294 181.217 22.884C181.217 22.0254 181.46 21.2414 181.945 20.532C182.449 19.8227 183.159 19.2627 184.073 18.852C185.007 18.4414 186.099 18.236 187.349 18.236C189.197 18.236 190.672 18.7027 191.773 19.636C192.875 20.5507 193.481 21.792 193.593 23.36H189.841C189.785 22.744 189.524 22.2587 189.057 21.904C188.609 21.5307 188.003 21.344 187.237 21.344C186.528 21.344 185.977 21.4747 185.585 21.736C185.212 21.9974 185.025 22.3614 185.025 22.828C185.025 23.3507 185.287 23.752 185.809 24.032C186.332 24.2934 187.144 24.564 188.245 24.844C189.365 25.124 190.289 25.4134 191.017 25.712C191.745 26.0107 192.371 26.4774 192.893 27.112C193.435 27.728 193.715 28.5494 193.733 29.576C193.733 30.472 193.481 31.2747 192.977 31.984C192.492 32.6934 191.783 33.2534 190.849 33.664C189.935 34.056 188.861 34.252 187.629 34.252Z" fill="#C1C5CF"/>
</svg>
