<svg xmlns="http://www.w3.org/2000/svg" width="64" height="64" fill="none" viewBox="0 0 64 64"><rect width="64" height="64" fill="url(#paint0_linear_1677_2398)" rx="10"/><path fill="#fff" d="M34.6667 30.6666H33.3333V25.3333H36C36.3536 25.3333 36.6928 25.4738 36.9428 25.7238C37.1929 25.9739 37.3333 26.313 37.3333 26.6666C37.3333 27.0202 37.4738 27.3594 37.7239 27.6094C37.9739 27.8595 38.313 28 38.6667 28C39.0203 28 39.3594 27.8595 39.6095 27.6094C39.8595 27.3594 40 27.0202 40 26.6666C40 25.6058 39.5786 24.5883 38.8284 23.8382C38.0783 23.0881 37.0609 22.6666 36 22.6666H33.3333V20C33.3333 19.6463 33.1929 19.3072 32.9428 19.0572C32.6928 18.8071 32.3536 18.6666 32 18.6666C31.6464 18.6666 31.3072 18.8071 31.0572 19.0572C30.8071 19.3072 30.6667 19.6463 30.6667 20V22.6666H29.3333C27.9188 22.6666 26.5623 23.2285 25.5621 24.2287C24.5619 25.2289 24 26.5855 24 28C24 29.4144 24.5619 30.771 25.5621 31.7712C26.5623 32.7714 27.9188 33.3333 29.3333 33.3333H30.6667V38.6666H28C27.6464 38.6666 27.3072 38.5262 27.0572 38.2761C26.8071 38.0261 26.6667 37.6869 26.6667 37.3333C26.6667 36.9797 26.5262 36.6405 26.2761 36.3905C26.0261 36.1404 25.687 36 25.3333 36C24.9797 36 24.6406 36.1404 24.3905 36.3905C24.1405 36.6405 24 36.9797 24 37.3333C24 38.3942 24.4214 39.4116 25.1716 40.1617C25.9217 40.9119 26.9391 41.3333 28 41.3333H30.6667V44C30.6667 44.3536 30.8071 44.6927 31.0572 44.9428C31.3072 45.1928 31.6464 45.3333 32 45.3333C32.3536 45.3333 32.6928 45.1928 32.9428 44.9428C33.1929 44.6927 33.3333 44.3536 33.3333 44V41.3333H34.6667C36.0812 41.3333 37.4377 40.7714 38.4379 39.7712C39.4381 38.771 40 37.4144 40 36C40 34.5855 39.4381 33.2289 38.4379 32.2287C37.4377 31.2285 36.0812 30.6666 34.6667 30.6666ZM30.6667 30.6666H29.3333C28.6261 30.6666 27.9478 30.3857 27.4477 29.8856C26.9476 29.3855 26.6667 28.7072 26.6667 28C26.6667 27.2927 26.9476 26.6144 27.4477 26.1143C27.9478 25.6142 28.6261 25.3333 29.3333 25.3333H30.6667V30.6666ZM34.6667 38.6666H33.3333V33.3333H34.6667C35.3739 33.3333 36.0522 33.6142 36.5523 34.1143C37.0524 34.6144 37.3333 35.2927 37.3333 36C37.3333 36.7072 37.0524 37.3855 36.5523 37.8856C36.0522 38.3857 35.3739 38.6666 34.6667 38.6666Z"/><defs><linearGradient id="paint0_linear_1677_2398" x1="-.416" x2="70.953" y1="71.844" y2="16.824" gradientUnits="userSpaceOnUse"><stop stop-color="#0097FE"/><stop offset="1" stop-color="#14358A"/></linearGradient></defs></svg>