<svg width="30" height="32" viewBox="0 0 30 32" fill="none" xmlns="http://www.w3.org/2000/svg">
<path fill-rule="evenodd" clip-rule="evenodd" d="M15 20.7692C14.31 20.7692 13.75 20.1877 13.75 19.4711C13.75 18.7546 14.31 18.173 15 18.173C15.69 18.173 16.25 18.7546 16.25 19.4711C16.25 20.1877 15.69 20.7692 15 20.7692ZM15 15.5769C12.9325 15.5769 11.25 17.3241 11.25 19.4711C11.25 21.6181 12.9325 23.3654 15 23.3654C17.0675 23.3654 18.75 21.6181 18.75 19.4711C18.75 17.3241 17.0675 15.5769 15 15.5769ZM22.5 24.6634C22.5 25.38 21.94 25.9615 21.25 25.9615H8.75C8.06 25.9615 7.5 25.38 7.5 24.6634V14.2788C7.5 13.5623 8.06 12.9807 8.75 12.9807H10H12.5H17.5H20H21.25C21.94 12.9807 22.5 13.5623 22.5 14.2788V24.6634ZM12.5 7.93252C12.5 6.42156 13.6213 5.19228 15 5.19228C16.3787 5.19228 17.5 6.42156 17.5 7.93252V10.3846H12.5V7.93252ZM21.25 10.3846H20V7.93252C20 4.99108 17.7575 2.59613 15 2.59613C12.2425 2.59613 10 4.99108 10 7.93252V10.3846H8.75C6.6825 10.3846 5 12.1318 5 14.2788V24.6634C5 26.8105 6.6825 28.5577 8.75 28.5577H21.25C23.3175 28.5577 25 26.8105 25 24.6634V14.2788C25 12.1318 23.3175 10.3846 21.25 10.3846Z" fill="url(#paint0_linear_1_13726)"/>
<mask id="mask0_1_13726" style="mask-type:alpha" maskUnits="userSpaceOnUse" x="5" y="2" width="20" height="27">
<path fill-rule="evenodd" clip-rule="evenodd" d="M15 20.7692C14.31 20.7692 13.75 20.1877 13.75 19.4711C13.75 18.7546 14.31 18.173 15 18.173C15.69 18.173 16.25 18.7546 16.25 19.4711C16.25 20.1877 15.69 20.7692 15 20.7692ZM15 15.5769C12.9325 15.5769 11.25 17.3241 11.25 19.4711C11.25 21.6181 12.9325 23.3654 15 23.3654C17.0675 23.3654 18.75 21.6181 18.75 19.4711C18.75 17.3241 17.0675 15.5769 15 15.5769ZM22.5 24.6634C22.5 25.38 21.94 25.9615 21.25 25.9615H8.75C8.06 25.9615 7.5 25.38 7.5 24.6634V14.2788C7.5 13.5623 8.06 12.9807 8.75 12.9807H10H12.5H17.5H20H21.25C21.94 12.9807 22.5 13.5623 22.5 14.2788V24.6634ZM12.5 7.93252C12.5 6.42156 13.6213 5.19228 15 5.19228C16.3787 5.19228 17.5 6.42156 17.5 7.93252V10.3846H12.5V7.93252ZM21.25 10.3846H20V7.93252C20 4.99108 17.7575 2.59613 15 2.59613C12.2425 2.59613 10 4.99108 10 7.93252V10.3846H8.75C6.6825 10.3846 5 12.1318 5 14.2788V24.6634C5 26.8105 6.6825 28.5577 8.75 28.5577H21.25C23.3175 28.5577 25 26.8105 25 24.6634V14.2788C25 12.1318 23.3175 10.3846 21.25 10.3846Z" fill="white"/>
</mask>
<g mask="url(#mask0_1_13726)">
</g>
<defs>
<linearGradient id="paint0_linear_1_13726" x1="6.0828" y1="-14.572" x2="36.5806" y2="-4.69529" gradientUnits="userSpaceOnUse">
<stop stop-color="#6A36FF"/>
<stop offset="1" stop-color="#AC5FE6"/>
</linearGradient>
</defs>
</svg>
