<svg width="30" height="32" viewBox="0 0 30 32" fill="none" xmlns="http://www.w3.org/2000/svg">
<path fill-rule="evenodd" clip-rule="evenodd" d="M25 18.1731C25 18.8883 24.44 19.4711 23.75 19.4711H15.1087H14.8913H6.25C5.56 19.4711 5 18.8883 5 18.1731V7.78846C5 7.07322 5.56 6.49038 6.25 6.49038H23.75C24.44 6.49038 25 7.07322 25 7.78846V18.1731ZM23.75 3.89423H6.25C4.1825 3.89423 2.5 5.64144 2.5 7.78846V18.1731C2.5 20.3201 4.1825 22.0673 6.25 22.0673H13.75V24.6635H8.75C8.0625 24.6635 7.5 25.2476 7.5 25.9615C7.5 26.6755 8.0625 27.2596 8.75 27.2596H21.25C21.9375 27.2596 22.5 26.6755 22.5 25.9615C22.5 25.2476 21.9375 24.6635 21.25 24.6635H16.25V22.0673H23.75C25.8175 22.0673 27.5 20.3201 27.5 18.1731V7.78846C27.5 5.64144 25.8175 3.89423 23.75 3.89423Z" fill="url(#paint0_linear_1_13720)"/>
<defs>
<linearGradient id="paint0_linear_1_13720" x1="3.8535" y1="-11.5571" x2="38.8863" y2="4.20039" gradientUnits="userSpaceOnUse">
<stop stop-color="#6A36FF"/>
<stop offset="1" stop-color="#AC5FE6"/>
</linearGradient>
</defs>
</svg>
