<svg xmlns="http://www.w3.org/2000/svg" width="30" height="32" fill="none" viewBox="0 0 30 32"><path fill="url(#paint0_linear_1_13733)" fill-rule="evenodd" d="M18.75 15.5769C17.3693 15.5769 16.25 14.4577 16.25 13.0769V12.9808C16.25 12.2629 15.69 11.6827 15 11.6827C14.31 11.6827 13.75 12.2629 13.75 12.9808V16.875C13.75 17.5929 14.31 18.1731 15 18.1731H18.75C19.44 18.1731 20 17.5929 20 16.875C20 16.1572 19.44 15.5769 18.75 15.5769ZM15 25.637C10.3475 25.637 6.5625 21.7065 6.5625 16.875C6.5625 12.0436 10.3475 8.113 15 8.113C19.6525 8.113 23.4375 12.0436 23.4375 16.875C23.4375 21.7065 19.6525 25.637 15 25.637ZM16.235 5.26761C16.2375 5.24035 16.25 5.21959 16.25 5.19233V5.14425C16.25 4.45389 16.8096 3.89425 17.5 3.89425C18.19 3.89425 18.75 3.31401 18.75 2.59617C18.75 1.87834 18.19 1.2981 17.5 1.2981H12.5C11.81 1.2981 11.25 1.87834 11.25 2.59617C11.25 3.31401 11.81 3.89425 12.5 3.89425C13.1904 3.89425 13.75 4.45389 13.75 5.14425V5.19233C13.75 5.23512 13.7308 5.27149 13.6883 5.27664C8.10136 5.95403 3.75 10.8949 3.75 16.875C3.75 23.3174 8.7975 28.5577 15 28.5577C21.2025 28.5577 26.25 23.3174 26.25 16.875C26.25 10.8675 21.8587 5.90886 16.235 5.26761Z" clip-rule="evenodd"/><defs><linearGradient id="paint0_linear_1_13733" x1="4.968" x2="38.803" y1="-16.728" y2="-4.988" gradientUnits="userSpaceOnUse"><stop stop-color="#6A36FF"/><stop offset="1" stop-color="#AC5FE6"/></linearGradient></defs></svg>