<svg xmlns="http://www.w3.org/2000/svg" width="544" height="248" fill="none" viewBox="0 0 544 248"><rect width="544" height="248" fill="url(#paint0_linear_2989_55574)" rx="10"/><line x1="59" x2="520" y1="120.968" y2="120.968" stroke="#E6E8EC" stroke-dasharray="4.92 4.22"/><line x1="59" x2="520" y1="152.099" y2="152.099" stroke="#E6E8EC" stroke-dasharray="4.92 4.22"/><line x1="59" x2="520" y1="183.23" y2="183.23" stroke="#E6E8EC" stroke-dasharray="4.92 4.22"/><line x1="59" x2="520" y1="214.361" y2="214.361" stroke="#E6E8EC" stroke-dasharray="4.92 4.22"/><path fill="url(#paint1_linear_2989_55574)" d="M82.3007 162.942C72.225 163.177 63.0119 175.731 60.0898 182.955L60.8017 224H519.656V102C513.92 110.645 504.237 132.533 466.082 122.267C457.933 122.063 414.574 122.796 405.704 121.547C396.578 120.262 374.147 129.03 371.015 130.518C356.802 137.266 328.267 127.829 322.615 129.834C315.313 132.423 315.279 131.596 309.925 136.714C298.448 147.685 279.208 151.509 275.063 152.647C268.899 154.339 226.891 144.465 219.024 146.819C207.373 150.305 171.359 165.137 163.293 164.441C147.099 163.045 128.192 157.429 124.426 161.091C111.717 173.451 95.9488 162.623 82.3007 162.942Z"/><path stroke="#0097FE" stroke-linecap="round" stroke-linejoin="round" stroke-width="2.108" d="M60.0898 184.33C77.9711 145.208 105.221 175.002 117.809 166.328C137.455 152.79 150.458 170.287 172.652 163.565C184.349 160.022 212.098 148.984 220.657 147.722C235.615 145.515 265.388 157.151 280.685 152.9C319.223 142.188 310.495 122.997 341.198 132.141C371.902 141.284 380.633 120.055 408.754 122.481C436.875 124.906 459.773 121.778 469.73 123.744C496.701 129.068 508.983 124.559 520 102"/><circle cx="381" cy="120" r="6" fill="#0097FE"/><ellipse cx="381" cy="120" fill="#fff" rx="4.5" ry="4.5"/><path fill="#0097FE" fill-rule="evenodd" d="M359 76C353.477 76 349 80.4772 349 86V90C349 95.5228 353.477 100 359 100H373.389L378.499 105.348C379.329 106.217 380.679 106.217 381.509 105.348L383.479 103.286L386.618 100H402C407.523 100 412 95.5228 412 90V86C412 80.4772 407.523 76 402 76H359Z" clip-rule="evenodd"/><path fill="#fff" d="M368.916 92V85.352L367.536 85.676V84.5L369.564 83.6H370.512V92H368.916ZM374.888 92.144C374.336 92.144 373.836 92.048 373.388 91.856C372.94 91.656 372.58 91.352 372.308 90.944C372.036 90.536 371.892 90.024 371.876 89.408H373.388C373.396 89.816 373.528 90.16 373.784 90.44C374.048 90.712 374.416 90.848 374.888 90.848C375.336 90.848 375.68 90.724 375.92 90.476C376.16 90.228 376.28 89.916 376.28 89.54C376.28 89.1 376.12 88.768 375.8 88.544C375.488 88.312 375.084 88.196 374.588 88.196H373.964V86.936H374.6C375.008 86.936 375.348 86.84 375.62 86.648C375.892 86.456 376.028 86.172 376.028 85.796C376.028 85.484 375.924 85.236 375.716 85.052C375.516 84.86 375.236 84.764 374.876 84.764C374.484 84.764 374.176 84.88 373.952 85.112C373.736 85.344 373.616 85.628 373.592 85.964H372.092C372.124 85.188 372.392 84.576 372.896 84.128C373.408 83.68 374.068 83.456 374.876 83.456C375.452 83.456 375.936 83.56 376.328 83.768C376.728 83.968 377.028 84.236 377.228 84.572C377.436 84.908 377.54 85.28 377.54 85.688C377.54 86.16 377.408 86.56 377.144 86.888C376.888 87.208 376.568 87.424 376.184 87.536C376.656 87.632 377.04 87.864 377.336 88.232C377.632 88.592 377.78 89.048 377.78 89.6C377.78 90.064 377.668 90.488 377.444 90.872C377.22 91.256 376.892 91.564 376.46 91.796C376.036 92.028 375.512 92.144 374.888 92.144ZM382.733 92.144C381.957 92.144 381.293 91.964 380.741 91.604C380.189 91.236 379.761 90.728 379.457 90.08C379.161 89.424 379.013 88.664 379.013 87.8C379.013 86.944 379.161 86.188 379.457 85.532C379.761 84.876 380.189 84.368 380.741 84.008C381.293 83.64 381.957 83.456 382.733 83.456C383.509 83.456 384.173 83.64 384.725 84.008C385.277 84.368 385.701 84.876 385.997 85.532C386.301 86.188 386.453 86.944 386.453 87.8C386.453 88.664 386.301 89.424 385.997 90.08C385.701 90.728 385.277 91.236 384.725 91.604C384.173 91.964 383.509 92.144 382.733 92.144ZM382.733 90.764C383.365 90.764 383.881 90.5 384.281 89.972C384.681 89.444 384.881 88.72 384.881 87.8C384.881 86.88 384.681 86.156 384.281 85.628C383.881 85.1 383.365 84.836 382.733 84.836C382.093 84.836 381.573 85.1 381.173 85.628C380.781 86.156 380.585 86.88 380.585 87.8C380.585 88.72 380.781 89.444 381.173 89.972C381.573 90.5 382.093 90.764 382.733 90.764ZM387.772 92V83.36H389.308V88.46L391.42 86.048H393.244L390.808 88.76L393.64 92H391.72L389.308 89.012V92H387.772Z"/><path fill="#A3AED0" d="M25.5024 121V114.906L24.3152 115.18V114.36L25.9436 113.646H26.6581V121H25.5024ZM30.5056 121.126C29.9873 121.126 29.5391 121.035 29.1608 120.853C28.7826 120.664 28.4814 120.408 28.2573 120.086C28.0402 119.757 27.9071 119.386 27.8581 118.972H28.9507C29.0208 119.323 29.1959 119.613 29.476 119.844C29.7562 120.068 30.1029 120.181 30.5161 120.181C30.8243 120.181 31.0905 120.107 31.3146 119.96C31.5388 119.806 31.7139 119.603 31.8399 119.351C31.966 119.098 32.029 118.815 32.029 118.5C32.029 118.002 31.889 117.606 31.6088 117.312C31.3286 117.011 30.9749 116.861 30.5477 116.861C30.1835 116.861 29.8718 116.948 29.6126 117.123C29.3535 117.291 29.1643 117.505 29.0453 117.764H27.9842L28.6145 113.646H32.5859V114.623H29.455L29.0768 116.587C29.2379 116.405 29.4585 116.255 29.7387 116.136C30.0259 116.01 30.348 115.947 30.7053 115.947C31.2026 115.947 31.6298 116.062 31.987 116.293C32.3442 116.517 32.6174 116.822 32.8065 117.207C33.0026 117.592 33.1007 118.02 33.1007 118.489C33.1007 118.979 32.9956 119.424 32.7855 119.823C32.5754 120.223 32.2742 120.541 31.882 120.779C31.4967 121.011 31.038 121.126 30.5056 121.126ZM37.1478 121.126C36.4824 121.126 35.908 120.968 35.4248 120.653C34.9485 120.331 34.5808 119.886 34.3216 119.319C34.0695 118.745 33.9434 118.079 33.9434 117.323C33.9434 116.566 34.0695 115.904 34.3216 115.337C34.5808 114.763 34.9485 114.318 35.4248 114.003C35.908 113.681 36.4824 113.52 37.1478 113.52C37.8132 113.52 38.384 113.681 38.8603 114.003C39.3366 114.318 39.7008 114.763 39.9529 115.337C40.2121 115.904 40.3417 116.566 40.3417 117.323C40.3417 118.079 40.2121 118.745 39.9529 119.319C39.7008 119.886 39.3366 120.331 38.8603 120.653C38.384 120.968 37.8132 121.126 37.1478 121.126ZM37.1478 120.128C37.547 120.128 37.9007 120.016 38.2089 119.792C38.5241 119.568 38.7692 119.245 38.9443 118.825C39.1194 118.405 39.207 117.904 39.207 117.323C39.207 116.741 39.1194 116.241 38.9443 115.82C38.7692 115.4 38.5241 115.078 38.2089 114.854C37.9007 114.63 37.547 114.518 37.1478 114.518C36.7415 114.518 36.3843 114.63 36.0761 114.854C35.768 115.078 35.5263 115.4 35.3512 115.82C35.1761 116.241 35.0886 116.741 35.0886 117.323C35.0886 117.904 35.1761 118.405 35.3512 118.825C35.5263 119.245 35.768 119.568 36.0761 119.792C36.3843 120.016 36.7415 120.128 37.1478 120.128ZM41.3308 121V113.436H42.4445V117.943L44.4406 115.789H45.7749L43.5581 118.153L46.1006 121H44.6928L42.4445 118.331V121H41.3308Z"/><path fill="#A3AED0" d="M25.5024 152V145.906L24.3152 146.18V145.36L25.9436 144.646H26.6581V152H25.5024ZM30.8839 152.126C30.2185 152.126 29.6441 151.968 29.1608 151.653C28.6846 151.331 28.3168 150.886 28.0577 150.319C27.8055 149.745 27.6795 149.079 27.6795 148.323C27.6795 147.566 27.8055 146.904 28.0577 146.337C28.3168 145.763 28.6846 145.318 29.1608 145.003C29.6441 144.681 30.2185 144.52 30.8839 144.52C31.5493 144.52 32.1201 144.681 32.5964 145.003C33.0727 145.318 33.4369 145.763 33.689 146.337C33.9482 146.904 34.0778 147.566 34.0778 148.323C34.0778 149.079 33.9482 149.745 33.689 150.319C33.4369 150.886 33.0727 151.331 32.5964 151.653C32.1201 151.968 31.5493 152.126 30.8839 152.126ZM30.8839 151.128C31.2831 151.128 31.6368 151.016 31.945 150.792C32.2602 150.568 32.5053 150.245 32.6804 149.825C32.8555 149.405 32.9431 148.904 32.9431 148.323C32.9431 147.741 32.8555 147.241 32.6804 146.82C32.5053 146.4 32.2602 146.078 31.945 145.854C31.6368 145.63 31.2831 145.518 30.8839 145.518C30.4776 145.518 30.1204 145.63 29.8122 145.854C29.504 146.078 29.2624 146.4 29.0873 146.82C28.9122 147.241 28.8246 147.741 28.8246 148.323C28.8246 148.904 28.9122 149.405 29.0873 149.825C29.2624 150.245 29.504 150.568 29.8122 150.792C30.1204 151.016 30.4776 151.128 30.8839 151.128ZM38.0507 152.126C37.3853 152.126 36.8109 151.968 36.3276 151.653C35.8514 151.331 35.4836 150.886 35.2245 150.319C34.9723 149.745 34.8463 149.079 34.8463 148.323C34.8463 147.566 34.9723 146.904 35.2245 146.337C35.4836 145.763 35.8514 145.318 36.3276 145.003C36.8109 144.681 37.3853 144.52 38.0507 144.52C38.7161 144.52 39.2869 144.681 39.7632 145.003C40.2395 145.318 40.6037 145.763 40.8558 146.337C41.115 146.904 41.2445 147.566 41.2445 148.323C41.2445 149.079 41.115 149.745 40.8558 150.319C40.6037 150.886 40.2395 151.331 39.7632 151.653C39.2869 151.968 38.7161 152.126 38.0507 152.126ZM38.0507 151.128C38.4499 151.128 38.8036 151.016 39.1118 150.792C39.427 150.568 39.6721 150.245 39.8472 149.825C40.0223 149.405 40.1099 148.904 40.1099 148.323C40.1099 147.741 40.0223 147.241 39.8472 146.82C39.6721 146.4 39.427 146.078 39.1118 145.854C38.8036 145.63 38.4499 145.518 38.0507 145.518C37.6444 145.518 37.2872 145.63 36.979 145.854C36.6708 146.078 36.4292 146.4 36.2541 146.82C36.079 147.241 35.9914 147.741 35.9914 148.323C35.9914 148.904 36.079 149.405 36.2541 149.825C36.4292 150.245 36.6708 150.568 36.979 150.792C37.2872 151.016 37.6444 151.128 38.0507 151.128ZM42.2337 152V144.436H43.3473V148.943L45.3435 146.789H46.6778L44.461 149.153L47.0035 152H45.5957L43.3473 149.331V152H42.2337Z"/><path fill="#A3AED0" d="M27.3095 183.126C26.7911 183.126 26.3429 183.035 25.9647 182.853C25.5864 182.664 25.2853 182.408 25.0611 182.086C24.844 181.757 24.7109 181.386 24.6619 180.972H25.7545C25.8246 181.323 25.9997 181.613 26.2798 181.844C26.56 182.068 26.9067 182.181 27.32 182.181C27.6281 182.181 27.8943 182.107 28.1184 181.96C28.3426 181.806 28.5177 181.603 28.6437 181.351C28.7698 181.098 28.8329 180.815 28.8329 180.5C28.8329 180.002 28.6928 179.606 28.4126 179.312C28.1324 179.011 27.7787 178.861 27.3515 178.861C26.9873 178.861 26.6756 178.948 26.4164 179.123C26.1573 179.291 25.9682 179.505 25.8491 179.764H24.788L25.4183 175.646H29.3897V176.623H26.2588L25.8806 178.587C26.0417 178.405 26.2623 178.255 26.5425 178.136C26.8297 178.01 27.1519 177.947 27.5091 177.947C28.0064 177.947 28.4336 178.062 28.7908 178.293C29.148 178.517 29.4212 178.822 29.6103 179.207C29.8064 179.592 29.9045 180.02 29.9045 180.489C29.9045 180.979 29.7994 181.424 29.5893 181.823C29.3792 182.223 29.078 182.541 28.6858 182.779C28.3005 183.011 27.8418 183.126 27.3095 183.126ZM33.9516 183.126C33.2862 183.126 32.7119 182.968 32.2286 182.653C31.7523 182.331 31.3846 181.886 31.1254 181.319C30.8733 180.745 30.7472 180.079 30.7472 179.323C30.7472 178.566 30.8733 177.904 31.1254 177.337C31.3846 176.763 31.7523 176.318 32.2286 176.003C32.7119 175.681 33.2862 175.52 33.9516 175.52C34.617 175.52 35.1878 175.681 35.6641 176.003C36.1404 176.318 36.5046 176.763 36.7568 177.337C37.0159 177.904 37.1455 178.566 37.1455 179.323C37.1455 180.079 37.0159 180.745 36.7568 181.319C36.5046 181.886 36.1404 182.331 35.6641 182.653C35.1878 182.968 34.617 183.126 33.9516 183.126ZM33.9516 182.128C34.3508 182.128 34.7045 182.016 35.0127 181.792C35.3279 181.568 35.5731 181.245 35.7482 180.825C35.9233 180.405 36.0108 179.904 36.0108 179.323C36.0108 178.741 35.9233 178.241 35.7482 177.82C35.5731 177.4 35.3279 177.078 35.0127 176.854C34.7045 176.63 34.3508 176.518 33.9516 176.518C33.5454 176.518 33.1881 176.63 32.88 176.854C32.5718 177.078 32.3301 177.4 32.155 177.82C31.9799 178.241 31.8924 178.741 31.8924 179.323C31.8924 179.904 31.9799 180.405 32.155 180.825C32.3301 181.245 32.5718 181.568 32.88 181.792C33.1881 182.016 33.5454 182.128 33.9516 182.128ZM38.1346 183V175.436H39.2483V179.943L41.2445 177.789H42.5788L40.3619 180.153L42.9044 183H41.4966L39.2483 180.331V183H38.1346Z"/><path fill="#A3AED0" d="M25.5024 214V207.906L24.3152 208.18V207.36L25.9436 206.646H26.6581V214H25.5024ZM30.8839 214.126C30.2185 214.126 29.6441 213.968 29.1608 213.653C28.6846 213.331 28.3168 212.886 28.0577 212.319C27.8055 211.745 27.6795 211.079 27.6795 210.323C27.6795 209.566 27.8055 208.904 28.0577 208.337C28.3168 207.763 28.6846 207.318 29.1608 207.003C29.6441 206.681 30.2185 206.52 30.8839 206.52C31.5493 206.52 32.1201 206.681 32.5964 207.003C33.0727 207.318 33.4369 207.763 33.689 208.337C33.9482 208.904 34.0778 209.566 34.0778 210.323C34.0778 211.079 33.9482 211.745 33.689 212.319C33.4369 212.886 33.0727 213.331 32.5964 213.653C32.1201 213.968 31.5493 214.126 30.8839 214.126ZM30.8839 213.128C31.2831 213.128 31.6368 213.016 31.945 212.792C32.2602 212.568 32.5053 212.245 32.6804 211.825C32.8555 211.405 32.9431 210.904 32.9431 210.323C32.9431 209.741 32.8555 209.241 32.6804 208.82C32.5053 208.4 32.2602 208.078 31.945 207.854C31.6368 207.63 31.2831 207.518 30.8839 207.518C30.4776 207.518 30.1204 207.63 29.8122 207.854C29.504 208.078 29.2624 208.4 29.0873 208.82C28.9122 209.241 28.8246 209.741 28.8246 210.323C28.8246 210.904 28.9122 211.405 29.0873 211.825C29.2624 212.245 29.504 212.568 29.8122 212.792C30.1204 213.016 30.4776 213.128 30.8839 213.128ZM35.0669 214V206.436H36.1806V210.943L38.1767 208.789H39.511L37.2942 211.153L39.8367 214H38.4289L36.1806 211.331V214H35.0669Z"/><path fill="#1B2559" d="M29.544 45V30.672H24.648V28.2H37.536V30.672H32.616V45H29.544ZM42.5754 45.288C41.4234 45.288 40.3834 45.024 39.4554 44.496C38.5434 43.968 37.8154 43.24 37.2714 42.312C36.7434 41.368 36.4794 40.28 36.4794 39.048C36.4794 37.816 36.7514 36.736 37.2954 35.808C37.8394 34.864 38.5674 34.128 39.4794 33.6C40.4074 33.072 41.4474 32.808 42.5994 32.808C43.7354 32.808 44.7594 33.072 45.6714 33.6C46.5994 34.128 47.3274 34.864 47.8554 35.808C48.3994 36.736 48.6714 37.816 48.6714 39.048C48.6714 40.28 48.3994 41.368 47.8554 42.312C47.3274 43.24 46.5994 43.968 45.6714 44.496C44.7434 45.024 43.7114 45.288 42.5754 45.288ZM42.5754 42.624C43.3754 42.624 44.0714 42.328 44.6634 41.736C45.2554 41.128 45.5514 40.232 45.5514 39.048C45.5514 37.864 45.2554 36.976 44.6634 36.384C44.0714 35.776 43.3834 35.472 42.5994 35.472C41.7834 35.472 41.0794 35.776 40.4874 36.384C39.9114 36.976 39.6234 37.864 39.6234 39.048C39.6234 40.232 39.9114 41.128 40.4874 41.736C41.0794 42.328 41.7754 42.624 42.5754 42.624ZM55.5334 45C54.2854 45 53.2854 44.696 52.5334 44.088C51.7814 43.48 51.4054 42.4 51.4054 40.848V35.664H49.3654V33.096H51.4054L51.7654 29.904H54.4774V33.096H57.6934V35.664H54.4774V40.872C54.4774 41.448 54.5974 41.848 54.8374 42.072C55.0934 42.28 55.5254 42.384 56.1334 42.384H57.6214V45H55.5334ZM63.7149 45.288C62.6909 45.288 61.8509 45.128 61.1949 44.808C60.5389 44.472 60.0509 44.032 59.7309 43.488C59.4109 42.944 59.2509 42.344 59.2509 41.688C59.2509 40.584 59.6829 39.688 60.5469 39C61.4109 38.312 62.7069 37.968 64.4349 37.968H67.4589V37.68C67.4589 36.864 67.2269 36.264 66.7629 35.88C66.2989 35.496 65.7229 35.304 65.0349 35.304C64.4109 35.304 63.8669 35.456 63.4029 35.76C62.9389 36.048 62.6509 36.48 62.5389 37.056H59.5389C59.6189 36.192 59.9069 35.44 60.4029 34.8C60.9149 34.16 61.5709 33.672 62.3709 33.336C63.1709 32.984 64.0669 32.808 65.0589 32.808C66.7549 32.808 68.0909 33.232 69.0669 34.08C70.0429 34.928 70.5309 36.128 70.5309 37.68V45H67.9149L67.6269 43.08C67.2749 43.72 66.7789 44.248 66.1389 44.664C65.5149 45.08 64.7069 45.288 63.7149 45.288ZM64.4109 42.888C65.2909 42.888 65.9709 42.6 66.4509 42.024C66.9469 41.448 67.2589 40.736 67.3869 39.888H64.7709C63.9549 39.888 63.3709 40.04 63.0189 40.344C62.6669 40.632 62.4909 40.992 62.4909 41.424C62.4909 41.888 62.6669 42.248 63.0189 42.504C63.3709 42.76 63.8349 42.888 64.4109 42.888ZM72.7425 45V27.72H75.8145V45H72.7425ZM89.3282 45.288C88.0962 45.288 87.0322 45.072 86.1362 44.64C85.2562 44.208 84.5602 43.616 84.0482 42.864C83.5522 42.096 83.2642 41.232 83.1842 40.272H86.1842C86.3282 40.96 86.6802 41.536 87.2402 42C87.8002 42.448 88.4962 42.672 89.3282 42.672C90.2242 42.672 90.9522 42.344 91.5122 41.688C92.0882 41.032 92.3762 40.216 92.3762 39.24C92.3762 38.232 92.0882 37.432 91.5122 36.84C90.9522 36.248 90.2402 35.952 89.3762 35.952C88.6562 35.952 88.0322 36.128 87.5042 36.48C86.9762 36.832 86.6002 37.272 86.3762 37.8H83.4242L84.8642 28.2H94.1762V30.888H87.1682L86.4002 34.776C86.7522 34.392 87.2322 34.08 87.8402 33.84C88.4482 33.584 89.1282 33.456 89.8802 33.456C91.0802 33.456 92.0802 33.728 92.8802 34.272C93.6802 34.8 94.2882 35.504 94.7042 36.384C95.1202 37.248 95.3282 38.192 95.3282 39.216C95.3282 40.384 95.0722 41.424 94.5602 42.336C94.0642 43.248 93.3602 43.968 92.4482 44.496C91.5522 45.024 90.5122 45.288 89.3282 45.288ZM98.2161 45L104.552 30.816H96.2721V28.2H107.72V30.384L101.408 45H98.2161ZM114.788 45.288C113.62 45.288 112.636 45.064 111.836 44.616C111.036 44.152 110.412 43.552 109.964 42.816C109.516 42.08 109.252 41.288 109.172 40.44H112.028C112.156 41.176 112.46 41.744 112.94 42.144C113.436 42.544 114.06 42.744 114.812 42.744C115.884 42.744 116.748 42.256 117.404 41.28C118.06 40.288 118.412 38.784 118.46 36.768C118.076 37.424 117.492 37.968 116.708 38.4C115.94 38.832 115.092 39.048 114.164 39.048C113.236 39.048 112.364 38.824 111.548 38.376C110.732 37.928 110.068 37.296 109.556 36.48C109.044 35.664 108.788 34.704 108.788 33.6C108.788 32.592 109.036 31.656 109.532 30.792C110.028 29.928 110.716 29.232 111.596 28.704C112.476 28.176 113.508 27.912 114.692 27.912C115.956 27.912 117.02 28.144 117.884 28.608C118.748 29.072 119.436 29.696 119.948 30.48C120.476 31.264 120.852 32.136 121.076 33.096C121.316 34.056 121.436 35.04 121.436 36.048C121.436 37.92 121.172 39.552 120.644 40.944C120.132 42.32 119.372 43.392 118.364 44.16C117.372 44.912 116.18 45.288 114.788 45.288ZM114.884 36.456C115.476 36.456 116.012 36.328 116.492 36.072C116.972 35.8 117.348 35.448 117.62 35.016C117.892 34.568 118.028 34.072 118.028 33.528C118.028 32.664 117.724 31.952 117.116 31.392C116.524 30.832 115.772 30.552 114.86 30.552C113.964 30.552 113.22 30.832 112.628 31.392C112.036 31.936 111.74 32.632 111.74 33.48C111.74 34.376 112.036 35.096 112.628 35.64C113.22 36.184 113.972 36.456 114.884 36.456ZM122.247 47.784L123.615 41.808H126.591L124.263 47.784H122.247ZM134.113 45.288C132.945 45.288 131.961 45.064 131.161 44.616C130.361 44.152 129.737 43.552 129.289 42.816C128.841 42.08 128.577 41.288 128.497 40.44H131.353C131.481 41.176 131.785 41.744 132.265 42.144C132.761 42.544 133.385 42.744 134.137 42.744C135.209 42.744 136.073 42.256 136.729 41.28C137.385 40.288 137.737 38.784 137.785 36.768C137.401 37.424 136.817 37.968 136.033 38.4C135.265 38.832 134.417 39.048 133.489 39.048C132.561 39.048 131.689 38.824 130.873 38.376C130.057 37.928 129.393 37.296 128.881 36.48C128.369 35.664 128.113 34.704 128.113 33.6C128.113 32.592 128.361 31.656 128.857 30.792C129.353 29.928 130.041 29.232 130.921 28.704C131.801 28.176 132.833 27.912 134.017 27.912C135.281 27.912 136.345 28.144 137.209 28.608C138.073 29.072 138.761 29.696 139.273 30.48C139.801 31.264 140.177 32.136 140.401 33.096C140.641 34.056 140.761 35.04 140.761 36.048C140.761 37.92 140.497 39.552 139.969 40.944C139.457 42.32 138.697 43.392 137.689 44.16C136.697 44.912 135.505 45.288 134.113 45.288ZM134.209 36.456C134.801 36.456 135.337 36.328 135.817 36.072C136.297 35.8 136.673 35.448 136.945 35.016C137.217 34.568 137.353 34.072 137.353 33.528C137.353 32.664 137.049 31.952 136.441 31.392C135.849 30.832 135.097 30.552 134.185 30.552C133.289 30.552 132.545 30.832 131.953 31.392C131.361 31.936 131.065 32.632 131.065 33.48C131.065 34.376 131.361 35.096 131.953 35.64C132.545 36.184 133.297 36.456 134.209 36.456ZM148.604 45.288C147.436 45.288 146.452 45.064 145.652 44.616C144.852 44.152 144.228 43.552 143.78 42.816C143.332 42.08 143.068 41.288 142.988 40.44H145.844C145.972 41.176 146.276 41.744 146.756 42.144C147.252 42.544 147.876 42.744 148.628 42.744C149.7 42.744 150.564 42.256 151.22 41.28C151.876 40.288 152.228 38.784 152.276 36.768C151.892 37.424 151.308 37.968 150.524 38.4C149.756 38.832 148.908 39.048 147.98 39.048C147.052 39.048 146.18 38.824 145.364 38.376C144.548 37.928 143.884 37.296 143.372 36.48C142.86 35.664 142.604 34.704 142.604 33.6C142.604 32.592 142.852 31.656 143.348 30.792C143.844 29.928 144.532 29.232 145.412 28.704C146.292 28.176 147.324 27.912 148.508 27.912C149.772 27.912 150.836 28.144 151.7 28.608C152.564 29.072 153.252 29.696 153.764 30.48C154.292 31.264 154.668 32.136 154.892 33.096C155.132 34.056 155.252 35.04 155.252 36.048C155.252 37.92 154.988 39.552 154.46 40.944C153.948 42.32 153.188 43.392 152.18 44.16C151.188 44.912 149.996 45.288 148.604 45.288ZM148.7 36.456C149.292 36.456 149.828 36.328 150.308 36.072C150.788 35.8 151.164 35.448 151.436 35.016C151.708 34.568 151.844 34.072 151.844 33.528C151.844 32.664 151.54 31.952 150.932 31.392C150.34 30.832 149.588 30.552 148.676 30.552C147.78 30.552 147.036 30.832 146.444 31.392C145.852 31.936 145.556 32.632 145.556 33.48C145.556 34.376 145.852 35.096 146.444 35.64C147.036 36.184 147.788 36.456 148.7 36.456ZM162.286 45V27.72H165.358V37.92L169.582 33.096H173.23L168.358 38.52L174.022 45H170.182L165.358 39.024V45H162.286Z"/><path fill="#A3AED0" d="M26.856 64V56.428H24.348V55.6H30.372V56.428H27.864V64H26.856ZM33.1767 64.144C32.6167 64.144 32.1127 64.016 31.6647 63.76C31.2167 63.504 30.8607 63.144 30.5967 62.68C30.3407 62.208 30.2127 61.656 30.2127 61.024C30.2127 60.392 30.3447 59.844 30.6087 59.38C30.8727 58.908 31.2287 58.544 31.6767 58.288C32.1327 58.032 32.6407 57.904 33.2007 57.904C33.7607 57.904 34.2647 58.032 34.7127 58.288C35.1607 58.544 35.5127 58.908 35.7687 59.38C36.0327 59.844 36.1647 60.392 36.1647 61.024C36.1647 61.656 36.0327 62.208 35.7687 62.68C35.5047 63.144 35.1447 63.504 34.6887 63.76C34.2407 64.016 33.7367 64.144 33.1767 64.144ZM33.1767 63.28C33.5207 63.28 33.8407 63.196 34.1367 63.028C34.4327 62.86 34.6727 62.608 34.8567 62.272C35.0407 61.936 35.1327 61.52 35.1327 61.024C35.1327 60.528 35.0407 60.112 34.8567 59.776C34.6807 59.44 34.4447 59.188 34.1487 59.02C33.8527 58.852 33.5367 58.768 33.2007 58.768C32.8567 58.768 32.5367 58.852 32.2407 59.02C31.9447 59.188 31.7047 59.44 31.5207 59.776C31.3367 60.112 31.2447 60.528 31.2447 61.024C31.2447 61.52 31.3367 61.936 31.5207 62.272C31.7047 62.608 31.9407 62.86 32.2287 63.028C32.5247 63.196 32.8407 63.28 33.1767 63.28ZM39.6839 64C39.1399 64 38.7119 63.868 38.3999 63.604C38.0879 63.34 37.9319 62.864 37.9319 62.176V58.9H36.8999V58.048H37.9319L38.0639 56.62H38.9399V58.048H40.6919V58.9H38.9399V62.176C38.9399 62.552 39.0159 62.808 39.1679 62.944C39.3199 63.072 39.5879 63.136 39.9719 63.136H40.5959V64H39.6839ZM43.9525 64.144C43.4565 64.144 43.0445 64.06 42.7165 63.892C42.3885 63.724 42.1445 63.5 41.9845 63.22C41.8245 62.94 41.7445 62.636 41.7445 62.308C41.7445 61.7 41.9765 61.232 42.4405 60.904C42.9045 60.576 43.5365 60.412 44.3365 60.412H45.9445V60.34C45.9445 59.82 45.8085 59.428 45.5365 59.164C45.2645 58.892 44.9005 58.756 44.4445 58.756C44.0525 58.756 43.7125 58.856 43.4245 59.056C43.1445 59.248 42.9685 59.532 42.8965 59.908H41.8645C41.9045 59.476 42.0485 59.112 42.2965 58.816C42.5525 58.52 42.8685 58.296 43.2445 58.144C43.6205 57.984 44.0205 57.904 44.4445 57.904C45.2765 57.904 45.9005 58.128 46.3165 58.576C46.7405 59.016 46.9525 59.604 46.9525 60.34V64H46.0525L45.9925 62.932C45.8245 63.268 45.5765 63.556 45.2485 63.796C44.9285 64.028 44.4965 64.144 43.9525 64.144ZM44.1085 63.292C44.4925 63.292 44.8205 63.192 45.0925 62.992C45.3725 62.792 45.5845 62.532 45.7285 62.212C45.8725 61.892 45.9445 61.556 45.9445 61.204V61.192H44.4205C43.8285 61.192 43.4085 61.296 43.1605 61.504C42.9205 61.704 42.8005 61.956 42.8005 62.26C42.8005 62.572 42.9125 62.824 43.1365 63.016C43.3685 63.2 43.6925 63.292 44.1085 63.292ZM48.4647 64V55.36H49.4727V64H48.4647ZM56.3287 64V56.428H53.8207V55.6H59.8447V56.428H57.3367V64H56.3287ZM60.3358 64V58.048H61.2478L61.3318 59.188C61.5158 58.796 61.7958 58.484 62.1718 58.252C62.5478 58.02 63.0118 57.904 63.5638 57.904V58.96H63.2878C62.9358 58.96 62.6118 59.024 62.3158 59.152C62.0198 59.272 61.7838 59.48 61.6078 59.776C61.4318 60.072 61.3438 60.48 61.3438 61V64H60.3358ZM66.6752 64.144C66.1792 64.144 65.7672 64.06 65.4392 63.892C65.1112 63.724 64.8672 63.5 64.7072 63.22C64.5472 62.94 64.4672 62.636 64.4672 62.308C64.4672 61.7 64.6992 61.232 65.1632 60.904C65.6272 60.576 66.2592 60.412 67.0592 60.412H68.6672V60.34C68.6672 59.82 68.5312 59.428 68.2592 59.164C67.9872 58.892 67.6232 58.756 67.1672 58.756C66.7752 58.756 66.4352 58.856 66.1472 59.056C65.8672 59.248 65.6912 59.532 65.6192 59.908H64.5872C64.6272 59.476 64.7712 59.112 65.0192 58.816C65.2752 58.52 65.5912 58.296 65.9672 58.144C66.3432 57.984 66.7432 57.904 67.1672 57.904C67.9992 57.904 68.6232 58.128 69.0392 58.576C69.4632 59.016 69.6752 59.604 69.6752 60.34V64H68.7752L68.7152 62.932C68.5472 63.268 68.2992 63.556 67.9712 63.796C67.6512 64.028 67.2192 64.144 66.6752 64.144ZM66.8312 63.292C67.2152 63.292 67.5432 63.192 67.8152 62.992C68.0952 62.792 68.3072 62.532 68.4512 62.212C68.5952 61.892 68.6672 61.556 68.6672 61.204V61.192H67.1432C66.5512 61.192 66.1312 61.296 65.8832 61.504C65.6432 61.704 65.5232 61.956 65.5232 62.26C65.5232 62.572 65.6352 62.824 65.8592 63.016C66.0912 63.2 66.4152 63.292 66.8312 63.292ZM71.5114 64V58.9H70.6114V58.048H71.5114V57.016C71.5114 56.44 71.6554 56.02 71.9434 55.756C72.2314 55.492 72.6514 55.36 73.2034 55.36H73.8034V56.224H73.3594C73.0554 56.224 72.8394 56.288 72.7114 56.416C72.5834 56.536 72.5194 56.744 72.5194 57.04V58.048H73.9834V58.9H72.5194V64H71.5114ZM75.5075 64V58.9H74.6075V58.048H75.5075V57.016C75.5075 56.44 75.6515 56.02 75.9395 55.756C76.2275 55.492 76.6475 55.36 77.1995 55.36H77.7995V56.224H77.3555C77.0515 56.224 76.8355 56.288 76.7075 56.416C76.5795 56.536 76.5155 56.744 76.5155 57.04V58.048H80.2115V64H79.2035V58.9H76.5155V64H75.5075ZM79.7195 56.908C79.5275 56.908 79.3635 56.844 79.2275 56.716C79.0915 56.58 79.0235 56.412 79.0235 56.212C79.0235 56.02 79.0915 55.86 79.2275 55.732C79.3635 55.604 79.5275 55.54 79.7195 55.54C79.9195 55.54 80.0835 55.604 80.2115 55.732C80.3475 55.86 80.4155 56.02 80.4155 56.212C80.4155 56.412 80.3475 56.58 80.2115 56.716C80.0835 56.844 79.9195 56.908 79.7195 56.908ZM84.7281 64.144C84.1601 64.144 83.6481 64.016 83.1921 63.76C82.7441 63.496 82.3881 63.132 82.1241 62.668C81.8681 62.196 81.7401 61.648 81.7401 61.024C81.7401 60.4 81.8681 59.856 82.1241 59.392C82.3881 58.92 82.7441 58.556 83.1921 58.3C83.6481 58.036 84.1601 57.904 84.7281 57.904C85.4321 57.904 86.0241 58.088 86.5041 58.456C86.9921 58.824 87.3001 59.316 87.4281 59.932H86.3961C86.3161 59.564 86.1201 59.28 85.8081 59.08C85.4961 58.872 85.1321 58.768 84.7161 58.768C84.3801 58.768 84.0641 58.852 83.7681 59.02C83.4721 59.188 83.2321 59.44 83.0481 59.776C82.8641 60.112 82.7721 60.528 82.7721 61.024C82.7721 61.52 82.8641 61.936 83.0481 62.272C83.2321 62.608 83.4721 62.864 83.7681 63.04C84.0641 63.208 84.3801 63.292 84.7161 63.292C85.1321 63.292 85.4961 63.192 85.8081 62.992C86.1201 62.784 86.3161 62.492 86.3961 62.116H87.4281C87.3081 62.716 87.0041 63.204 86.5161 63.58C86.0281 63.956 85.4321 64.144 84.7281 64.144Z"/><g clip-path="url(#clip0_2989_55574)"><path fill="#05CD99" d="M95.6665 61.3333L98.9998 58L102.333 61.3333H95.6665Z"/></g><path fill="#05CD99" d="M107.926 61.168V59.884H110.182V57.808H111.49V59.884H113.734V61.168H111.49V63.244H110.182V61.168H107.926ZM115.026 64V62.884C115.538 62.46 116.034 62.04 116.514 61.624C117.002 61.208 117.434 60.796 117.81 60.388C118.194 59.98 118.498 59.584 118.722 59.2C118.954 58.808 119.07 58.428 119.07 58.06C119.07 57.716 118.974 57.412 118.782 57.148C118.598 56.884 118.29 56.752 117.858 56.752C117.418 56.752 117.086 56.896 116.862 57.184C116.638 57.472 116.526 57.82 116.526 58.228H115.038C115.054 57.612 115.19 57.1 115.446 56.692C115.702 56.276 116.042 55.968 116.466 55.768C116.89 55.56 117.366 55.456 117.894 55.456C118.75 55.456 119.414 55.692 119.886 56.164C120.366 56.628 120.606 57.232 120.606 57.976C120.606 58.44 120.498 58.892 120.282 59.332C120.074 59.772 119.798 60.196 119.454 60.604C119.11 61.012 118.738 61.396 118.338 61.756C117.938 62.108 117.55 62.436 117.174 62.74H120.81V64H115.026ZM122.71 64.084C122.43 64.084 122.198 63.996 122.014 63.82C121.838 63.644 121.75 63.432 121.75 63.184C121.75 62.928 121.838 62.712 122.014 62.536C122.198 62.36 122.43 62.272 122.71 62.272C122.99 62.272 123.218 62.36 123.394 62.536C123.578 62.712 123.67 62.928 123.67 63.184C123.67 63.432 123.578 63.644 123.394 63.82C123.218 63.996 122.99 64.084 122.71 64.084ZM128.808 64V62.44H124.668V61.216L128.604 55.6H130.344V61.108H131.448V62.44H130.344V64H128.808ZM126.312 61.108H128.904V57.292L126.312 61.108ZM135.668 64.144C135.052 64.144 134.52 64.036 134.072 63.82C133.632 63.604 133.284 63.308 133.028 62.932C132.78 62.548 132.636 62.116 132.596 61.636H134.096C134.168 61.98 134.344 62.268 134.624 62.5C134.904 62.724 135.252 62.836 135.668 62.836C136.116 62.836 136.48 62.672 136.76 62.344C137.048 62.016 137.192 61.608 137.192 61.12C137.192 60.616 137.048 60.216 136.76 59.92C136.48 59.624 136.124 59.476 135.692 59.476C135.332 59.476 135.02 59.564 134.756 59.74C134.492 59.916 134.304 60.136 134.192 60.4H132.716L133.436 55.6H138.092V56.944H134.588L134.204 58.888C134.38 58.696 134.62 58.54 134.924 58.42C135.228 58.292 135.568 58.228 135.944 58.228C136.544 58.228 137.044 58.364 137.444 58.636C137.844 58.9 138.148 59.252 138.356 59.692C138.564 60.124 138.668 60.596 138.668 61.108C138.668 61.692 138.54 62.212 138.284 62.668C138.036 63.124 137.684 63.484 137.228 63.748C136.78 64.012 136.26 64.144 135.668 64.144ZM141.825 59.728C141.441 59.728 141.093 59.644 140.781 59.476C140.469 59.3 140.221 59.052 140.037 58.732C139.853 58.412 139.761 58.032 139.761 57.592C139.761 57.152 139.853 56.772 140.037 56.452C140.221 56.132 140.469 55.888 140.781 55.72C141.093 55.544 141.445 55.456 141.837 55.456C142.221 55.456 142.565 55.544 142.869 55.72C143.181 55.888 143.429 56.132 143.613 56.452C143.797 56.772 143.889 57.152 143.889 57.592C143.889 58.032 143.797 58.412 143.613 58.732C143.429 59.052 143.181 59.3 142.869 59.476C142.557 59.644 142.209 59.728 141.825 59.728ZM141.369 64L146.109 55.6H147.609L142.869 64H141.369ZM141.825 58.66C142.057 58.66 142.257 58.572 142.425 58.396C142.593 58.212 142.677 57.944 142.677 57.592C142.677 57.24 142.593 56.972 142.425 56.788C142.265 56.604 142.065 56.512 141.825 56.512C141.585 56.512 141.381 56.604 141.213 56.788C141.053 56.972 140.973 57.24 140.973 57.592C140.973 57.944 141.053 58.212 141.213 58.396C141.381 58.572 141.585 58.66 141.825 58.66ZM147.201 64.144C146.817 64.144 146.469 64.06 146.157 63.892C145.845 63.716 145.597 63.468 145.413 63.148C145.229 62.828 145.137 62.448 145.137 62.008C145.137 61.568 145.229 61.192 145.413 60.88C145.597 60.56 145.845 60.316 146.157 60.148C146.469 59.972 146.821 59.884 147.213 59.884C147.597 59.884 147.941 59.972 148.245 60.148C148.557 60.316 148.805 60.56 148.989 60.88C149.173 61.192 149.265 61.568 149.265 62.008C149.265 62.448 149.173 62.828 148.989 63.148C148.805 63.468 148.557 63.716 148.245 63.892C147.941 64.06 147.593 64.144 147.201 64.144ZM147.201 63.076C147.441 63.076 147.641 62.988 147.801 62.812C147.969 62.628 148.053 62.36 148.053 62.008C148.053 61.656 147.969 61.388 147.801 61.204C147.641 61.02 147.441 60.928 147.201 60.928C146.961 60.928 146.757 61.02 146.589 61.204C146.429 61.388 146.349 61.656 146.349 62.008C146.349 62.36 146.429 62.628 146.589 62.812C146.757 62.988 146.961 63.076 147.201 63.076Z"/><rect width="24" height="24" x="496" y="34" fill="#F4F7FE" rx="4"/><g clip-path="url(#clip1_2989_55574)"><path fill="#0097FE" d="M504.114 44.4626H504.247C504.761 44.4626 505.181 44.8826 505.181 45.3959V50.0626C505.181 50.5759 504.761 50.9959 504.247 50.9959H504.114C503.601 50.9959 503.181 50.5759 503.181 50.0626V45.3959C503.181 44.8826 503.601 44.4626 504.114 44.4626V44.4626ZM507.847 41.6626C508.361 41.6626 508.781 42.0826 508.781 42.5959V50.0626C508.781 50.5759 508.361 50.9959 507.847 50.9959C507.334 50.9959 506.914 50.5759 506.914 50.0626V42.5959C506.914 42.0826 507.334 41.6626 507.847 41.6626ZM511.581 46.9959C512.094 46.9959 512.514 47.4159 512.514 47.9293V50.0626C512.514 50.5759 512.094 50.9959 511.581 50.9959C511.067 50.9959 510.647 50.5759 510.647 50.0626V47.9293C510.647 47.4159 511.067 46.9959 511.581 46.9959V46.9959Z"/></g><defs><linearGradient id="paint0_linear_2989_55574" x1="3.721" x2="534.206" y1="4.221" y2="268.505" gradientUnits="userSpaceOnUse"><stop offset=".339" stop-color="#fff"/><stop offset="1" stop-color="#fff" stop-opacity=".87"/></linearGradient><linearGradient id="paint1_linear_2989_55574" x1="289.873" x2="289.873" y1="102" y2="224" gradientUnits="userSpaceOnUse"><stop stop-color="#EBF7FF"/><stop offset="1" stop-color="#EBF7FF" stop-opacity="0"/></linearGradient><clipPath id="clip0_2989_55574"><rect width="16" height="16" fill="#fff" transform="translate(91 52)"/></clipPath><clipPath id="clip1_2989_55574"><rect width="16" height="16" fill="#fff" transform="translate(499.848 38.3293)"/></clipPath></defs></svg>