<svg xmlns="http://www.w3.org/2000/svg" width="560" height="542" fill="none" viewBox="0 0 560 542"><rect width="560" height="504" y="38" fill="#fff" rx="10"/><rect width="528" height="224" x="16" y="302" fill="#fff" rx="10"/><rect width="24" height="24" x="496" y="336" fill="#F4F7FE" rx="4"/><g clip-path="url(#clip0_2989_55573)"><path fill="#0097FE" d="M503.947 346.434H504.08C504.594 346.434 505.014 346.854 505.014 347.368V352.034C505.014 352.548 504.594 352.968 504.08 352.968H503.947C503.434 352.968 503.014 352.548 503.014 352.034V347.368C503.014 346.854 503.434 346.434 503.947 346.434V346.434ZM507.68 343.634C508.194 343.634 508.614 344.054 508.614 344.568V352.034C508.614 352.548 508.194 352.968 507.68 352.968C507.167 352.968 506.747 352.548 506.747 352.034V344.568C506.747 344.054 507.167 343.634 507.68 343.634ZM511.414 348.968C511.927 348.968 512.347 349.388 512.347 349.901V352.034C512.347 352.548 511.927 352.968 511.414 352.968C510.9 352.968 510.48 352.548 510.48 352.034V349.901C510.48 349.388 510.9 348.968 511.414 348.968V348.968Z"/></g><rect width="24" height="40" x="40" y="442" fill="#EDF1FC" rx="4"/><rect width="24" height="55" x="76" y="427" fill="#EDF1FC" rx="4"/><rect width="24" height="60" x="112" y="422" fill="#EDF1FC" rx="4"/><rect width="24" height="72" x="148" y="410" fill="#EDF1FC" rx="4"/><rect width="24" height="64" x="184" y="418" fill="#EDF1FC" rx="4"/><rect width="24" height="96" x="220" y="386" fill="#0097FE" rx="4"/><rect width="24" height="56" x="256" y="426" fill="#EDF1FC" rx="4"/><rect width="24" height="80" x="292" y="402" fill="#EDF1FC" rx="4"/><rect width="24" height="64" x="328" y="418" fill="#EDF1FC" rx="4"/><rect width="24" height="72" x="364" y="410" fill="#EDF1FC" rx="4"/><rect width="24" height="80" x="400" y="402" fill="#EDF1FC" rx="4"/><rect width="24" height="88" x="436" y="394" fill="#EDF1FC" rx="4"/><rect width="24" height="72" x="472" y="410" fill="#EDF1FC" rx="4"/><line x1="40" x2="480" y1="385.5" y2="385.5" stroke="#0097FE" stroke-dasharray="4.74 4.06"/><path fill="#0097FE" d="M489.072 391.044V390.12C488.288 390.032 487.668 389.752 487.212 389.28C486.756 388.808 486.528 388.208 486.528 387.48H487.584C487.584 387.904 487.708 388.284 487.956 388.62C488.212 388.948 488.584 389.16 489.072 389.256V386.004C489.016 385.988 488.956 385.972 488.892 385.956C488.836 385.932 488.78 385.912 488.724 385.896C488.076 385.672 487.596 385.396 487.284 385.068C486.972 384.732 486.816 384.296 486.816 383.76C486.808 383.136 487.004 382.616 487.404 382.2C487.812 381.784 488.368 381.544 489.072 381.48V380.508H489.9V381.48C490.572 381.56 491.108 381.812 491.508 382.236C491.908 382.66 492.112 383.176 492.12 383.784H491.064C491.064 383.488 490.968 383.204 490.776 382.932C490.584 382.652 490.292 382.464 489.9 382.368V385.272C489.964 385.288 490.028 385.308 490.092 385.332C490.156 385.356 490.224 385.376 490.296 385.392C490.696 385.536 491.056 385.704 491.376 385.896C491.696 386.088 491.944 386.336 492.12 386.64C492.304 386.944 492.396 387.332 492.396 387.804C492.396 388.18 492.304 388.536 492.12 388.872C491.936 389.208 491.656 389.492 491.28 389.724C490.912 389.956 490.452 390.092 489.9 390.132V391.044H489.072ZM487.86 383.664C487.86 384.032 487.968 384.312 488.184 384.504C488.4 384.688 488.696 384.848 489.072 384.984V382.344C488.712 382.4 488.42 382.544 488.196 382.776C487.972 383 487.86 383.296 487.86 383.664ZM491.352 387.864C491.352 387.4 491.216 387.056 490.944 386.832C490.672 386.608 490.324 386.424 489.9 386.28V389.28C490.364 389.224 490.72 389.064 490.968 388.8C491.224 388.536 491.352 388.224 491.352 387.864ZM494.654 390V382.728L493.298 383.028V382.332L494.99 381.6H495.674V390H494.654ZM500.723 390.144C499.979 390.144 499.335 389.964 498.791 389.604C498.255 389.236 497.843 388.728 497.555 388.08C497.267 387.424 497.123 386.664 497.123 385.8C497.123 384.936 497.267 384.18 497.555 383.532C497.843 382.876 498.255 382.368 498.791 382.008C499.335 381.64 499.979 381.456 500.723 381.456C501.467 381.456 502.107 381.64 502.643 382.008C503.179 382.368 503.591 382.876 503.879 383.532C504.167 384.18 504.311 384.936 504.311 385.8C504.311 386.664 504.167 387.424 503.879 388.08C503.591 388.728 503.179 389.236 502.643 389.604C502.107 389.964 501.467 390.144 500.723 390.144ZM500.723 389.256C501.211 389.256 501.647 389.12 502.031 388.848C502.423 388.568 502.727 388.172 502.943 387.66C503.167 387.14 503.279 386.52 503.279 385.8C503.279 385.08 503.167 384.464 502.943 383.952C502.727 383.44 502.423 383.048 502.031 382.776C501.647 382.496 501.211 382.356 500.723 382.356C500.227 382.356 499.787 382.496 499.403 382.776C499.019 383.048 498.715 383.44 498.491 383.952C498.267 384.464 498.155 385.08 498.155 385.8C498.155 386.52 498.267 387.14 498.491 387.66C498.715 388.172 499.019 388.568 499.403 388.848C499.787 389.12 500.227 389.256 500.723 389.256ZM509.043 390.144C508.299 390.144 507.655 389.964 507.111 389.604C506.575 389.236 506.163 388.728 505.875 388.08C505.587 387.424 505.443 386.664 505.443 385.8C505.443 384.936 505.587 384.18 505.875 383.532C506.163 382.876 506.575 382.368 507.111 382.008C507.655 381.64 508.299 381.456 509.043 381.456C509.787 381.456 510.427 381.64 510.963 382.008C511.499 382.368 511.911 382.876 512.199 383.532C512.487 384.18 512.631 384.936 512.631 385.8C512.631 386.664 512.487 387.424 512.199 388.08C511.911 388.728 511.499 389.236 510.963 389.604C510.427 389.964 509.787 390.144 509.043 390.144ZM509.043 389.256C509.531 389.256 509.967 389.12 510.351 388.848C510.743 388.568 511.047 388.172 511.263 387.66C511.487 387.14 511.599 386.52 511.599 385.8C511.599 385.08 511.487 384.464 511.263 383.952C511.047 383.44 510.743 383.048 510.351 382.776C509.967 382.496 509.531 382.356 509.043 382.356C508.547 382.356 508.107 382.496 507.723 382.776C507.339 383.048 507.035 383.44 506.811 383.952C506.587 384.464 506.475 385.08 506.475 385.8C506.475 386.52 506.587 387.14 506.811 387.66C507.035 388.172 507.339 388.568 507.723 388.848C508.107 389.12 508.547 389.256 509.043 389.256ZM514.027 390V381.36H515.035V386.556L517.471 384.048H518.707L516.067 386.736L519.043 390H517.759L515.035 386.916V390H514.027Z"/><path fill="#CDD0D8" d="M42.856 338V330.428H40.348V329.6H46.372V330.428H43.864V338H42.856ZM49.1767 338.144C48.6167 338.144 48.1127 338.016 47.6647 337.76C47.2167 337.504 46.8607 337.144 46.5967 336.68C46.3407 336.208 46.2127 335.656 46.2127 335.024C46.2127 334.392 46.3447 333.844 46.6087 333.38C46.8727 332.908 47.2287 332.544 47.6767 332.288C48.1327 332.032 48.6407 331.904 49.2007 331.904C49.7607 331.904 50.2647 332.032 50.7127 332.288C51.1607 332.544 51.5127 332.908 51.7687 333.38C52.0327 333.844 52.1647 334.392 52.1647 335.024C52.1647 335.656 52.0327 336.208 51.7687 336.68C51.5047 337.144 51.1447 337.504 50.6887 337.76C50.2407 338.016 49.7367 338.144 49.1767 338.144ZM49.1767 337.28C49.5207 337.28 49.8407 337.196 50.1367 337.028C50.4327 336.86 50.6727 336.608 50.8567 336.272C51.0407 335.936 51.1327 335.52 51.1327 335.024C51.1327 334.528 51.0407 334.112 50.8567 333.776C50.6807 333.44 50.4447 333.188 50.1487 333.02C49.8527 332.852 49.5367 332.768 49.2007 332.768C48.8567 332.768 48.5367 332.852 48.2407 333.02C47.9447 333.188 47.7047 333.44 47.5207 333.776C47.3367 334.112 47.2447 334.528 47.2447 335.024C47.2447 335.52 47.3367 335.936 47.5207 336.272C47.7047 336.608 47.9407 336.86 48.2287 337.028C48.5247 337.196 48.8407 337.28 49.1767 337.28ZM55.6839 338C55.1399 338 54.7119 337.868 54.3999 337.604C54.0879 337.34 53.9319 336.864 53.9319 336.176V332.9H52.8999V332.048H53.9319L54.0639 330.62H54.9399V332.048H56.6919V332.9H54.9399V336.176C54.9399 336.552 55.0159 336.808 55.1679 336.944C55.3199 337.072 55.5879 337.136 55.9719 337.136H56.5959V338H55.6839ZM59.9525 338.144C59.4565 338.144 59.0445 338.06 58.7165 337.892C58.3885 337.724 58.1445 337.5 57.9845 337.22C57.8245 336.94 57.7445 336.636 57.7445 336.308C57.7445 335.7 57.9765 335.232 58.4405 334.904C58.9045 334.576 59.5365 334.412 60.3365 334.412H61.9445V334.34C61.9445 333.82 61.8085 333.428 61.5365 333.164C61.2645 332.892 60.9005 332.756 60.4445 332.756C60.0525 332.756 59.7125 332.856 59.4245 333.056C59.1445 333.248 58.9685 333.532 58.8965 333.908H57.8645C57.9045 333.476 58.0485 333.112 58.2965 332.816C58.5525 332.52 58.8685 332.296 59.2445 332.144C59.6205 331.984 60.0205 331.904 60.4445 331.904C61.2765 331.904 61.9005 332.128 62.3165 332.576C62.7405 333.016 62.9525 333.604 62.9525 334.34V338H62.0525L61.9925 336.932C61.8245 337.268 61.5765 337.556 61.2485 337.796C60.9285 338.028 60.4965 338.144 59.9525 338.144ZM60.1085 337.292C60.4925 337.292 60.8205 337.192 61.0925 336.992C61.3725 336.792 61.5845 336.532 61.7285 336.212C61.8725 335.892 61.9445 335.556 61.9445 335.204V335.192H60.4205C59.8285 335.192 59.4085 335.296 59.1605 335.504C58.9205 335.704 58.8005 335.956 58.8005 336.26C58.8005 336.572 58.9125 336.824 59.1365 337.016C59.3685 337.2 59.6925 337.292 60.1085 337.292ZM64.4647 338V329.36H65.4727V338H64.4647ZM70.3607 338V329.6H71.3687V338H70.3607ZM73.0897 338V332.048H74.0017L74.0617 333.116C74.2537 332.74 74.5297 332.444 74.8897 332.228C75.2497 332.012 75.6577 331.904 76.1137 331.904C76.8177 331.904 77.3777 332.12 77.7937 332.552C78.2177 332.976 78.4297 333.632 78.4297 334.52V338H77.4217V334.628C77.4217 333.388 76.9097 332.768 75.8857 332.768C75.3737 332.768 74.9457 332.956 74.6017 333.332C74.2657 333.7 74.0977 334.228 74.0977 334.916V338H73.0897ZM82.6929 338.144C82.1249 338.144 81.6129 338.016 81.1569 337.76C80.7089 337.496 80.3529 337.132 80.0889 336.668C79.8329 336.196 79.7049 335.648 79.7049 335.024C79.7049 334.4 79.8329 333.856 80.0889 333.392C80.3529 332.92 80.7089 332.556 81.1569 332.3C81.6129 332.036 82.1249 331.904 82.6929 331.904C83.3969 331.904 83.9889 332.088 84.4689 332.456C84.9569 332.824 85.2649 333.316 85.3929 333.932H84.3609C84.2809 333.564 84.0849 333.28 83.7729 333.08C83.4609 332.872 83.0969 332.768 82.6809 332.768C82.3449 332.768 82.0289 332.852 81.7329 333.02C81.4369 333.188 81.1969 333.44 81.0129 333.776C80.8289 334.112 80.7369 334.528 80.7369 335.024C80.7369 335.52 80.8289 335.936 81.0129 336.272C81.1969 336.608 81.4369 336.864 81.7329 337.04C82.0289 337.208 82.3449 337.292 82.6809 337.292C83.0969 337.292 83.4609 337.192 83.7729 336.992C84.0849 336.784 84.2809 336.492 84.3609 336.116H85.3929C85.2729 336.716 84.9689 337.204 84.4809 337.58C83.9929 337.956 83.3969 338.144 82.6929 338.144ZM89.5127 338.144C88.9527 338.144 88.4487 338.016 88.0007 337.76C87.5527 337.504 87.1967 337.144 86.9327 336.68C86.6767 336.208 86.5487 335.656 86.5487 335.024C86.5487 334.392 86.6807 333.844 86.9447 333.38C87.2087 332.908 87.5647 332.544 88.0127 332.288C88.4687 332.032 88.9767 331.904 89.5367 331.904C90.0967 331.904 90.6007 332.032 91.0487 332.288C91.4967 332.544 91.8487 332.908 92.1047 333.38C92.3687 333.844 92.5007 334.392 92.5007 335.024C92.5007 335.656 92.3687 336.208 92.1047 336.68C91.8407 337.144 91.4807 337.504 91.0247 337.76C90.5767 338.016 90.0727 338.144 89.5127 338.144ZM89.5127 337.28C89.8567 337.28 90.1767 337.196 90.4727 337.028C90.7687 336.86 91.0087 336.608 91.1927 336.272C91.3767 335.936 91.4687 335.52 91.4687 335.024C91.4687 334.528 91.3767 334.112 91.1927 333.776C91.0167 333.44 90.7807 333.188 90.4847 333.02C90.1887 332.852 89.8727 332.768 89.5367 332.768C89.1927 332.768 88.8727 332.852 88.5767 333.02C88.2807 333.188 88.0407 333.44 87.8567 333.776C87.6727 334.112 87.5807 334.528 87.5807 335.024C87.5807 335.52 87.6727 335.936 87.8567 336.272C88.0407 336.608 88.2767 336.86 88.5647 337.028C88.8607 337.196 89.1767 337.28 89.5127 337.28ZM93.9022 338V332.048H94.8142L94.8862 332.912C95.0782 332.592 95.3342 332.344 95.6542 332.168C95.9742 331.992 96.3342 331.904 96.7342 331.904C97.2062 331.904 97.6102 332 97.9462 332.192C98.2902 332.384 98.5542 332.676 98.7382 333.068C98.9462 332.708 99.2302 332.424 99.5902 332.216C99.9582 332.008 100.354 331.904 100.778 331.904C101.49 331.904 102.058 332.12 102.482 332.552C102.906 332.976 103.118 333.632 103.118 334.52V338H102.122V334.628C102.122 334.012 101.998 333.548 101.75 333.236C101.502 332.924 101.146 332.768 100.682 332.768C100.202 332.768 99.8022 332.956 99.4822 333.332C99.1702 333.7 99.0142 334.228 99.0142 334.916V338H98.0062V334.628C98.0062 334.012 97.8822 333.548 97.6342 333.236C97.3862 332.924 97.0302 332.768 96.5662 332.768C96.0942 332.768 95.6982 332.956 95.3782 333.332C95.0662 333.7 94.9102 334.228 94.9102 334.916V338H93.9022ZM107.313 338.144C106.745 338.144 106.241 338.016 105.801 337.76C105.361 337.496 105.013 337.132 104.757 336.668C104.509 336.204 104.385 335.656 104.385 335.024C104.385 334.4 104.509 333.856 104.757 333.392C105.005 332.92 105.349 332.556 105.789 332.3C106.237 332.036 106.753 331.904 107.337 331.904C107.913 331.904 108.409 332.036 108.825 332.3C109.249 332.556 109.573 332.896 109.797 333.32C110.021 333.744 110.133 334.2 110.133 334.688C110.133 334.776 110.129 334.864 110.121 334.952C110.121 335.04 110.121 335.14 110.121 335.252H105.381C105.405 335.708 105.509 336.088 105.693 336.392C105.885 336.688 106.121 336.912 106.401 337.064C106.689 337.216 106.993 337.292 107.313 337.292C107.729 337.292 108.077 337.196 108.357 337.004C108.637 336.812 108.841 336.552 108.969 336.224H109.965C109.805 336.776 109.497 337.236 109.041 337.604C108.593 337.964 108.017 338.144 107.313 338.144ZM107.313 332.756C106.833 332.756 106.405 332.904 106.029 333.2C105.661 333.488 105.449 333.912 105.393 334.472H109.137C109.113 333.936 108.929 333.516 108.585 333.212C108.241 332.908 107.817 332.756 107.313 332.756Z"/><path fill="#03133D" d="M46.336 367.088V365.24C44.784 365.064 43.52 364.52 42.544 363.608C41.568 362.696 41.064 361.472 41.032 359.936H44.272C44.304 360.576 44.496 361.136 44.848 361.616C45.216 362.096 45.712 362.424 46.336 362.6V357.536C46.192 357.488 46.04 357.44 45.88 357.392C45.736 357.344 45.584 357.296 45.424 357.248C44.128 356.8 43.136 356.224 42.448 355.52C41.776 354.816 41.44 353.88 41.44 352.712C41.424 351.336 41.872 350.232 42.784 349.4C43.696 348.552 44.88 348.064 46.336 347.936V345.992H47.944V347.96C49.384 348.104 50.544 348.608 51.424 349.472C52.32 350.32 52.792 351.416 52.84 352.76H49.552C49.536 352.296 49.384 351.872 49.096 351.488C48.824 351.088 48.44 350.808 47.944 350.648V355.112C48.072 355.16 48.2 355.208 48.328 355.256C48.456 355.288 48.584 355.328 48.712 355.376C49.544 355.664 50.304 356 50.992 356.384C51.68 356.768 52.232 357.28 52.648 357.92C53.064 358.544 53.272 359.352 53.272 360.344C53.272 361.176 53.064 361.952 52.648 362.672C52.248 363.392 51.648 363.992 50.848 364.472C50.064 364.936 49.096 365.2 47.944 365.264V367.088H46.336ZM44.656 352.496C44.656 353.008 44.808 353.424 45.112 353.744C45.416 354.048 45.824 354.312 46.336 354.536V350.552C45.84 350.648 45.432 350.864 45.112 351.2C44.808 351.536 44.656 351.968 44.656 352.496ZM50.008 360.56C50.008 359.92 49.816 359.416 49.432 359.048C49.048 358.68 48.552 358.368 47.944 358.112V362.672C48.584 362.576 49.088 362.344 49.456 361.976C49.824 361.608 50.008 361.136 50.008 360.56ZM57.0563 365V351.704L54.2963 352.352V350L58.3523 348.2H60.2483V365H57.0563ZM62.3777 365V362.768C63.4017 361.92 64.3937 361.08 65.3537 360.248C66.3297 359.416 67.1937 358.592 67.9457 357.776C68.7138 356.96 69.3218 356.168 69.7698 355.4C70.2337 354.616 70.4657 353.856 70.4657 353.12C70.4657 352.432 70.2737 351.824 69.8898 351.296C69.5217 350.768 68.9057 350.504 68.0417 350.504C67.1617 350.504 66.4977 350.792 66.0497 351.368C65.6017 351.944 65.3777 352.64 65.3777 353.456H62.4017C62.4337 352.224 62.7057 351.2 63.2177 350.384C63.7297 349.552 64.4097 348.936 65.2577 348.536C66.1057 348.12 67.0577 347.912 68.1137 347.912C69.8257 347.912 71.1537 348.384 72.0978 349.328C73.0578 350.256 73.5378 351.464 73.5378 352.952C73.5378 353.88 73.3218 354.784 72.8898 355.664C72.4738 356.544 71.9218 357.392 71.2337 358.208C70.5457 359.024 69.8017 359.792 69.0017 360.512C68.2017 361.216 67.4257 361.872 66.6737 362.48H73.9458V365H62.3777ZM74.4807 367.784L75.8487 361.808H78.8247L76.4967 367.784H74.4807ZM86.1074 365.288C85.0034 365.288 84.0034 365.096 83.1074 364.712C82.2114 364.312 81.4914 363.704 80.9474 362.888C80.4034 362.072 80.1154 361.048 80.0834 359.816H83.1074C83.1234 360.632 83.3874 361.32 83.8994 361.88C84.4274 362.424 85.1634 362.696 86.1074 362.696C87.0034 362.696 87.6914 362.448 88.1714 361.952C88.6514 361.456 88.8914 360.832 88.8914 360.08C88.8914 359.2 88.5714 358.536 87.9314 358.088C87.3074 357.624 86.4994 357.392 85.5074 357.392H84.2594V354.872H85.5314C86.3474 354.872 87.0274 354.68 87.5714 354.296C88.1154 353.912 88.3874 353.344 88.3874 352.592C88.3874 351.968 88.1794 351.472 87.7634 351.104C87.3634 350.72 86.8034 350.528 86.0834 350.528C85.2994 350.528 84.6834 350.76 84.2354 351.224C83.8034 351.688 83.5634 352.256 83.5154 352.928H80.5154C80.5794 351.376 81.1154 350.152 82.1234 349.256C83.1474 348.36 84.4674 347.912 86.0834 347.912C87.2354 347.912 88.2034 348.12 88.9874 348.536C89.7874 348.936 90.3874 349.472 90.7874 350.144C91.2034 350.816 91.4114 351.56 91.4114 352.376C91.4114 353.32 91.1474 354.12 90.6194 354.776C90.1074 355.416 89.4674 355.848 88.6994 356.072C89.6434 356.264 90.4114 356.728 91.0034 357.464C91.5954 358.184 91.8914 359.096 91.8914 360.2C91.8914 361.128 91.6674 361.976 91.2194 362.744C90.7714 363.512 90.1154 364.128 89.2514 364.592C88.4034 365.056 87.3554 365.288 86.1074 365.288ZM94.1163 365V353.096H96.8283L97.0923 354.704C97.4763 354.128 97.9803 353.672 98.6043 353.336C99.2443 352.984 99.9803 352.808 100.812 352.808C102.652 352.808 103.956 353.52 104.724 354.944C105.156 354.288 105.732 353.768 106.452 353.384C107.188 353 107.988 352.808 108.852 352.808C110.404 352.808 111.596 353.272 112.428 354.2C113.26 355.128 113.676 356.488 113.676 358.28V365H110.604V358.568C110.604 357.544 110.404 356.76 110.004 356.216C109.62 355.672 109.02 355.4 108.204 355.4C107.372 355.4 106.7 355.704 106.188 356.312C105.692 356.92 105.444 357.768 105.444 358.856V365H102.372V358.568C102.372 357.544 102.172 356.76 101.772 356.216C101.372 355.672 100.756 355.4 99.9243 355.4C99.1083 355.4 98.4443 355.704 97.9323 356.312C97.4363 356.92 97.1883 357.768 97.1883 358.856V365H94.1163Z"/><path fill="#CDD0D8" d="M45.0862 498.144C44.3262 498.144 43.7302 497.932 43.2982 497.508C42.8662 497.084 42.6502 496.496 42.6502 495.744H43.6702C43.6702 496.168 43.7742 496.524 43.9822 496.812C44.1902 497.1 44.5542 497.244 45.0742 497.244C45.5782 497.244 45.9262 497.104 46.1182 496.824C46.3182 496.544 46.4182 496.196 46.4182 495.78V489.6H47.4262V495.78C47.4262 496.524 47.2182 497.104 46.8022 497.52C46.3942 497.936 45.8222 498.144 45.0862 498.144ZM51.1225 498.144C50.6265 498.144 50.2145 498.06 49.8865 497.892C49.5585 497.724 49.3145 497.5 49.1545 497.22C48.9945 496.94 48.9145 496.636 48.9145 496.308C48.9145 495.7 49.1465 495.232 49.6105 494.904C50.0745 494.576 50.7065 494.412 51.5065 494.412H53.1145V494.34C53.1145 493.82 52.9785 493.428 52.7065 493.164C52.4345 492.892 52.0705 492.756 51.6145 492.756C51.2225 492.756 50.8825 492.856 50.5945 493.056C50.3145 493.248 50.1385 493.532 50.0665 493.908H49.0345C49.0745 493.476 49.2185 493.112 49.4665 492.816C49.7225 492.52 50.0385 492.296 50.4145 492.144C50.7905 491.984 51.1905 491.904 51.6145 491.904C52.4465 491.904 53.0705 492.128 53.4865 492.576C53.9105 493.016 54.1225 493.604 54.1225 494.34V498H53.2225L53.1625 496.932C52.9945 497.268 52.7465 497.556 52.4185 497.796C52.0985 498.028 51.6665 498.144 51.1225 498.144ZM51.2785 497.292C51.6625 497.292 51.9905 497.192 52.2625 496.992C52.5425 496.792 52.7545 496.532 52.8985 496.212C53.0425 495.892 53.1145 495.556 53.1145 495.204V495.192H51.5905C50.9985 495.192 50.5785 495.296 50.3305 495.504C50.0905 495.704 49.9705 495.956 49.9705 496.26C49.9705 496.572 50.0825 496.824 50.3065 497.016C50.5385 497.2 50.8625 497.292 51.2785 497.292ZM55.6346 498V492.048H56.5466L56.6066 493.116C56.7986 492.74 57.0746 492.444 57.4346 492.228C57.7946 492.012 58.2026 491.904 58.6586 491.904C59.3626 491.904 59.9226 492.12 60.3386 492.552C60.7626 492.976 60.9746 493.632 60.9746 494.52V498H59.9666V494.628C59.9666 493.388 59.4546 492.768 58.4306 492.768C57.9186 492.768 57.4906 492.956 57.1466 493.332C56.8106 493.7 56.6426 494.228 56.6426 494.916V498H55.6346Z"/><path fill="#CDD0D8" d="M79.1282 498V489.6H84.2402V490.428H80.1362V493.38H83.6282V494.196H80.1362V498H79.1282ZM87.8966 498.144C87.3286 498.144 86.8246 498.016 86.3846 497.76C85.9446 497.496 85.5966 497.132 85.3406 496.668C85.0926 496.204 84.9686 495.656 84.9686 495.024C84.9686 494.4 85.0926 493.856 85.3406 493.392C85.5886 492.92 85.9326 492.556 86.3726 492.3C86.8206 492.036 87.3366 491.904 87.9206 491.904C88.4966 491.904 88.9926 492.036 89.4086 492.3C89.8326 492.556 90.1566 492.896 90.3806 493.32C90.6046 493.744 90.7166 494.2 90.7166 494.688C90.7166 494.776 90.7126 494.864 90.7046 494.952C90.7046 495.04 90.7046 495.14 90.7046 495.252H85.9646C85.9886 495.708 86.0926 496.088 86.2766 496.392C86.4686 496.688 86.7046 496.912 86.9846 497.064C87.2726 497.216 87.5766 497.292 87.8966 497.292C88.3126 497.292 88.6606 497.196 88.9406 497.004C89.2206 496.812 89.4246 496.552 89.5526 496.224H90.5486C90.3886 496.776 90.0806 497.236 89.6246 497.604C89.1766 497.964 88.6006 498.144 87.8966 498.144ZM87.8966 492.756C87.4166 492.756 86.9886 492.904 86.6126 493.2C86.2446 493.488 86.0326 493.912 85.9766 494.472H89.7206C89.6966 493.936 89.5126 493.516 89.1686 493.212C88.8246 492.908 88.4006 492.756 87.8966 492.756ZM95.2326 498.144C94.7446 498.144 94.3086 498.044 93.9246 497.844C93.5486 497.644 93.2606 497.364 93.0606 497.004L92.9646 498H92.0526V489.36H93.0606V493.032C93.2526 492.744 93.5246 492.484 93.8766 492.252C94.2366 492.02 94.6926 491.904 95.2446 491.904C95.8366 491.904 96.3526 492.04 96.7926 492.312C97.2326 492.584 97.5726 492.956 97.8126 493.428C98.0606 493.9 98.1846 494.436 98.1846 495.036C98.1846 495.636 98.0606 496.172 97.8126 496.644C97.5726 497.108 97.2286 497.476 96.7806 497.748C96.3406 498.012 95.8246 498.144 95.2326 498.144ZM95.1246 497.268C95.5246 497.268 95.8766 497.176 96.1806 496.992C96.4846 496.8 96.7246 496.536 96.9006 496.2C97.0766 495.864 97.1646 495.472 97.1646 495.024C97.1646 494.576 97.0766 494.184 96.9006 493.848C96.7246 493.512 96.4846 493.252 96.1806 493.068C95.8766 492.876 95.5246 492.78 95.1246 492.78C94.7246 492.78 94.3726 492.876 94.0686 493.068C93.7646 493.252 93.5246 493.512 93.3486 493.848C93.1726 494.184 93.0846 494.576 93.0846 495.024C93.0846 495.472 93.1726 495.864 93.3486 496.2C93.5246 496.536 93.7646 496.8 94.0686 496.992C94.3726 497.176 94.7246 497.268 95.1246 497.268Z"/><path fill="#CDD0D8" d="M114.382 498V489.6H115.558L118.582 495.456L121.582 489.6H122.77V498H121.762V491.4L118.954 496.8H118.198L115.39 491.412V498H114.382ZM126.462 498.144C125.966 498.144 125.554 498.06 125.226 497.892C124.898 497.724 124.654 497.5 124.494 497.22C124.334 496.94 124.254 496.636 124.254 496.308C124.254 495.7 124.486 495.232 124.95 494.904C125.414 494.576 126.046 494.412 126.846 494.412H128.454V494.34C128.454 493.82 128.318 493.428 128.046 493.164C127.774 492.892 127.41 492.756 126.954 492.756C126.562 492.756 126.222 492.856 125.934 493.056C125.654 493.248 125.478 493.532 125.406 493.908H124.374C124.414 493.476 124.558 493.112 124.806 492.816C125.062 492.52 125.378 492.296 125.754 492.144C126.13 491.984 126.53 491.904 126.954 491.904C127.786 491.904 128.41 492.128 128.826 492.576C129.25 493.016 129.462 493.604 129.462 494.34V498H128.562L128.502 496.932C128.334 497.268 128.086 497.556 127.758 497.796C127.438 498.028 127.006 498.144 126.462 498.144ZM126.618 497.292C127.002 497.292 127.33 497.192 127.602 496.992C127.882 496.792 128.094 496.532 128.238 496.212C128.382 495.892 128.454 495.556 128.454 495.204V495.192H126.93C126.338 495.192 125.918 495.296 125.67 495.504C125.43 495.704 125.31 495.956 125.31 496.26C125.31 496.572 125.422 496.824 125.646 497.016C125.878 497.2 126.202 497.292 126.618 497.292ZM130.974 498V492.048H131.886L131.97 493.188C132.154 492.796 132.434 492.484 132.81 492.252C133.186 492.02 133.65 491.904 134.202 491.904V492.96H133.926C133.574 492.96 133.25 493.024 132.954 493.152C132.658 493.272 132.422 493.48 132.246 493.776C132.07 494.072 131.982 494.48 131.982 495V498H130.974Z"/><path fill="#CDD0D8" d="M150.428 498L153.524 489.6H154.592L157.676 498H156.608L155.84 495.84H152.264L151.484 498H150.428ZM152.564 495.024H155.54L154.052 490.872L152.564 495.024ZM158.865 500.64V492.048H159.777L159.873 493.032C160.065 492.744 160.337 492.484 160.689 492.252C161.049 492.02 161.505 491.904 162.057 491.904C162.649 491.904 163.165 492.04 163.605 492.312C164.045 492.584 164.385 492.956 164.625 493.428C164.873 493.9 164.997 494.436 164.997 495.036C164.997 495.636 164.873 496.172 164.625 496.644C164.385 497.108 164.041 497.476 163.593 497.748C163.153 498.012 162.637 498.144 162.045 498.144C161.557 498.144 161.121 498.044 160.737 497.844C160.361 497.644 160.073 497.364 159.873 497.004V500.64H158.865ZM161.937 497.268C162.337 497.268 162.689 497.176 162.993 496.992C163.297 496.8 163.537 496.536 163.713 496.2C163.889 495.864 163.977 495.472 163.977 495.024C163.977 494.576 163.889 494.184 163.713 493.848C163.537 493.512 163.297 493.252 162.993 493.068C162.689 492.876 162.337 492.78 161.937 492.78C161.537 492.78 161.185 492.876 160.881 493.068C160.577 493.252 160.337 493.512 160.161 493.848C159.985 494.184 159.897 494.576 159.897 495.024C159.897 495.472 159.985 495.864 160.161 496.2C160.337 496.536 160.577 496.8 160.881 496.992C161.185 497.176 161.537 497.268 161.937 497.268ZM166.4 498V492.048H167.312L167.396 493.188C167.58 492.796 167.86 492.484 168.236 492.252C168.612 492.02 169.076 491.904 169.628 491.904V492.96H169.352C169 492.96 168.676 493.024 168.38 493.152C168.084 493.272 167.848 493.48 167.672 493.776C167.496 494.072 167.408 494.48 167.408 495V498H166.4Z"/><path fill="#CDD0D8" d="M186.956 498V489.6H188.132L191.156 495.456L194.156 489.6H195.344V498H194.336V491.4L191.528 496.8H190.772L187.964 491.412V498H186.956ZM199.733 498.144C199.165 498.144 198.661 498.016 198.221 497.76C197.781 497.496 197.433 497.132 197.177 496.668C196.929 496.204 196.805 495.656 196.805 495.024C196.805 494.4 196.929 493.856 197.177 493.392C197.425 492.92 197.769 492.556 198.209 492.3C198.657 492.036 199.173 491.904 199.757 491.904C200.333 491.904 200.829 492.036 201.245 492.3C201.669 492.556 201.993 492.896 202.217 493.32C202.441 493.744 202.553 494.2 202.553 494.688C202.553 494.776 202.549 494.864 202.541 494.952C202.541 495.04 202.541 495.14 202.541 495.252H197.801C197.825 495.708 197.929 496.088 198.113 496.392C198.305 496.688 198.541 496.912 198.821 497.064C199.109 497.216 199.413 497.292 199.733 497.292C200.149 497.292 200.497 497.196 200.777 497.004C201.057 496.812 201.261 496.552 201.389 496.224H202.385C202.225 496.776 201.917 497.236 201.461 497.604C201.013 497.964 200.437 498.144 199.733 498.144ZM199.733 492.756C199.253 492.756 198.825 492.904 198.449 493.2C198.081 493.488 197.869 493.912 197.813 494.472H201.557C201.533 493.936 201.349 493.516 201.005 493.212C200.661 492.908 200.237 492.756 199.733 492.756ZM204.501 490.728C204.301 490.728 204.133 490.664 203.997 490.536C203.869 490.4 203.805 490.232 203.805 490.032C203.805 489.84 203.869 489.68 203.997 489.552C204.133 489.424 204.301 489.36 204.501 489.36C204.693 489.36 204.857 489.424 204.993 489.552C205.129 489.68 205.197 489.84 205.197 490.032C205.197 490.232 205.129 490.4 204.993 490.536C204.857 490.664 204.693 490.728 204.501 490.728ZM203.997 498V492.048H205.005V498H203.997Z"/><path fill="#CDD0D8" d="M224.899 498.144C224.139 498.144 223.543 497.932 223.111 497.508C222.679 497.084 222.463 496.496 222.463 495.744H223.483C223.483 496.168 223.587 496.524 223.795 496.812C224.003 497.1 224.367 497.244 224.887 497.244C225.391 497.244 225.739 497.104 225.931 496.824C226.131 496.544 226.231 496.196 226.231 495.78V489.6H227.239V495.78C227.239 496.524 227.031 497.104 226.615 497.52C226.207 497.936 225.635 498.144 224.899 498.144ZM231.127 498.144C230.423 498.144 229.863 497.932 229.447 497.508C229.031 497.076 228.823 496.416 228.823 495.528V492.048H229.831V495.42C229.831 496.66 230.339 497.28 231.355 497.28C231.875 497.28 232.303 497.096 232.639 496.728C232.983 496.352 233.155 495.82 233.155 495.132V492.048H234.163V498H233.251L233.179 496.932C232.995 497.308 232.719 497.604 232.351 497.82C231.991 498.036 231.583 498.144 231.127 498.144ZM235.822 498V492.048H236.734L236.794 493.116C236.986 492.74 237.262 492.444 237.622 492.228C237.982 492.012 238.39 491.904 238.846 491.904C239.55 491.904 240.11 492.12 240.526 492.552C240.95 492.976 241.162 493.632 241.162 494.52V498H240.154V494.628C240.154 493.388 239.642 492.768 238.618 492.768C238.106 492.768 237.678 492.956 237.334 493.332C236.998 493.7 236.83 494.228 236.83 494.916V498H235.822Z"/><path fill="#CDD0D8" d="M263.002 498.144C262.242 498.144 261.646 497.932 261.214 497.508C260.782 497.084 260.566 496.496 260.566 495.744H261.586C261.586 496.168 261.69 496.524 261.898 496.812C262.106 497.1 262.47 497.244 262.99 497.244C263.494 497.244 263.842 497.104 264.034 496.824C264.234 496.544 264.334 496.196 264.334 495.78V489.6H265.342V495.78C265.342 496.524 265.134 497.104 264.718 497.52C264.31 497.936 263.738 498.144 263.002 498.144ZM269.23 498.144C268.526 498.144 267.966 497.932 267.55 497.508C267.134 497.076 266.926 496.416 266.926 495.528V492.048H267.934V495.42C267.934 496.66 268.442 497.28 269.458 497.28C269.978 497.28 270.406 497.096 270.742 496.728C271.086 496.352 271.258 495.82 271.258 495.132V492.048H272.266V498H271.354L271.282 496.932C271.098 497.308 270.822 497.604 270.454 497.82C270.094 498.036 269.686 498.144 269.23 498.144ZM273.926 498V489.36H274.934V498H273.926Z"/><path fill="#CDD0D8" d="M293.696 498L296.792 489.6H297.86L300.944 498H299.876L299.108 495.84H295.532L294.752 498H293.696ZM295.832 495.024H298.808L297.32 490.872L295.832 495.024ZM304.176 498.144C303.472 498.144 302.912 497.932 302.496 497.508C302.08 497.076 301.872 496.416 301.872 495.528V492.048H302.88V495.42C302.88 496.66 303.388 497.28 304.404 497.28C304.924 497.28 305.352 497.096 305.688 496.728C306.032 496.352 306.204 495.82 306.204 495.132V492.048H307.212V498H306.3L306.228 496.932C306.044 497.308 305.768 497.604 305.4 497.82C305.04 498.036 304.632 498.144 304.176 498.144ZM311.223 496.128C310.887 496.128 310.579 496.084 310.299 495.996L309.699 496.56C309.787 496.624 309.895 496.68 310.023 496.728C310.159 496.768 310.351 496.808 310.599 496.848C310.847 496.88 311.195 496.916 311.643 496.956C312.443 497.012 313.015 497.196 313.359 497.508C313.703 497.82 313.875 498.228 313.875 498.732C313.875 499.076 313.779 499.404 313.587 499.716C313.403 500.028 313.115 500.284 312.723 500.484C312.339 500.684 311.843 500.784 311.235 500.784C310.699 500.784 310.223 500.712 309.807 500.568C309.391 500.432 309.067 500.22 308.835 499.932C308.603 499.652 308.487 499.296 308.487 498.864C308.487 498.64 308.547 498.396 308.667 498.132C308.787 497.876 309.011 497.632 309.339 497.4C309.163 497.328 309.011 497.252 308.883 497.172C308.763 497.084 308.651 496.988 308.547 496.884V496.608L309.567 495.6C309.095 495.2 308.859 494.672 308.859 494.016C308.859 493.624 308.951 493.268 309.135 492.948C309.319 492.628 309.587 492.376 309.939 492.192C310.291 492 310.719 491.904 311.223 491.904C311.567 491.904 311.879 491.952 312.159 492.048H314.355V492.804L313.239 492.852C313.471 493.188 313.587 493.576 313.587 494.016C313.587 494.408 313.491 494.764 313.299 495.084C313.115 495.404 312.847 495.66 312.495 495.852C312.151 496.036 311.727 496.128 311.223 496.128ZM311.223 495.3C311.647 495.3 311.983 495.192 312.231 494.976C312.487 494.752 312.615 494.432 312.615 494.016C312.615 493.608 312.487 493.296 312.231 493.08C311.983 492.856 311.647 492.744 311.223 492.744C310.791 492.744 310.447 492.856 310.191 493.08C309.943 493.296 309.819 493.608 309.819 494.016C309.819 494.432 309.943 494.752 310.191 494.976C310.447 495.192 310.791 495.3 311.223 495.3ZM309.471 498.768C309.471 499.168 309.639 499.464 309.975 499.656C310.311 499.856 310.731 499.956 311.235 499.956C311.731 499.956 312.127 499.848 312.423 499.632C312.727 499.416 312.879 499.128 312.879 498.768C312.879 498.512 312.775 498.288 312.567 498.096C312.359 497.912 311.975 497.804 311.415 497.772C310.975 497.74 310.595 497.7 310.275 497.652C309.947 497.828 309.731 498.016 309.627 498.216C309.523 498.424 309.471 498.608 309.471 498.768Z"/><path fill="#CDD0D8" d="M332.912 498.144C332.296 498.144 331.76 498.032 331.304 497.808C330.848 497.584 330.496 497.272 330.248 496.872C330 496.472 329.876 496.008 329.876 495.48H330.932C330.932 495.808 331.008 496.112 331.16 496.392C331.312 496.664 331.532 496.884 331.82 497.052C332.116 497.212 332.48 497.292 332.912 497.292C333.48 497.292 333.92 497.156 334.232 496.884C334.544 496.612 334.7 496.272 334.7 495.864C334.7 495.528 334.628 495.26 334.484 495.06C334.34 494.852 334.144 494.684 333.896 494.556C333.656 494.428 333.376 494.316 333.056 494.22C332.744 494.124 332.416 494.016 332.072 493.896C331.424 493.672 330.944 493.396 330.632 493.068C330.32 492.732 330.164 492.296 330.164 491.76C330.156 491.312 330.26 490.916 330.476 490.572C330.692 490.22 330.996 489.948 331.388 489.756C331.788 489.556 332.26 489.456 332.804 489.456C333.34 489.456 333.804 489.556 334.196 489.756C334.596 489.956 334.904 490.232 335.12 490.584C335.344 490.936 335.46 491.336 335.468 491.784H334.412C334.412 491.552 334.352 491.324 334.232 491.1C334.112 490.868 333.928 490.68 333.68 490.536C333.44 490.392 333.136 490.32 332.768 490.32C332.312 490.312 331.936 490.428 331.64 490.668C331.352 490.908 331.208 491.24 331.208 491.664C331.208 492.024 331.308 492.3 331.508 492.492C331.716 492.684 332.004 492.844 332.372 492.972C332.74 493.092 333.164 493.232 333.644 493.392C334.044 493.536 334.404 493.704 334.724 493.896C335.044 494.088 335.292 494.336 335.468 494.64C335.652 494.944 335.744 495.332 335.744 495.804C335.744 496.204 335.64 496.584 335.432 496.944C335.224 497.296 334.908 497.584 334.484 497.808C334.068 498.032 333.544 498.144 332.912 498.144ZM339.789 498.144C339.221 498.144 338.717 498.016 338.277 497.76C337.837 497.496 337.489 497.132 337.233 496.668C336.985 496.204 336.861 495.656 336.861 495.024C336.861 494.4 336.985 493.856 337.233 493.392C337.481 492.92 337.825 492.556 338.265 492.3C338.713 492.036 339.229 491.904 339.813 491.904C340.389 491.904 340.885 492.036 341.301 492.3C341.725 492.556 342.049 492.896 342.273 493.32C342.497 493.744 342.609 494.2 342.609 494.688C342.609 494.776 342.605 494.864 342.597 494.952C342.597 495.04 342.597 495.14 342.597 495.252H337.857C337.881 495.708 337.985 496.088 338.169 496.392C338.361 496.688 338.597 496.912 338.877 497.064C339.165 497.216 339.469 497.292 339.789 497.292C340.205 497.292 340.553 497.196 340.833 497.004C341.113 496.812 341.317 496.552 341.445 496.224H342.441C342.281 496.776 341.973 497.236 341.517 497.604C341.069 497.964 340.493 498.144 339.789 498.144ZM339.789 492.756C339.309 492.756 338.881 492.904 338.505 493.2C338.137 493.488 337.925 493.912 337.869 494.472H341.613C341.589 493.936 341.405 493.516 341.061 493.212C340.717 492.908 340.293 492.756 339.789 492.756ZM343.945 500.64V492.048H344.857L344.953 493.032C345.145 492.744 345.417 492.484 345.769 492.252C346.129 492.02 346.585 491.904 347.137 491.904C347.729 491.904 348.245 492.04 348.685 492.312C349.125 492.584 349.465 492.956 349.705 493.428C349.953 493.9 350.077 494.436 350.077 495.036C350.077 495.636 349.953 496.172 349.705 496.644C349.465 497.108 349.121 497.476 348.673 497.748C348.233 498.012 347.717 498.144 347.125 498.144C346.637 498.144 346.201 498.044 345.817 497.844C345.441 497.644 345.153 497.364 344.953 497.004V500.64H343.945ZM347.017 497.268C347.417 497.268 347.769 497.176 348.073 496.992C348.377 496.8 348.617 496.536 348.793 496.2C348.969 495.864 349.057 495.472 349.057 495.024C349.057 494.576 348.969 494.184 348.793 493.848C348.617 493.512 348.377 493.252 348.073 493.068C347.769 492.876 347.417 492.78 347.017 492.78C346.617 492.78 346.265 492.876 345.961 493.068C345.657 493.252 345.417 493.512 345.241 493.848C345.065 494.184 344.977 494.576 344.977 495.024C344.977 495.472 345.065 495.864 345.241 496.2C345.417 496.536 345.657 496.8 345.961 496.992C346.265 497.176 346.617 497.268 347.017 497.268Z"/><path fill="#CDD0D8" d="M370.839 498.144C370.015 498.144 369.291 497.964 368.667 497.604C368.051 497.236 367.567 496.724 367.215 496.068C366.871 495.412 366.699 494.656 366.699 493.8C366.699 492.944 366.871 492.192 367.215 491.544C367.567 490.888 368.051 490.376 368.667 490.008C369.291 489.64 370.015 489.456 370.839 489.456C371.671 489.456 372.395 489.64 373.011 490.008C373.635 490.376 374.119 490.888 374.463 491.544C374.807 492.192 374.979 492.944 374.979 493.8C374.979 494.656 374.807 495.412 374.463 496.068C374.119 496.724 373.635 497.236 373.011 497.604C372.395 497.964 371.671 498.144 370.839 498.144ZM370.839 497.256C371.455 497.256 371.995 497.12 372.459 496.848C372.931 496.568 373.295 496.172 373.551 495.66C373.815 495.14 373.947 494.52 373.947 493.8C373.947 493.08 373.815 492.464 373.551 491.952C373.295 491.44 372.931 491.048 372.459 490.776C371.995 490.496 371.455 490.356 370.839 490.356C370.223 490.356 369.679 490.496 369.207 490.776C368.743 491.048 368.379 491.44 368.115 491.952C367.859 492.464 367.731 493.08 367.731 493.8C367.731 494.52 367.859 495.14 368.115 495.66C368.379 496.172 368.743 496.568 369.207 496.848C369.679 497.12 370.223 497.256 370.839 497.256ZM379.109 498.144C378.541 498.144 378.029 498.016 377.573 497.76C377.125 497.496 376.769 497.132 376.505 496.668C376.249 496.196 376.121 495.648 376.121 495.024C376.121 494.4 376.249 493.856 376.505 493.392C376.769 492.92 377.125 492.556 377.573 492.3C378.029 492.036 378.541 491.904 379.109 491.904C379.813 491.904 380.405 492.088 380.885 492.456C381.373 492.824 381.681 493.316 381.809 493.932H380.777C380.697 493.564 380.501 493.28 380.189 493.08C379.877 492.872 379.513 492.768 379.097 492.768C378.761 492.768 378.445 492.852 378.149 493.02C377.853 493.188 377.613 493.44 377.429 493.776C377.245 494.112 377.153 494.528 377.153 495.024C377.153 495.52 377.245 495.936 377.429 496.272C377.613 496.608 377.853 496.864 378.149 497.04C378.445 497.208 378.761 497.292 379.097 497.292C379.513 497.292 379.877 497.192 380.189 496.992C380.501 496.784 380.697 496.492 380.777 496.116H381.809C381.689 496.716 381.385 497.204 380.897 497.58C380.409 497.956 379.813 498.144 379.109 498.144ZM385.405 498C384.861 498 384.433 497.868 384.121 497.604C383.809 497.34 383.653 496.864 383.653 496.176V492.9H382.621V492.048H383.653L383.785 490.62H384.661V492.048H386.413V492.9H384.661V496.176C384.661 496.552 384.737 496.808 384.889 496.944C385.041 497.072 385.309 497.136 385.693 497.136H386.317V498H385.405Z"/><path fill="#CDD0D8" d="M402.224 498V489.6H403.232L407.708 496.332V489.6H408.716V498H407.708L403.232 491.268V498H402.224ZM413.149 498.144C412.589 498.144 412.085 498.016 411.637 497.76C411.189 497.504 410.833 497.144 410.569 496.68C410.313 496.208 410.185 495.656 410.185 495.024C410.185 494.392 410.317 493.844 410.581 493.38C410.845 492.908 411.201 492.544 411.649 492.288C412.105 492.032 412.613 491.904 413.173 491.904C413.733 491.904 414.237 492.032 414.685 492.288C415.133 492.544 415.485 492.908 415.741 493.38C416.005 493.844 416.137 494.392 416.137 495.024C416.137 495.656 416.005 496.208 415.741 496.68C415.477 497.144 415.117 497.504 414.661 497.76C414.213 498.016 413.709 498.144 413.149 498.144ZM413.149 497.28C413.493 497.28 413.813 497.196 414.109 497.028C414.405 496.86 414.645 496.608 414.829 496.272C415.013 495.936 415.105 495.52 415.105 495.024C415.105 494.528 415.013 494.112 414.829 493.776C414.653 493.44 414.417 493.188 414.121 493.02C413.825 492.852 413.509 492.768 413.173 492.768C412.829 492.768 412.509 492.852 412.213 493.02C411.917 493.188 411.677 493.44 411.493 493.776C411.309 494.112 411.217 494.528 411.217 495.024C411.217 495.52 411.309 495.936 411.493 496.272C411.677 496.608 411.913 496.86 412.201 497.028C412.497 497.196 412.813 497.28 413.149 497.28ZM418.95 498L416.694 492.048H417.75L419.538 497.028L421.338 492.048H422.37L420.114 498H418.95Z"/><path fill="#CDD0D8" d="M437.372 498V489.6H439.952C441.432 489.6 442.52 489.976 443.216 490.728C443.92 491.48 444.272 492.512 444.272 493.824C444.272 495.112 443.92 496.132 443.216 496.884C442.52 497.628 441.432 498 439.952 498H437.372ZM438.38 497.16H439.928C440.744 497.16 441.392 497.028 441.872 496.764C442.36 496.492 442.708 496.108 442.916 495.612C443.124 495.108 443.228 494.512 443.228 493.824C443.228 493.12 443.124 492.516 442.916 492.012C442.708 491.508 442.36 491.12 441.872 490.848C441.392 490.576 440.744 490.44 439.928 490.44H438.38V497.16ZM448.344 498.144C447.776 498.144 447.272 498.016 446.832 497.76C446.392 497.496 446.044 497.132 445.788 496.668C445.54 496.204 445.416 495.656 445.416 495.024C445.416 494.4 445.54 493.856 445.788 493.392C446.036 492.92 446.38 492.556 446.82 492.3C447.268 492.036 447.784 491.904 448.368 491.904C448.944 491.904 449.44 492.036 449.856 492.3C450.28 492.556 450.604 492.896 450.828 493.32C451.052 493.744 451.164 494.2 451.164 494.688C451.164 494.776 451.16 494.864 451.152 494.952C451.152 495.04 451.152 495.14 451.152 495.252H446.412C446.436 495.708 446.54 496.088 446.724 496.392C446.916 496.688 447.152 496.912 447.432 497.064C447.72 497.216 448.024 497.292 448.344 497.292C448.76 497.292 449.108 497.196 449.388 497.004C449.668 496.812 449.872 496.552 450 496.224H450.996C450.836 496.776 450.528 497.236 450.072 497.604C449.624 497.964 449.048 498.144 448.344 498.144ZM448.344 492.756C447.864 492.756 447.436 492.904 447.06 493.2C446.692 493.488 446.48 493.912 446.424 494.472H450.168C450.144 493.936 449.96 493.516 449.616 493.212C449.272 492.908 448.848 492.756 448.344 492.756ZM455.236 498.144C454.668 498.144 454.156 498.016 453.7 497.76C453.252 497.496 452.896 497.132 452.632 496.668C452.376 496.196 452.248 495.648 452.248 495.024C452.248 494.4 452.376 493.856 452.632 493.392C452.896 492.92 453.252 492.556 453.7 492.3C454.156 492.036 454.668 491.904 455.236 491.904C455.94 491.904 456.532 492.088 457.012 492.456C457.5 492.824 457.808 493.316 457.936 493.932H456.904C456.824 493.564 456.628 493.28 456.316 493.08C456.004 492.872 455.64 492.768 455.224 492.768C454.888 492.768 454.572 492.852 454.276 493.02C453.98 493.188 453.74 493.44 453.556 493.776C453.372 494.112 453.28 494.528 453.28 495.024C453.28 495.52 453.372 495.936 453.556 496.272C453.74 496.608 453.98 496.864 454.276 497.04C454.572 497.208 454.888 497.292 455.224 497.292C455.64 497.292 456.004 497.192 456.316 496.992C456.628 496.784 456.824 496.492 456.904 496.116H457.936C457.816 496.716 457.512 497.204 457.024 497.58C456.536 497.956 455.94 498.144 455.236 498.144Z"/><path fill="#CDD0D8" d="M477.086 498.144C476.326 498.144 475.73 497.932 475.298 497.508C474.866 497.084 474.65 496.496 474.65 495.744H475.67C475.67 496.168 475.774 496.524 475.982 496.812C476.19 497.1 476.554 497.244 477.074 497.244C477.578 497.244 477.926 497.104 478.118 496.824C478.318 496.544 478.418 496.196 478.418 495.78V489.6H479.426V495.78C479.426 496.524 479.218 497.104 478.802 497.52C478.394 497.936 477.822 498.144 477.086 498.144ZM483.122 498.144C482.626 498.144 482.214 498.06 481.886 497.892C481.558 497.724 481.314 497.5 481.154 497.22C480.994 496.94 480.914 496.636 480.914 496.308C480.914 495.7 481.146 495.232 481.61 494.904C482.074 494.576 482.706 494.412 483.506 494.412H485.114V494.34C485.114 493.82 484.978 493.428 484.706 493.164C484.434 492.892 484.07 492.756 483.614 492.756C483.222 492.756 482.882 492.856 482.594 493.056C482.314 493.248 482.138 493.532 482.066 493.908H481.034C481.074 493.476 481.218 493.112 481.466 492.816C481.722 492.52 482.038 492.296 482.414 492.144C482.79 491.984 483.19 491.904 483.614 491.904C484.446 491.904 485.07 492.128 485.486 492.576C485.91 493.016 486.122 493.604 486.122 494.34V498H485.222L485.162 496.932C484.994 497.268 484.746 497.556 484.418 497.796C484.098 498.028 483.666 498.144 483.122 498.144ZM483.278 497.292C483.662 497.292 483.99 497.192 484.262 496.992C484.542 496.792 484.754 496.532 484.898 496.212C485.042 495.892 485.114 495.556 485.114 495.204V495.192H483.59C482.998 495.192 482.578 495.296 482.33 495.504C482.09 495.704 481.97 495.956 481.97 496.26C481.97 496.572 482.082 496.824 482.306 497.016C482.538 497.2 482.862 497.292 483.278 497.292ZM487.635 498V492.048H488.547L488.607 493.116C488.799 492.74 489.075 492.444 489.435 492.228C489.795 492.012 490.203 491.904 490.659 491.904C491.363 491.904 491.923 492.12 492.339 492.552C492.763 492.976 492.975 493.632 492.975 494.52V498H491.967V494.628C491.967 493.388 491.455 492.768 490.431 492.768C489.919 492.768 489.491 492.956 489.147 493.332C488.811 493.7 488.643 494.228 488.643 494.916V498H487.635Z"/><rect width="527" height="229" x="16.5" y="54.5" fill="#FAFAFA" stroke="#E3E3E3" rx="9.5"/><circle cx="7" cy="7" r="7" fill="#fff"/><circle cx="29" cy="7" r="7" fill="#fff"/><circle cx="51" cy="7" r="7" fill="#fff"/><defs><clipPath id="clip0_2989_55573"><rect width="16" height="16" fill="#fff" transform="translate(499.681 340.301)"/></clipPath></defs></svg>