<svg width="96" height="96" viewBox="0 0 96 96" fill="none" xmlns="http://www.w3.org/2000/svg">
<g filter="url(#filter0_b_2716_53350)">
<rect width="96" height="96" rx="48" fill="url(#paint0_linear_2716_53350)"/>
<path d="M40.4069 29.481C40.3012 29.1924 40.1095 28.9433 39.8575 28.7673C39.6056 28.5913 39.3057 28.4969 38.9984 28.4969C38.6911 28.4969 38.3912 28.5913 38.1393 28.7673C37.8874 28.9433 37.6956 29.1924 37.5899 29.481L27.0899 57.981C26.9619 58.3519 26.9843 58.7582 27.1523 59.1128C27.3203 59.4674 27.6206 59.742 27.9887 59.8778C28.3568 60.0136 28.7635 59.9997 29.1215 59.8392C29.4796 59.6786 29.7604 59.3842 29.9039 59.019L32.8589 51H39.6179C39.9149 49.953 40.3079 48.951 40.7969 48H33.9629L38.9969 34.338L42.8759 44.868C43.5844 44.031 44.3732 43.2653 45.2309 42.582L40.4069 29.481ZM55.4969 47.625C54.9996 47.625 54.5227 47.8226 54.1711 48.1742C53.8195 48.5258 53.6219 49.0027 53.6219 49.5C53.6219 49.9973 53.8195 50.4742 54.1711 50.8258C54.5227 51.1775 54.9996 51.375 55.4969 51.375C55.9942 51.375 56.4711 51.1775 56.8228 50.8258C57.1744 50.4742 57.3719 49.9973 57.3719 49.5C57.3719 49.0027 57.1744 48.5258 56.8228 48.1742C56.4711 47.8226 55.9942 47.625 55.4969 47.625ZM55.4969 63C55.8948 63 56.2763 62.842 56.5576 62.5607C56.8389 62.2794 56.9969 61.8978 56.9969 61.5V55.5C56.9969 55.1022 56.8389 54.7207 56.5576 54.4394C56.2763 54.158 55.8948 54 55.4969 54C55.0991 54 54.7176 54.158 54.4363 54.4394C54.155 54.7207 53.9969 55.1022 53.9969 55.5V61.5C53.9969 61.8978 54.155 62.2794 54.4363 62.5607C54.7176 62.842 55.0991 63 55.4969 63ZM55.4969 42C53.7241 42 51.9686 42.3492 50.3307 43.0276C48.6928 43.7061 47.2046 44.7005 45.951 45.9541C44.6974 47.2077 43.703 48.6959 43.0246 50.3338C42.3461 51.9717 41.9969 53.7272 41.9969 55.5C41.9969 57.2729 42.3461 59.0283 43.0246 60.6662C43.703 62.3041 44.6974 63.7924 45.951 65.046C47.2046 66.2995 48.6928 67.2939 50.3307 67.9724C51.9686 68.6508 53.7241 69 55.4969 69C59.0773 69 62.5111 67.5777 65.0429 65.046C67.5746 62.5142 68.9969 59.0804 68.9969 55.5C68.9969 51.9196 67.5746 48.4858 65.0429 45.9541C62.5111 43.4223 59.0773 42 55.4969 42ZM55.4969 66C52.7122 66 50.0414 64.8938 48.0723 62.9246C46.1032 60.9555 44.9969 58.2848 44.9969 55.5C44.9969 52.7152 46.1032 50.0445 48.0723 48.0754C50.0414 46.1063 52.7122 45 55.4969 45C58.2817 45 60.9524 46.1063 62.9215 48.0754C64.8907 50.0445 65.9969 52.7152 65.9969 55.5C65.9969 58.2848 64.8907 60.9555 62.9215 62.9246C60.9524 64.8938 58.2817 66 55.4969 66Z" fill="white"/>
<rect x="0.5" y="0.5" width="95" height="95" rx="47.5" stroke="url(#paint1_radial_2716_53350)"/>
</g>
<defs>
<filter id="filter0_b_2716_53350" x="-16" y="-16" width="128" height="128" filterUnits="userSpaceOnUse" color-interpolation-filters="sRGB">
<feFlood flood-opacity="0" result="BackgroundImageFix"/>
<feGaussianBlur in="BackgroundImage" stdDeviation="8"/>
<feComposite in2="SourceAlpha" operator="in" result="effect1_backgroundBlur_2716_53350"/>
<feBlend mode="normal" in="SourceGraphic" in2="effect1_backgroundBlur_2716_53350" result="shape"/>
</filter>
<linearGradient id="paint0_linear_2716_53350" x1="0" y1="0" x2="128.439" y2="54.0704" gradientUnits="userSpaceOnUse">
<stop stop-color="white" stop-opacity="0.35"/>
<stop offset="1" stop-color="white" stop-opacity="0.02"/>
</linearGradient>
<radialGradient id="paint1_radial_2716_53350" cx="0" cy="0" r="1" gradientUnits="userSpaceOnUse" gradientTransform="rotate(47.959) scale(157.045 264.745)">
<stop stop-color="white" stop-opacity="0.7"/>
<stop offset="1" stop-color="white" stop-opacity="0"/>
</radialGradient>
</defs>
</svg>
