<svg xmlns="http://www.w3.org/2000/svg" width="59" height="61" fill="none" viewBox="0 0 59 61"><g clip-path="url(#clip0_1_13764)"><path fill="#4285F4" d="M58.7614 30.831C58.7614 28.368 58.5616 26.5707 58.129 24.7068H30.0039V35.8236H46.5127C46.18 38.5862 44.3827 42.7468 40.3885 45.5425L40.3325 45.9147L49.2251 52.8037L49.8412 52.8652C55.4995 47.6395 58.7614 39.9508 58.7614 30.831Z"/><path fill="#34A853" d="M30.0047 60.1212C38.0926 60.1212 44.8825 57.4583 49.842 52.8653L40.3893 45.5426C37.8597 47.3067 34.4647 48.5382 30.0047 48.5382C22.0831 48.5382 15.3598 43.3127 12.9631 36.0901L12.6118 36.1199L3.36506 43.276L3.24414 43.6122C8.17015 53.3976 18.2886 60.1212 30.0047 60.1212Z"/><path fill="#FBBC05" d="M12.963 36.0901C12.3306 34.2262 11.9646 32.229 11.9646 30.1655C11.9646 28.1017 12.3306 26.1047 12.9297 24.2409L12.9129 23.8439L3.55036 16.5728L3.24403 16.7185C1.21379 20.7793 0.0488281 25.3393 0.0488281 30.1655C0.0488281 34.9917 1.21379 39.5514 3.24403 43.6122L12.963 36.0901Z"/><path fill="#EB4335" d="M30.0047 11.7925C35.6296 11.7925 39.4239 14.2223 41.5875 16.2527L50.0416 7.99821C44.8495 3.17202 38.0926 0.209717 30.0047 0.209717C18.2886 0.209717 8.17015 6.93307 3.24414 16.7185L12.9298 24.2409C15.3598 17.0182 22.0831 11.7925 30.0047 11.7925Z"/></g><defs><clipPath id="clip0_1_13764"><rect width="58.741" height="60.118" fill="#fff" transform="translate(0.0488281 0.209717)"/></clipPath></defs></svg>