<svg xmlns="http://www.w3.org/2000/svg" width="22" height="22" fill="none" viewBox="0 0 22 22"><path fill="#fff" fill-rule="evenodd" d="M4.58268 11.9166H15.4589L12.1287 15.9133C11.8042 16.3019 11.8573 16.8803 12.246 17.2039C12.6356 17.5284 13.2131 17.4753 13.5376 17.0866L18.1209 11.5866C18.1567 11.5435 18.1741 11.4931 18.2007 11.4454C18.2227 11.4069 18.2493 11.3739 18.2658 11.3318C18.307 11.2263 18.3318 11.1154 18.3318 11.0036C18.3318 11.0027 18.3327 11.0008 18.3327 10.9999C18.3327 10.999 18.3318 10.9972 18.3318 10.9963C18.3318 10.8844 18.307 10.7735 18.2658 10.6681C18.2493 10.6259 18.2227 10.5929 18.2007 10.5544C18.1741 10.5068 18.1567 10.4563 18.1209 10.4133L13.5376 4.91325C13.3552 4.696 13.0948 4.58325 12.8327 4.58325C12.6255 4.58325 12.4174 4.65292 12.246 4.79592C11.8573 5.1195 11.8042 5.69792 12.1287 6.08659L15.4589 10.0833H4.58268C4.07668 10.0833 3.66602 10.4939 3.66602 10.9999C3.66602 11.5059 4.07668 11.9166 4.58268 11.9166Z" clip-rule="evenodd"/><mask id="mask0_63_2601" style="mask-type:alpha" width="16" height="14" x="3" y="4" maskUnits="userSpaceOnUse"><path fill="#fff" fill-rule="evenodd" d="M4.58268 11.9166H15.4589L12.1287 15.9133C11.8042 16.3019 11.8573 16.8803 12.246 17.2039C12.6356 17.5284 13.2131 17.4753 13.5376 17.0866L18.1209 11.5866C18.1567 11.5435 18.1741 11.4931 18.2007 11.4454C18.2227 11.4069 18.2493 11.3739 18.2658 11.3318C18.307 11.2263 18.3318 11.1154 18.3318 11.0036C18.3318 11.0027 18.3327 11.0008 18.3327 10.9999C18.3327 10.999 18.3318 10.9972 18.3318 10.9963C18.3318 10.8844 18.307 10.7735 18.2658 10.6681C18.2493 10.6259 18.2227 10.5929 18.2007 10.5544C18.1741 10.5068 18.1567 10.4563 18.1209 10.4133L13.5376 4.91325C13.3552 4.696 13.0948 4.58325 12.8327 4.58325C12.6255 4.58325 12.4174 4.65292 12.246 4.79592C11.8573 5.1195 11.8042 5.69792 12.1287 6.08659L15.4589 10.0833H4.58268C4.07668 10.0833 3.66602 10.4939 3.66602 10.9999C3.66602 11.5059 4.07668 11.9166 4.58268 11.9166Z" clip-rule="evenodd"/></mask><g mask="url(#mask0_63_2601)"><rect width="22" height="22" fill="#fff"/></g></svg>