<svg width="97" height="96" viewBox="0 0 97 96" fill="none" xmlns="http://www.w3.org/2000/svg">
<g filter="url(#filter0_b_2716_53344)">
<rect x="0.5" width="96" height="96" rx="48" fill="url(#paint0_linear_2716_53344)"/>
<path d="M38.5 32C38.5 33.1046 39.3954 34 40.5 34C41.6046 34 42.5 33.1046 42.5 32C42.5 30.8954 41.6046 30 40.5 30C39.3954 30 38.5 30.8954 38.5 32Z" stroke="white" stroke-width="4"/>
<path d="M54.5 32C54.5 33.1046 55.3954 34 56.5 34C57.6046 34 58.5 33.1046 58.5 32C58.5 30.8954 57.6046 30 56.5 30C55.3954 30 54.5 30.8954 54.5 32Z" stroke="white" stroke-width="4"/>
<path d="M38.5 48C38.5 49.1046 39.3954 50 40.5 50C41.6046 50 42.5 49.1046 42.5 48C42.5 46.8954 41.6046 46 40.5 46C39.3954 46 38.5 46.8954 38.5 48Z" stroke="white" stroke-width="4"/>
<path d="M54.5 48C54.5 49.1046 55.3954 50 56.5 50C57.6046 50 58.5 49.1046 58.5 48C58.5 46.8954 57.6046 46 56.5 46C55.3954 46 54.5 46.8954 54.5 48Z" stroke="white" stroke-width="4"/>
<path d="M38.5 64C38.5 65.1046 39.3954 66 40.5 66C41.6046 66 42.5 65.1046 42.5 64C42.5 62.8954 41.6046 62 40.5 62C39.3954 62 38.5 62.8954 38.5 64Z" stroke="white" stroke-width="4"/>
<path d="M54.5 64C54.5 65.1046 55.3954 66 56.5 66C57.6046 66 58.5 65.1046 58.5 64C58.5 62.8954 57.6046 62 56.5 62C55.3954 62 54.5 62.8954 54.5 64Z" stroke="white" stroke-width="4"/>
<rect x="1" y="0.5" width="95" height="95" rx="47.5" stroke="url(#paint1_radial_2716_53344)"/>
</g>
<defs>
<filter id="filter0_b_2716_53344" x="-15.5" y="-16" width="128" height="128" filterUnits="userSpaceOnUse" color-interpolation-filters="sRGB">
<feFlood flood-opacity="0" result="BackgroundImageFix"/>
<feGaussianBlur in="BackgroundImage" stdDeviation="8"/>
<feComposite in2="SourceAlpha" operator="in" result="effect1_backgroundBlur_2716_53344"/>
<feBlend mode="normal" in="SourceGraphic" in2="effect1_backgroundBlur_2716_53344" result="shape"/>
</filter>
<linearGradient id="paint0_linear_2716_53344" x1="0.5" y1="0" x2="128.939" y2="54.0704" gradientUnits="userSpaceOnUse">
<stop stop-color="white" stop-opacity="0.35"/>
<stop offset="1" stop-color="white" stop-opacity="0.02"/>
</linearGradient>
<radialGradient id="paint1_radial_2716_53344" cx="0" cy="0" r="1" gradientUnits="userSpaceOnUse" gradientTransform="translate(0.5) rotate(47.959) scale(157.045 264.745)">
<stop stop-color="white" stop-opacity="0.7"/>
<stop offset="1" stop-color="white" stop-opacity="0"/>
</radialGradient>
</defs>
</svg>
