<svg xmlns="http://www.w3.org/2000/svg" width="48" height="48" fill="none" viewBox="0 0 48 48"><g clip-path="url(#clip0_1_13755)"><path fill="#F90" d="M41.2947 38.7789C22.272 47.8321 10.4664 40.2576 2.90915 35.657C2.44152 35.367 1.6467 35.7247 2.33631 36.5168C4.85399 39.5696 13.105 46.9276 23.8749 46.9276C34.6522 46.9276 41.0637 41.047 41.8658 40.0211C42.6624 39.004 42.0997 38.4429 41.2946 38.7789H41.2947ZM46.6372 35.8285C46.1264 35.1633 43.531 35.0393 41.8976 35.2399C40.2617 35.4348 37.8062 36.4346 38.0197 37.0349C38.1292 37.2598 38.3528 37.1589 39.4766 37.0579C40.6035 36.9454 43.7604 36.547 44.4182 37.4069C45.079 38.2728 43.4113 42.3974 43.1067 43.0627C42.8124 43.7279 43.2192 43.8994 43.7719 43.4564C44.3171 43.0135 45.3041 41.8665 45.9664 40.2435C46.6242 38.6115 47.0253 36.335 46.637 35.8285H46.6372Z"/><path fill="#000" fill-rule="evenodd" d="M28.5052 20.3059C28.5052 22.6813 28.5652 24.6623 27.3646 26.7719C26.3955 28.4871 24.8605 29.5419 23.1454 29.5419C20.8041 29.5419 19.4406 27.7581 19.4406 25.1255C19.4406 19.9285 24.0971 18.9853 28.5052 18.9853V20.3059ZM34.6539 35.1676C34.2508 35.5277 33.6677 35.5535 33.2132 35.3133C31.1894 33.6326 30.8291 32.8522 29.7143 31.2485C26.3698 34.6617 24.0029 35.6821 19.6637 35.6821C14.5354 35.6821 10.5391 32.5176 10.5391 26.1802C10.5391 21.2322 13.2234 17.8618 17.0393 16.2154C20.3497 14.7574 24.972 14.5002 28.5052 14.0972V13.3082C28.5052 11.8588 28.6166 10.1438 27.7677 8.89178C27.0215 7.76833 25.598 7.30522 24.3458 7.30522C22.0219 7.30522 19.9466 8.49717 19.4406 10.9669C19.3376 11.5159 18.9347 12.0562 18.3859 12.0819L12.4685 11.4474C11.9713 11.3357 11.4225 10.9328 11.5597 10.1694C12.9232 3.00032 19.3976 0.839111 25.1947 0.839111C28.1619 0.839111 32.0381 1.62815 34.3793 3.87504C37.3466 6.64489 37.0635 10.341 37.0635 14.363V23.8648C37.0635 26.7205 38.247 27.9725 39.3617 29.5162C39.7562 30.065 39.842 30.7255 39.3446 31.1369C38.1011 32.1745 35.8885 34.1042 34.6709 35.1848L34.6537 35.1676" clip-rule="evenodd"/><path fill="#F90" d="M41.2947 38.7789C22.272 47.8321 10.4664 40.2576 2.90915 35.657C2.44152 35.367 1.6467 35.7247 2.33631 36.5168C4.85399 39.5696 13.105 46.9276 23.8749 46.9276C34.6522 46.9276 41.0637 41.047 41.8658 40.0211C42.6624 39.004 42.0997 38.4429 41.2946 38.7789H41.2947ZM46.6372 35.8285C46.1264 35.1633 43.531 35.0393 41.8976 35.2399C40.2617 35.4348 37.8062 36.4346 38.0197 37.0349C38.1292 37.2598 38.3528 37.1589 39.4766 37.0579C40.6035 36.9454 43.7604 36.547 44.4182 37.4069C45.079 38.2728 43.4113 42.3974 43.1067 43.0627C42.8124 43.7279 43.2192 43.8994 43.7719 43.4564C44.3171 43.0135 45.3041 41.8665 45.9664 40.2435C46.6242 38.6115 47.0253 36.335 46.637 35.8285H46.6372Z"/><path fill="#000" fill-rule="evenodd" d="M28.5052 20.3059C28.5052 22.6813 28.5652 24.6623 27.3646 26.7719C26.3955 28.4871 24.8605 29.5419 23.1454 29.5419C20.8041 29.5419 19.4406 27.7581 19.4406 25.1255C19.4406 19.9285 24.0971 18.9853 28.5052 18.9853V20.3059ZM34.6539 35.1676C34.2508 35.5277 33.6677 35.5535 33.2132 35.3133C31.1894 33.6326 30.8291 32.8522 29.7143 31.2485C26.3698 34.6617 24.0029 35.6821 19.6637 35.6821C14.5354 35.6821 10.5391 32.5176 10.5391 26.1802C10.5391 21.2322 13.2234 17.8618 17.0393 16.2154C20.3497 14.7574 24.972 14.5002 28.5052 14.0972V13.3082C28.5052 11.8588 28.6166 10.1438 27.7677 8.89178C27.0215 7.76833 25.598 7.30522 24.3458 7.30522C22.0219 7.30522 19.9466 8.49717 19.4406 10.9669C19.3376 11.5159 18.9347 12.0562 18.3859 12.0819L12.4685 11.4474C11.9713 11.3357 11.4225 10.9328 11.5597 10.1694C12.9232 3.00032 19.3976 0.839111 25.1947 0.839111C28.1619 0.839111 32.0381 1.62815 34.3793 3.87504C37.3466 6.64489 37.0635 10.341 37.0635 14.363V23.8648C37.0635 26.7205 38.247 27.9725 39.3617 29.5162C39.7562 30.065 39.842 30.7255 39.3446 31.1369C38.1011 32.1745 35.8885 34.1042 34.6709 35.1848L34.6537 35.1676" clip-rule="evenodd"/></g><defs><clipPath id="clip0_1_13755"><rect width="46.993" height="46.993" fill="#fff" transform="translate(0.839844 0.839111)"/></clipPath></defs></svg>