<svg xmlns="http://www.w3.org/2000/svg" width="97" height="96" fill="none" viewBox="0 0 97 96"><g filter="url(#filter0_b_2716_53363)"><rect width="96" height="96" x=".5" fill="url(#paint0_linear_2716_53363)" rx="48"/><path fill="#fff" d="M45.5 56.9191C44.46 56.8037 43.437 56.5671 42.452 56.2141C42.482 55.5061 42.5 54.7681 42.5 54.0001V52.9891C43.43 53.4331 44.441 53.7421 45.5 53.8951V46.5001C45.5 45.3066 45.9741 44.162 46.818 43.3181C47.6619 42.4742 48.8065 42.0001 50 42.0001H57.395C57.1558 40.3377 56.5212 38.757 55.5447 37.3906C54.5682 36.0242 53.2782 34.912 51.7829 34.1473C50.2876 33.3826 48.6307 32.9878 46.9513 32.9959C45.2718 33.0041 43.6188 33.4149 42.131 34.1941C41.8937 33.2129 41.5029 32.2753 40.973 31.4161C42.9178 30.4453 45.0683 29.9586 47.2415 29.9971C49.4148 30.0357 51.5466 30.5984 53.4558 31.6375C55.3649 32.6766 56.9949 34.1614 58.2072 35.9655C59.4195 37.7696 60.1783 39.8398 60.419 42.0001H65C66.1935 42.0001 67.3381 42.4742 68.182 43.3181C69.0259 44.162 69.5 45.3066 69.5 46.5001V61.5001C69.5 62.6935 69.0259 63.8381 68.182 64.682C67.3381 65.526 66.1935 66.0001 65 66.0001H50C48.8065 66.0001 47.6619 65.526 46.818 64.682C45.9741 63.8381 45.5 62.6935 45.5 61.5001V56.9191ZM60.419 45.0001C60.0781 48.0438 58.7128 50.8814 56.5471 53.0471C54.3813 55.2129 51.5438 56.5782 48.5 56.9191V61.5001C48.5 61.8979 48.658 62.2794 48.9393 62.5607C49.2206 62.842 49.6022 63.0001 50 63.0001H65C65.3978 63.0001 65.7794 62.842 66.0607 62.5607C66.342 62.2794 66.5 61.8979 66.5 61.5001V46.5001C66.5 46.1022 66.342 45.7207 66.0607 45.4394C65.7794 45.1581 65.3978 45.0001 65 45.0001H60.419ZM57.395 45.0001H50C49.6022 45.0001 49.2206 45.1581 48.9393 45.4394C48.658 45.7207 48.5 46.1022 48.5 46.5001V53.8951C50.7439 53.5707 52.8227 52.5292 54.4259 50.926C56.0291 49.3228 57.0707 47.244 57.395 45.0001ZM38.885 46.6831C38.57 45.5251 38.06 44.3641 37.184 43.4731C38.6 42.1321 39.5 39.9961 39.5 37.5001C39.5 35.4091 39.077 33.9721 38.312 32.8231C37.9726 32.3289 37.5802 31.8732 37.142 31.4641C36.974 31.3019 36.804 31.1419 36.632 30.9841C36.449 30.8131 36.281 30.6571 36.062 30.4381C35.612 29.9881 35.561 29.6281 35.561 29.4391C35.5615 29.334 35.5787 29.2297 35.612 29.1301C35.7492 28.8334 35.7857 28.5001 35.7161 28.1808C35.6464 27.8615 35.4744 27.5737 35.2262 27.3612C34.978 27.1486 34.6671 27.0229 34.3409 27.0032C34.0147 26.9835 33.691 27.0709 33.419 27.2521L33.413 27.2551L33.404 27.2611L33.377 27.2791L33.287 27.3391C32.837 27.66 32.4034 28.0035 31.988 28.3681C31.238 29.0311 30.26 30.0121 29.567 31.1821C28.9621 32.152 28.4765 33.1916 28.121 34.2781C27.761 35.3551 27.5 36.5221 27.5 37.5001C27.5 39.9961 28.4 42.1291 29.816 43.4761C28.94 44.3641 28.43 45.5251 28.115 46.6861C27.5 48.9421 27.5 51.7321 27.5 53.8891V54.0001C27.5 60.1741 28.655 63.8401 29.963 66.0211C30.62 67.1131 31.304 67.8181 31.877 68.2621C32.1823 68.5002 32.5146 68.7016 32.867 68.8621C33.0708 68.9365 33.2837 68.9829 33.5 69.0001C33.752 69.0001 34.133 68.8621 34.133 68.8621C34.4854 68.7016 34.8177 68.5002 35.123 68.2621C35.693 67.8181 36.383 67.1131 37.037 66.0211C38.345 63.8431 39.5 60.1741 39.5 54.0001V53.8921C39.5 51.7321 39.5 48.9451 38.885 46.6831ZM31.961 45.5731C32.3 45.2311 32.753 45.0001 33.5 45.0001C34.25 45.0001 34.7 45.2341 35.039 45.5701C35.417 45.9511 35.744 46.5691 35.99 47.4721C36.488 49.3051 36.5 51.7111 36.5 54.0001C36.5 59.8261 35.405 62.9101 34.463 64.4791C34.103 65.0791 33.764 65.4661 33.5 65.7091C33.1228 65.3463 32.7986 64.9323 32.537 64.4791C31.595 62.9071 30.5 59.8261 30.5 54.0001C30.5 51.7111 30.512 49.3051 31.01 47.4721C31.256 46.5721 31.583 45.9511 31.961 45.5701V45.5731ZM33.5 42.0001C32.345 42.0001 30.5 40.7161 30.5 37.5001C30.5 36.9811 30.656 36.1591 30.968 35.2291C31.2523 34.3511 31.6443 33.5117 32.135 32.7301C32.396 32.2891 32.735 31.8601 33.101 31.4671C33.308 31.8331 33.581 32.2021 33.941 32.5621C34.16 32.7811 34.445 33.0451 34.688 33.2731L35.06 33.6211C35.375 33.9271 35.618 34.1941 35.813 34.4911C36.173 35.0281 36.5 35.8411 36.5 37.5001C36.5 40.7161 34.655 42.0001 33.5 42.0001Z"/><rect width="95" height="95" x="1" y=".5" stroke="url(#paint1_radial_2716_53363)" rx="47.5"/></g><defs><filter id="filter0_b_2716_53363" width="128" height="128" x="-15.5" y="-16" color-interpolation-filters="sRGB" filterUnits="userSpaceOnUse"><feFlood flood-opacity="0" result="BackgroundImageFix"/><feGaussianBlur in="BackgroundImage" stdDeviation="8"/><feComposite in2="SourceAlpha" operator="in" result="effect1_backgroundBlur_2716_53363"/><feBlend in="SourceGraphic" in2="effect1_backgroundBlur_2716_53363" mode="normal" result="shape"/></filter><linearGradient id="paint0_linear_2716_53363" x1=".5" x2="128.939" y1="0" y2="54.07" gradientUnits="userSpaceOnUse"><stop stop-color="#fff" stop-opacity=".35"/><stop offset="1" stop-color="#fff" stop-opacity=".02"/></linearGradient><radialGradient id="paint1_radial_2716_53363" cx="0" cy="0" r="1" gradientTransform="translate(0.5) rotate(47.959) scale(157.045 264.745)" gradientUnits="userSpaceOnUse"><stop stop-color="#fff" stop-opacity=".7"/><stop offset="1" stop-color="#fff" stop-opacity="0"/></radialGradient></defs></svg>