<svg width="64" height="64" viewBox="0 0 64 64" fill="none" xmlns="http://www.w3.org/2000/svg">
<rect width="64" height="64" rx="10" fill="url(#paint0_linear_2374_14017)"/>
<path d="M41.7665 23.7036L40.9351 24.2592L40.9351 24.2592L41.7665 23.7036ZM41.7665 37.6297L40.9351 37.0741L41.7665 37.6297ZM40.2951 39.1011L39.7395 38.2697L40.2951 39.1011ZM34.6654 39.9982L34.661 38.9982C34.1104 39.0006 33.6654 39.4476 33.6654 39.9982H34.6654ZM34.6654 40L35.5598 40.4472C35.6292 40.3083 35.6654 40.1552 35.6654 40H34.6654ZM32.8931 43.5445L33.7876 43.9917L32.8931 43.5445ZM31.1043 43.5445L31.9987 43.0972H31.9987L31.1043 43.5445ZM29.332 40H28.332C28.332 40.1552 28.3682 40.3083 28.4376 40.4472L29.332 40ZM29.332 39.9982H30.332C30.332 39.4476 29.887 39.0006 29.3364 38.9982L29.332 39.9982ZM23.7023 39.1011L23.1468 39.9326H23.1468L23.7023 39.1011ZM22.2309 37.6297L21.3994 38.1853L21.3994 38.1853L22.2309 37.6297ZM22.2309 23.7036L23.0623 24.2592V24.2592L22.2309 23.7036ZM23.7023 22.2321L24.2579 23.0636H24.2579L23.7023 22.2321ZM40.2951 22.2321L39.7395 23.0636L39.7395 23.0636L40.2951 22.2321ZM43.6654 30.6666C43.6654 28.8148 43.6666 27.3507 43.5479 26.1839C43.4275 25.0004 43.1755 24.0123 42.598 23.148L40.9351 24.2592C41.2564 24.7401 41.4538 25.3609 41.5581 26.3863C41.6642 27.4284 41.6654 28.7732 41.6654 30.6666H43.6654ZM42.598 38.1853C43.1755 37.321 43.4275 36.3329 43.5479 35.1494C43.6666 33.9826 43.6654 32.5184 43.6654 30.6666H41.6654C41.6654 32.5601 41.6642 33.9049 41.5581 34.947C41.4538 35.9724 41.2564 36.5932 40.9351 37.0741L42.598 38.1853ZM40.8506 39.9326C41.5422 39.4705 42.1359 38.8768 42.598 38.1853L40.9351 37.0741C40.6189 37.5473 40.2127 37.9535 39.7395 38.2697L40.8506 39.9326ZM34.6697 40.9982C36.1034 40.9919 37.2797 40.9648 38.2553 40.83C39.247 40.6929 40.0958 40.437 40.8506 39.9326L39.7395 38.2697C39.3193 38.5505 38.7916 38.7368 37.9815 38.8488C37.1552 38.963 36.1042 38.9919 34.661 38.9982L34.6697 40.9982ZM35.6654 40V39.9982H33.6654V40H35.6654ZM33.7876 43.9917L35.5598 40.4472L33.7709 39.5528L31.9987 43.0972L33.7876 43.9917ZM30.2098 43.9917C30.9469 45.4658 33.0505 45.4658 33.7876 43.9917L31.9987 43.0972L30.2098 43.9917ZM28.4376 40.4472L30.2098 43.9917L31.9987 43.0972L30.2265 39.5528L28.4376 40.4472ZM28.332 39.9982V40H30.332V39.9982H28.332ZM23.1468 39.9326C23.9016 40.437 24.7504 40.6929 25.7421 40.83C26.7177 40.9648 27.894 40.9919 29.3277 40.9982L29.3364 38.9982C27.8932 38.9919 26.8422 38.963 26.0159 38.8488C25.2058 38.7368 24.6781 38.5505 24.2579 38.2697L23.1468 39.9326ZM21.3994 38.1853C21.8615 38.8768 22.4552 39.4705 23.1468 39.9326L24.2579 38.2697C23.7847 37.9535 23.3785 37.5473 23.0623 37.0741L21.3994 38.1853ZM20.332 30.6666C20.332 32.5184 20.3308 33.9826 20.4495 35.1494C20.5699 36.3329 20.8219 37.321 21.3994 38.1853L23.0623 37.0741C22.741 36.5932 22.5436 35.9724 22.4393 34.947C22.3332 33.9049 22.332 32.5601 22.332 30.6666H20.332ZM21.3994 23.148C20.8219 24.0123 20.5699 25.0004 20.4495 26.1839C20.3308 27.3507 20.332 28.8148 20.332 30.6666H22.332C22.332 28.7732 22.3332 27.4284 22.4393 26.3863C22.5436 25.3609 22.741 24.7401 23.0623 24.2592L21.3994 23.148ZM23.1468 21.4007C22.4552 21.8627 21.8615 22.4565 21.3994 23.148L23.0623 24.2592C23.3785 23.786 23.7847 23.3798 24.2579 23.0636L23.1468 21.4007ZM30.6654 20.3333C28.8136 20.3333 27.3494 20.3321 26.1826 20.4508C24.9991 20.5712 24.011 20.8232 23.1468 21.4007L24.2579 23.0636C24.7388 22.7423 25.3596 22.5448 26.385 22.4405C27.4271 22.3345 28.7719 22.3333 30.6654 22.3333V20.3333ZM33.332 20.3333H30.6654V22.3333H33.332V20.3333ZM40.8506 21.4007C39.9863 20.8232 38.9983 20.5712 37.8148 20.4508C36.648 20.3321 35.1838 20.3333 33.332 20.3333V22.3333C35.2255 22.3333 36.5703 22.3345 37.6124 22.4405C38.6377 22.5448 39.2586 22.7423 39.7395 23.0636L40.8506 21.4007ZM42.598 23.148C42.1359 22.4565 41.5422 21.8627 40.8506 21.4007L39.7395 23.0636C40.2127 23.3798 40.6189 23.786 40.9351 24.2592L42.598 23.148Z" fill="white"/>
<ellipse cx="37.3333" cy="30.6666" rx="1.33333" ry="1.33333" fill="white" stroke="white" stroke-linecap="round"/>
<circle cx="32.0013" cy="30.6666" r="1.33333" fill="white" stroke="white" stroke-linecap="round"/>
<circle cx="26.6654" cy="30.6666" r="1.33333" fill="white" stroke="white" stroke-linecap="round"/>
<defs>
<linearGradient id="paint0_linear_2374_14017" x1="-0.415645" y1="71.8441" x2="70.9528" y2="16.8239" gradientUnits="userSpaceOnUse">
<stop stop-color="#0097FE"/>
<stop offset="1" stop-color="#14358A"/>
</linearGradient>
</defs>
</svg>
