<svg width="32" height="32" viewBox="0 0 32 32" fill="none" xmlns="http://www.w3.org/2000/svg">
<path fill-rule="evenodd" clip-rule="evenodd" d="M23.3262 18.6406C22.4382 21.4966 20.2249 23.4739 17.2796 23.9099C12.7849 24.5752 8.37156 21.1672 8.02222 16.6339C7.65956 11.9299 11.3702 8.00057 16.0009 8.00057C17.0716 8.00057 18.0929 8.21124 19.0262 8.59257C19.3502 8.72457 19.7169 8.61124 19.8822 8.30457L21.7956 4.77524C21.9769 4.4379 21.8462 4.00324 21.4969 3.8459C19.8209 3.08857 17.9622 2.66724 16.0049 2.66724C8.50889 2.66724 2.45689 8.84857 2.67156 16.3912C2.86756 23.2726 8.54755 29.0299 15.4236 29.3219C22.8182 29.6339 28.9516 23.9272 29.3236 16.6966C29.3382 16.4326 29.3329 14.8952 29.3276 13.9939C29.3262 13.6259 29.0276 13.3339 28.6609 13.3339H16.6622C16.2942 13.3339 15.9956 13.6312 15.9956 14.0006V17.9739C15.9956 18.3406 16.2942 18.6406 16.6622 18.6406H23.3262Z" fill="#03133D"/>
<mask id="mask0_1_6466" style="mask-type:alpha" maskUnits="userSpaceOnUse" x="2" y="2" width="28" height="28">
<path fill-rule="evenodd" clip-rule="evenodd" d="M23.3262 18.6406C22.4382 21.4966 20.2249 23.4739 17.2796 23.9099C12.7849 24.5752 8.37156 21.1672 8.02222 16.6339C7.65956 11.9299 11.3702 8.00057 16.0009 8.00057C17.0716 8.00057 18.0929 8.21124 19.0262 8.59257C19.3502 8.72457 19.7169 8.61124 19.8822 8.30457L21.7956 4.77524C21.9769 4.4379 21.8462 4.00324 21.4969 3.8459C19.8209 3.08857 17.9622 2.66724 16.0049 2.66724C8.50889 2.66724 2.45689 8.84857 2.67156 16.3912C2.86756 23.2726 8.54755 29.0299 15.4236 29.3219C22.8182 29.6339 28.9516 23.9272 29.3236 16.6966C29.3382 16.4326 29.3329 14.8952 29.3276 13.9939C29.3262 13.6259 29.0276 13.3339 28.6609 13.3339H16.6622C16.2942 13.3339 15.9956 13.6312 15.9956 14.0006V17.9739C15.9956 18.3406 16.2942 18.6406 16.6622 18.6406H23.3262Z" fill="white"/>
</mask>
<g mask="url(#mask0_1_6466)">
<rect width="32" height="32" fill="white"/>
</g>
</svg>
