<svg xmlns="http://www.w3.org/2000/svg" width="32" height="32" fill="none" viewBox="0 0 32 32"><path fill="#03133D" fill-rule="evenodd" d="M10.7692 26.667C20.4306 26.667 26.0199 19.1656 26.0199 12.047C26.0199 11.851 27.3932 10.6723 27.9812 8.21495C28.1012 7.71629 27.6159 7.32295 27.1586 7.53229C25.9852 8.07095 24.7946 7.64429 24.2772 7.03095C22.2879 4.86162 18.9612 4.75762 16.8452 6.79762C15.4812 8.11362 14.9026 10.0736 15.3252 11.9443C10.8572 12.263 7.78924 10.1456 5.26657 7.24295C4.94124 6.86562 4.33724 7.06429 4.26924 7.56295C3.89591 10.339 3.77858 17.0883 10.4666 20.9643C9.30524 22.6336 7.03191 23.619 4.50124 24.0416C3.94124 24.1363 3.80791 24.9123 4.31991 25.163C6.32524 26.1496 8.52924 26.6656 10.7692 26.663" clip-rule="evenodd"/><mask id="mask0_1_6464" style="mask-type:alpha" width="24" height="22" x="4" y="5" maskUnits="userSpaceOnUse"><path fill="#fff" fill-rule="evenodd" d="M10.7692 26.667C20.4306 26.667 26.0199 19.1656 26.0199 12.047C26.0199 11.851 27.3932 10.6723 27.9812 8.21495C28.1012 7.71629 27.6159 7.32295 27.1586 7.53229C25.9852 8.07095 24.7946 7.64429 24.2772 7.03095C22.2879 4.86162 18.9612 4.75762 16.8452 6.79762C15.4812 8.11362 14.9026 10.0736 15.3252 11.9443C10.8572 12.263 7.78924 10.1456 5.26657 7.24295C4.94124 6.86562 4.33724 7.06429 4.26924 7.56295C3.89591 10.339 3.77858 17.0883 10.4666 20.9643C9.30524 22.6336 7.03191 23.619 4.50124 24.0416C3.94124 24.1363 3.80791 24.9123 4.31991 25.163C6.32524 26.1496 8.52924 26.6656 10.7692 26.663" clip-rule="evenodd"/></mask><g mask="url(#mask0_1_6464)"><rect width="32" height="32" fill="#fff"/></g></svg>