<svg xmlns="http://www.w3.org/2000/svg" width="64" height="64" fill="none" viewBox="0 0 64 64"><rect width="64" height="64" fill="url(#paint0_linear_2374_6641)" rx="10"/><path stroke="#fff" stroke-linecap="round" stroke-width="2" d="M26.668 32L26.668 26.6667C26.668 23.7211 29.0558 21.3333 32.0013 21.3333V21.3333C34.9468 21.3333 37.3346 23.7211 37.3346 26.6667L37.3346 32"/><path stroke="#fff" stroke-width="2" d="M21.0277 31.6678C21.1728 29.9269 21.2453 29.0565 21.8194 28.5282C22.3935 28 23.2669 28 25.0139 28H38.9861C40.7331 28 41.6065 28 42.1806 28.5282C42.7547 29.0565 42.8272 29.9269 42.9723 31.6678L43.8195 41.8339C43.904 42.8474 43.9462 43.3542 43.6491 43.6771C43.352 44 42.8435 44 41.8264 44H22.1736C21.1565 44 20.648 44 20.3509 43.6771C20.0538 43.3542 20.096 42.8474 20.1805 41.8339L21.0277 31.6678Z"/><defs><linearGradient id="paint0_linear_2374_6641" x1="-.416" x2="70.953" y1="71.844" y2="16.824" gradientUnits="userSpaceOnUse"><stop stop-color="#0097FE"/><stop offset="1" stop-color="#14358A"/></linearGradient></defs></svg>