<svg xmlns="http://www.w3.org/2000/svg" width="20" height="21" fill="none" viewBox="0 0 20 21"><path stroke="#354263" stroke-linecap="round" stroke-width="1.5" d="M6.66699 7.16669L6.66699 6.33336C6.66699 4.49241 8.15938 3.00002 10.0003 3.00002V3.00002C11.8413 3.00002 13.3337 4.49241 13.3337 6.33336L13.3337 7.16669"/><path stroke="#354263" stroke-linecap="round" stroke-width="1.5" d="M12.5 12.1667V10.5"/><path stroke="#354263" stroke-linecap="round" stroke-width="1.5" d="M7.5 12.1667V10.5"/><path stroke="#354263" stroke-width="1.5" d="M3.33301 10.7778C3.33301 9.26728 3.33301 8.51202 3.72012 7.98407C3.84076 7.81954 3.98586 7.67444 4.15039 7.5538C4.67834 7.16669 5.4336 7.16669 6.94412 7.16669H13.0552C14.5657 7.16669 15.321 7.16669 15.849 7.5538C16.0135 7.67444 16.1586 7.81954 16.2792 7.98407C16.6663 8.51202 16.6663 9.26728 16.6663 10.7778V11.3334C16.6663 13.8257 16.6663 15.0718 16.1304 16C15.7794 16.6081 15.2744 17.113 14.6663 17.4641C13.7381 18 12.492 18 9.99967 18V18C7.50737 18 6.26121 18 5.33301 17.4641C4.72493 17.113 4.21998 16.6081 3.86891 16C3.33301 15.0718 3.33301 13.8257 3.33301 11.3334V10.7778Z"/></svg>