<svg width="48" height="48" viewBox="0 0 48 48" fill="none" xmlns="http://www.w3.org/2000/svg">
<rect width="48" height="48" rx="10" fill="url(#paint0_linear_2293_7097)"/>
<path fill-rule="evenodd" clip-rule="evenodd" d="M29.5614 33.0007C29.4034 33.0007 29.2444 32.9637 29.0984 32.8877L23.9994 30.2237L18.9014 32.8877C18.5634 33.0627 18.1554 33.0327 17.8494 32.8087C17.5414 32.5847 17.3884 32.2057 17.4534 31.8307L18.4244 26.2027L14.3044 22.2177C14.0304 21.9527 13.9314 21.5547 14.0484 21.1907C14.1654 20.8287 14.4784 20.5637 14.8564 20.5097L20.5564 19.6817L23.1044 14.5557C23.4424 13.8757 24.5574 13.8757 24.8954 14.5557L27.4434 19.6817L33.1434 20.5097C33.5214 20.5637 33.8344 20.8287 33.9514 21.1907C34.0684 21.5547 33.9694 21.9527 33.6954 22.2177L29.5754 26.2027L30.5464 31.8307C30.6114 32.2057 30.4574 32.5847 30.1504 32.8087C29.9764 32.9367 29.7694 33.0007 29.5614 33.0007" fill="#03133D"/>
<mask id="mask0_2293_7097" style="mask-type:alpha" maskUnits="userSpaceOnUse" x="14" y="14" width="20" height="20">
<path fill-rule="evenodd" clip-rule="evenodd" d="M29.5614 33.0007C29.4034 33.0007 29.2444 32.9637 29.0984 32.8877L23.9994 30.2237L18.9014 32.8877C18.5634 33.0627 18.1554 33.0327 17.8494 32.8087C17.5414 32.5847 17.3884 32.2057 17.4534 31.8307L18.4244 26.2027L14.3044 22.2177C14.0304 21.9527 13.9314 21.5547 14.0484 21.1907C14.1654 20.8287 14.4784 20.5637 14.8564 20.5097L20.5564 19.6817L23.1044 14.5557C23.4424 13.8757 24.5574 13.8757 24.8954 14.5557L27.4434 19.6817L33.1434 20.5097C33.5214 20.5637 33.8344 20.8287 33.9514 21.1907C34.0684 21.5547 33.9694 21.9527 33.6954 22.2177L29.5754 26.2027L30.5464 31.8307C30.6114 32.2057 30.4574 32.5847 30.1504 32.8087C29.9764 32.9367 29.7694 33.0007 29.5614 33.0007" fill="white"/>
</mask>
<g mask="url(#mask0_2293_7097)">
<rect x="12" y="12" width="24" height="24" fill="white"/>
</g>
<defs>
<linearGradient id="paint0_linear_2293_7097" x1="-0.311734" y1="53.8831" x2="53.2146" y2="12.6179" gradientUnits="userSpaceOnUse">
<stop stop-color="#0097FE"/>
<stop offset="1" stop-color="#14358A"/>
</linearGradient>
</defs>
</svg>
