<svg xmlns="http://www.w3.org/2000/svg" width="64" height="65" fill="none" viewBox="0 0 64 65"><rect width="64" height="64" y=".5" fill="url(#paint0_linear_402_8751)" rx="10"/><path fill="#03133D" fill-rule="evenodd" d="M41.3334 43.1667C40.5961 43.1667 40.0001 42.5707 40.0001 41.8334C40.0001 41.096 40.5961 40.5 41.3334 40.5C42.0707 40.5 42.6667 41.096 42.6667 41.8334C42.6667 42.5707 42.0707 43.1667 41.3334 43.1667ZM41.3334 37.8334C39.1281 37.8334 37.3334 39.628 37.3334 41.8334C37.3334 44.0387 39.1281 45.8334 41.3334 45.8334C43.5387 45.8334 45.3334 44.0387 45.3334 41.8334C45.3334 39.628 43.5387 37.8334 41.3334 37.8334ZM32.0001 43.1667C31.2627 43.1667 30.6667 42.5707 30.6667 41.8334C30.6667 41.096 31.2627 40.5 32.0001 40.5C32.7374 40.5 33.3334 41.096 33.3334 41.8334C33.3334 42.5707 32.7374 43.1667 32.0001 43.1667ZM32.0001 37.8334C29.7947 37.8334 28.0001 39.628 28.0001 41.8334C28.0001 44.0387 29.7947 45.8334 32.0001 45.8334C34.2054 45.8334 36.0001 44.0387 36.0001 41.8334C36.0001 39.628 34.2054 37.8334 32.0001 37.8334ZM22.6667 43.1667C21.9294 43.1667 21.3334 42.5707 21.3334 41.8334C21.3334 41.096 21.9294 40.5 22.6667 40.5C23.4041 40.5 24.0001 41.096 24.0001 41.8334C24.0001 42.5707 23.4041 43.1667 22.6667 43.1667ZM22.6667 37.8334C20.4614 37.8334 18.6667 39.628 18.6667 41.8334C18.6667 44.0387 20.4614 45.8334 22.6667 45.8334C24.8721 45.8334 26.6667 44.0387 26.6667 41.8334C26.6667 39.628 24.8721 37.8334 22.6667 37.8334ZM41.3334 33.8334C40.5961 33.8334 40.0001 33.2374 40.0001 32.5C40.0001 31.7627 40.5961 31.1667 41.3334 31.1667C42.0707 31.1667 42.6667 31.7627 42.6667 32.5C42.6667 33.2374 42.0707 33.8334 41.3334 33.8334ZM41.3334 28.5C39.1281 28.5 37.3334 30.2947 37.3334 32.5C37.3334 34.7054 39.1281 36.5 41.3334 36.5C43.5387 36.5 45.3334 34.7054 45.3334 32.5C45.3334 30.2947 43.5387 28.5 41.3334 28.5ZM32.0001 33.8334C31.2627 33.8334 30.6667 33.2374 30.6667 32.5C30.6667 31.7627 31.2627 31.1667 32.0001 31.1667C32.7374 31.1667 33.3334 31.7627 33.3334 32.5C33.3334 33.2374 32.7374 33.8334 32.0001 33.8334ZM32.0001 28.5C29.7947 28.5 28.0001 30.2947 28.0001 32.5C28.0001 34.7054 29.7947 36.5 32.0001 36.5C34.2054 36.5 36.0001 34.7054 36.0001 32.5C36.0001 30.2947 34.2054 28.5 32.0001 28.5ZM22.6667 33.8334C21.9294 33.8334 21.3334 33.2374 21.3334 32.5C21.3334 31.7627 21.9294 31.1667 22.6667 31.1667C23.4041 31.1667 24.0001 31.7627 24.0001 32.5C24.0001 33.2374 23.4041 33.8334 22.6667 33.8334ZM22.6667 28.5C20.4614 28.5 18.6667 30.2947 18.6667 32.5C18.6667 34.7054 20.4614 36.5 22.6667 36.5C24.8721 36.5 26.6667 34.7054 26.6667 32.5C26.6667 30.2947 24.8721 28.5 22.6667 28.5ZM41.3334 21.8334C42.0707 21.8334 42.6667 22.4294 42.6667 23.1667C42.6667 23.904 42.0707 24.5 41.3334 24.5C40.5961 24.5 40.0001 23.904 40.0001 23.1667C40.0001 22.4294 40.5961 21.8334 41.3334 21.8334ZM41.3334 27.1667C43.5387 27.1667 45.3334 25.372 45.3334 23.1667C45.3334 20.9614 43.5387 19.1667 41.3334 19.1667C39.1281 19.1667 37.3334 20.9614 37.3334 23.1667C37.3334 25.372 39.1281 27.1667 41.3334 27.1667ZM32.0001 24.5C31.2627 24.5 30.6667 23.9027 30.6667 23.1667C30.6667 22.4294 31.2627 21.8334 32.0001 21.8334C32.7374 21.8334 33.3334 22.4294 33.3334 23.1667C33.3334 23.9027 32.7374 24.5 32.0001 24.5ZM32.0001 19.1667C29.7947 19.1667 28.0001 20.9614 28.0001 23.1667C28.0001 25.372 29.7947 27.1667 32.0001 27.1667C34.2054 27.1667 36.0001 25.372 36.0001 23.1667C36.0001 20.9614 34.2054 19.1667 32.0001 19.1667ZM22.6667 24.5C21.9294 24.5 21.3334 23.904 21.3334 23.1667C21.3334 22.4294 21.9294 21.8334 22.6667 21.8334C23.4041 21.8334 24.0001 22.4294 24.0001 23.1667C24.0001 23.904 23.4041 24.5 22.6667 24.5ZM22.6667 19.1667C20.4614 19.1667 18.6667 20.9614 18.6667 23.1667C18.6667 25.372 20.4614 27.1667 22.6667 27.1667C24.8721 27.1667 26.6667 25.372 26.6667 23.1667C26.6667 20.9614 24.8721 19.1667 22.6667 19.1667Z" clip-rule="evenodd"/><mask id="mask0_402_8751" style="mask-type:alpha" width="28" height="27" x="18" y="19" maskUnits="userSpaceOnUse"><path fill="#fff" fill-rule="evenodd" d="M41.3334 43.1667C40.5961 43.1667 40.0001 42.5707 40.0001 41.8334C40.0001 41.096 40.5961 40.5 41.3334 40.5C42.0707 40.5 42.6667 41.096 42.6667 41.8334C42.6667 42.5707 42.0707 43.1667 41.3334 43.1667ZM41.3334 37.8334C39.1281 37.8334 37.3334 39.628 37.3334 41.8334C37.3334 44.0387 39.1281 45.8334 41.3334 45.8334C43.5387 45.8334 45.3334 44.0387 45.3334 41.8334C45.3334 39.628 43.5387 37.8334 41.3334 37.8334ZM32.0001 43.1667C31.2627 43.1667 30.6667 42.5707 30.6667 41.8334C30.6667 41.096 31.2627 40.5 32.0001 40.5C32.7374 40.5 33.3334 41.096 33.3334 41.8334C33.3334 42.5707 32.7374 43.1667 32.0001 43.1667ZM32.0001 37.8334C29.7947 37.8334 28.0001 39.628 28.0001 41.8334C28.0001 44.0387 29.7947 45.8334 32.0001 45.8334C34.2054 45.8334 36.0001 44.0387 36.0001 41.8334C36.0001 39.628 34.2054 37.8334 32.0001 37.8334ZM22.6667 43.1667C21.9294 43.1667 21.3334 42.5707 21.3334 41.8334C21.3334 41.096 21.9294 40.5 22.6667 40.5C23.4041 40.5 24.0001 41.096 24.0001 41.8334C24.0001 42.5707 23.4041 43.1667 22.6667 43.1667ZM22.6667 37.8334C20.4614 37.8334 18.6667 39.628 18.6667 41.8334C18.6667 44.0387 20.4614 45.8334 22.6667 45.8334C24.8721 45.8334 26.6667 44.0387 26.6667 41.8334C26.6667 39.628 24.8721 37.8334 22.6667 37.8334ZM41.3334 33.8334C40.5961 33.8334 40.0001 33.2374 40.0001 32.5C40.0001 31.7627 40.5961 31.1667 41.3334 31.1667C42.0707 31.1667 42.6667 31.7627 42.6667 32.5C42.6667 33.2374 42.0707 33.8334 41.3334 33.8334ZM41.3334 28.5C39.1281 28.5 37.3334 30.2947 37.3334 32.5C37.3334 34.7054 39.1281 36.5 41.3334 36.5C43.5387 36.5 45.3334 34.7054 45.3334 32.5C45.3334 30.2947 43.5387 28.5 41.3334 28.5ZM32.0001 33.8334C31.2627 33.8334 30.6667 33.2374 30.6667 32.5C30.6667 31.7627 31.2627 31.1667 32.0001 31.1667C32.7374 31.1667 33.3334 31.7627 33.3334 32.5C33.3334 33.2374 32.7374 33.8334 32.0001 33.8334ZM32.0001 28.5C29.7947 28.5 28.0001 30.2947 28.0001 32.5C28.0001 34.7054 29.7947 36.5 32.0001 36.5C34.2054 36.5 36.0001 34.7054 36.0001 32.5C36.0001 30.2947 34.2054 28.5 32.0001 28.5ZM22.6667 33.8334C21.9294 33.8334 21.3334 33.2374 21.3334 32.5C21.3334 31.7627 21.9294 31.1667 22.6667 31.1667C23.4041 31.1667 24.0001 31.7627 24.0001 32.5C24.0001 33.2374 23.4041 33.8334 22.6667 33.8334ZM22.6667 28.5C20.4614 28.5 18.6667 30.2947 18.6667 32.5C18.6667 34.7054 20.4614 36.5 22.6667 36.5C24.8721 36.5 26.6667 34.7054 26.6667 32.5C26.6667 30.2947 24.8721 28.5 22.6667 28.5ZM41.3334 21.8334C42.0707 21.8334 42.6667 22.4294 42.6667 23.1667C42.6667 23.904 42.0707 24.5 41.3334 24.5C40.5961 24.5 40.0001 23.904 40.0001 23.1667C40.0001 22.4294 40.5961 21.8334 41.3334 21.8334ZM41.3334 27.1667C43.5387 27.1667 45.3334 25.372 45.3334 23.1667C45.3334 20.9614 43.5387 19.1667 41.3334 19.1667C39.1281 19.1667 37.3334 20.9614 37.3334 23.1667C37.3334 25.372 39.1281 27.1667 41.3334 27.1667ZM32.0001 24.5C31.2627 24.5 30.6667 23.9027 30.6667 23.1667C30.6667 22.4294 31.2627 21.8334 32.0001 21.8334C32.7374 21.8334 33.3334 22.4294 33.3334 23.1667C33.3334 23.9027 32.7374 24.5 32.0001 24.5ZM32.0001 19.1667C29.7947 19.1667 28.0001 20.9614 28.0001 23.1667C28.0001 25.372 29.7947 27.1667 32.0001 27.1667C34.2054 27.1667 36.0001 25.372 36.0001 23.1667C36.0001 20.9614 34.2054 19.1667 32.0001 19.1667ZM22.6667 24.5C21.9294 24.5 21.3334 23.904 21.3334 23.1667C21.3334 22.4294 21.9294 21.8334 22.6667 21.8334C23.4041 21.8334 24.0001 22.4294 24.0001 23.1667C24.0001 23.904 23.4041 24.5 22.6667 24.5ZM22.6667 19.1667C20.4614 19.1667 18.6667 20.9614 18.6667 23.1667C18.6667 25.372 20.4614 27.1667 22.6667 27.1667C24.8721 27.1667 26.6667 25.372 26.6667 23.1667C26.6667 20.9614 24.8721 19.1667 22.6667 19.1667Z" clip-rule="evenodd"/></mask><g mask="url(#mask0_402_8751)"><rect width="32" height="32" x="16" y="16.5" fill="#fff"/></g><defs><linearGradient id="paint0_linear_402_8751" x1="-.416" x2="70.953" y1="72.344" y2="17.324" gradientUnits="userSpaceOnUse"><stop stop-color="#0097FE"/><stop offset="1" stop-color="#14358A"/></linearGradient></defs></svg>