<svg xmlns="http://www.w3.org/2000/svg" width="48" height="48" fill="none" viewBox="0 0 48 48"><rect width="48" height="48" fill="url(#paint0_linear_2293_7134)" rx="10"/><path fill="#231F20" fill-rule="evenodd" d="M23.1109 35.0001C22.9969 35.0001 22.8819 34.9801 22.7689 34.9391C22.3369 34.7821 22.0669 34.3501 22.1169 33.8931L22.8849 26.8001H16.9999C16.6309 26.8001 16.2919 26.5971 16.1179 26.2711C15.9439 25.9451 15.9639 25.5511 16.1689 25.2441L24.0569 13.4441C24.3129 13.0611 24.7969 12.9021 25.2299 13.0611C25.6629 13.2181 25.9319 13.6501 25.8819 14.1071L25.1139 21.2001H30.9999C31.3689 21.2001 31.7079 21.4031 31.8819 21.7291C32.0549 22.0551 32.0359 22.4491 31.8309 22.7561L23.9419 34.5561C23.7529 34.8401 23.4369 35.0001 23.1109 35.0001Z" clip-rule="evenodd"/><mask id="mask0_2293_7134" style="mask-type:alpha" width="16" height="23" x="16" y="12" maskUnits="userSpaceOnUse"><path fill="#fff" fill-rule="evenodd" d="M23.1109 35.0001C22.9969 35.0001 22.8819 34.9801 22.7689 34.9391C22.3369 34.7821 22.0669 34.3501 22.1169 33.8931L22.8849 26.8001H16.9999C16.6309 26.8001 16.2919 26.5971 16.1179 26.2711C15.9439 25.9451 15.9639 25.5511 16.1689 25.2441L24.0569 13.4441C24.3129 13.0611 24.7969 12.9021 25.2299 13.0611C25.6629 13.2181 25.9319 13.6501 25.8819 14.1071L25.1139 21.2001H30.9999C31.3689 21.2001 31.7079 21.4031 31.8819 21.7291C32.0549 22.0551 32.0359 22.4491 31.8309 22.7561L23.9419 34.5561C23.7529 34.8401 23.4369 35.0001 23.1109 35.0001Z" clip-rule="evenodd"/></mask><g mask="url(#mask0_2293_7134)"><rect width="24" height="24" x="12" y="12" fill="#fff"/></g><defs><linearGradient id="paint0_linear_2293_7134" x1="-.312" x2="53.215" y1="53.883" y2="12.618" gradientUnits="userSpaceOnUse"><stop stop-color="#0097FE"/><stop offset="1" stop-color="#14358A"/></linearGradient></defs></svg>