<svg xmlns="http://www.w3.org/2000/svg" width="97" height="96" fill="none" viewBox="0 0 97 96"><g filter="url(#filter0_b_2716_53344)"><rect width="96" height="96" x=".5" fill="url(#paint0_linear_2716_53344)" rx="48"/><path stroke="#fff" stroke-width="4" d="M38.5 32C38.5 33.1046 39.3954 34 40.5 34C41.6046 34 42.5 33.1046 42.5 32C42.5 30.8954 41.6046 30 40.5 30C39.3954 30 38.5 30.8954 38.5 32Z"/><path stroke="#fff" stroke-width="4" d="M54.5 32C54.5 33.1046 55.3954 34 56.5 34C57.6046 34 58.5 33.1046 58.5 32C58.5 30.8954 57.6046 30 56.5 30C55.3954 30 54.5 30.8954 54.5 32Z"/><path stroke="#fff" stroke-width="4" d="M38.5 48C38.5 49.1046 39.3954 50 40.5 50C41.6046 50 42.5 49.1046 42.5 48C42.5 46.8954 41.6046 46 40.5 46C39.3954 46 38.5 46.8954 38.5 48Z"/><path stroke="#fff" stroke-width="4" d="M54.5 48C54.5 49.1046 55.3954 50 56.5 50C57.6046 50 58.5 49.1046 58.5 48C58.5 46.8954 57.6046 46 56.5 46C55.3954 46 54.5 46.8954 54.5 48Z"/><path stroke="#fff" stroke-width="4" d="M38.5 64C38.5 65.1046 39.3954 66 40.5 66C41.6046 66 42.5 65.1046 42.5 64C42.5 62.8954 41.6046 62 40.5 62C39.3954 62 38.5 62.8954 38.5 64Z"/><path stroke="#fff" stroke-width="4" d="M54.5 64C54.5 65.1046 55.3954 66 56.5 66C57.6046 66 58.5 65.1046 58.5 64C58.5 62.8954 57.6046 62 56.5 62C55.3954 62 54.5 62.8954 54.5 64Z"/><rect width="95" height="95" x="1" y=".5" stroke="url(#paint1_radial_2716_53344)" rx="47.5"/></g><defs><filter id="filter0_b_2716_53344" width="128" height="128" x="-15.5" y="-16" color-interpolation-filters="sRGB" filterUnits="userSpaceOnUse"><feFlood flood-opacity="0" result="BackgroundImageFix"/><feGaussianBlur in="BackgroundImage" stdDeviation="8"/><feComposite in2="SourceAlpha" operator="in" result="effect1_backgroundBlur_2716_53344"/><feBlend in="SourceGraphic" in2="effect1_backgroundBlur_2716_53344" mode="normal" result="shape"/></filter><linearGradient id="paint0_linear_2716_53344" x1=".5" x2="128.939" y1="0" y2="54.07" gradientUnits="userSpaceOnUse"><stop stop-color="#fff" stop-opacity=".35"/><stop offset="1" stop-color="#fff" stop-opacity=".02"/></linearGradient><radialGradient id="paint1_radial_2716_53344" cx="0" cy="0" r="1" gradientTransform="translate(0.5) rotate(47.959) scale(157.045 264.745)" gradientUnits="userSpaceOnUse"><stop stop-color="#fff" stop-opacity=".7"/><stop offset="1" stop-color="#fff" stop-opacity="0"/></radialGradient></defs></svg>