<svg xmlns="http://www.w3.org/2000/svg" width="64" height="64" fill="none" viewBox="0 0 64 64"><rect width="64" height="64" fill="url(#paint0_linear_2293_3359)" rx="10"/><path fill="#03133D" fill-rule="evenodd" d="M39.9997 35.4478C39.4717 35.6838 38.433 35.9998 36.6663 35.9998C35.1677 35.9998 33.865 35.4891 32.4863 34.9491C30.937 34.3424 29.3343 33.7144 27.333 33.7144C25.9237 33.7144 24.8317 33.8838 23.9997 34.1118V31.9998V23.2211C24.5277 22.9851 25.569 22.6664 27.333 22.6664C28.8317 22.6664 30.1343 23.1771 31.513 23.7171C33.0623 24.3238 34.665 24.9518 36.6663 24.9518C37.917 24.9518 39.0343 24.8171 39.9997 24.5518V35.4478ZM41.6903 22.2398C41.0743 21.7944 40.277 21.6678 39.5583 21.9024C38.7903 22.1518 37.7903 22.2851 36.6663 22.2851C35.1677 22.2851 33.865 21.7744 32.4863 21.2344C30.937 20.6278 29.3343 19.9998 27.333 19.9998C23.4837 19.9998 21.993 21.2691 21.733 21.5251C21.477 21.7744 21.333 22.1184 21.333 22.4758V31.9998V36.1904V42.6664C21.333 43.4038 21.929 43.9998 22.6663 43.9998C23.4037 43.9998 23.9997 43.4038 23.9997 42.6664V36.9358C24.5263 36.7011 25.5637 36.3811 27.333 36.3811C28.8317 36.3811 30.1343 36.8918 31.513 37.4318C33.0623 38.0384 34.665 38.6664 36.6663 38.6664C39.0783 38.6664 40.5637 38.1624 41.3877 37.7398C42.177 37.3304 42.6663 36.5358 42.6663 35.6651V24.1411C42.6663 23.3944 42.3023 22.6838 41.6903 22.2398Z" clip-rule="evenodd"/><mask id="mask0_2293_3359" style="mask-type:alpha" width="22" height="25" x="21" y="19" maskUnits="userSpaceOnUse"><path fill="#fff" fill-rule="evenodd" d="M39.9997 35.4478C39.4717 35.6838 38.433 35.9998 36.6663 35.9998C35.1677 35.9998 33.865 35.4891 32.4863 34.9491C30.937 34.3424 29.3343 33.7144 27.333 33.7144C25.9237 33.7144 24.8317 33.8838 23.9997 34.1118V31.9998V23.2211C24.5277 22.9851 25.569 22.6664 27.333 22.6664C28.8317 22.6664 30.1343 23.1771 31.513 23.7171C33.0623 24.3238 34.665 24.9518 36.6663 24.9518C37.917 24.9518 39.0343 24.8171 39.9997 24.5518V35.4478ZM41.6903 22.2398C41.0743 21.7944 40.277 21.6678 39.5583 21.9024C38.7903 22.1518 37.7903 22.2851 36.6663 22.2851C35.1677 22.2851 33.865 21.7744 32.4863 21.2344C30.937 20.6278 29.3343 19.9998 27.333 19.9998C23.4837 19.9998 21.993 21.2691 21.733 21.5251C21.477 21.7744 21.333 22.1184 21.333 22.4758V31.9998V36.1904V42.6664C21.333 43.4038 21.929 43.9998 22.6663 43.9998C23.4037 43.9998 23.9997 43.4038 23.9997 42.6664V36.9358C24.5263 36.7011 25.5637 36.3811 27.333 36.3811C28.8317 36.3811 30.1343 36.8918 31.513 37.4318C33.0623 38.0384 34.665 38.6664 36.6663 38.6664C39.0783 38.6664 40.5637 38.1624 41.3877 37.7398C42.177 37.3304 42.6663 36.5358 42.6663 35.6651V24.1411C42.6663 23.3944 42.3023 22.6838 41.6903 22.2398Z" clip-rule="evenodd"/></mask><g mask="url(#mask0_2293_3359)"><rect width="32" height="32" x="16" y="16" fill="#fff"/></g><defs><linearGradient id="paint0_linear_2293_3359" x1="-.416" x2="70.953" y1="71.844" y2="16.824" gradientUnits="userSpaceOnUse"><stop stop-color="#0097FE"/><stop offset="1" stop-color="#14358A"/></linearGradient></defs></svg>