<svg width="24" height="24" viewBox="0 0 24 24" fill="none" xmlns="http://www.w3.org/2000/svg">
<path fill-rule="evenodd" clip-rule="evenodd" d="M5.00017 9.99949C5.00017 9.77349 5.07617 9.54649 5.23217 9.35949C5.58517 8.93549 6.21617 8.87849 6.64017 9.23149L12.0112 13.7075L17.3732 9.3925C17.8032 9.0465 18.4332 9.1145 18.7792 9.5445C19.1252 9.9755 19.0572 10.6045 18.6272 10.9515L12.6272 15.7795C12.2562 16.0775 11.7262 16.0735 11.3602 15.7685L5.36017 10.7685C5.12317 10.5705 5.00017 10.2865 5.00017 9.99949Z" fill="#03133D"/>
<mask id="mask0_1_12017" style="mask-type:alpha" maskUnits="userSpaceOnUse" x="5" y="9" width="14" height="8">
<path fill-rule="evenodd" clip-rule="evenodd" d="M5.00017 9.99949C5.00017 9.77349 5.07617 9.54649 5.23217 9.35949C5.58517 8.93549 6.21617 8.87849 6.64017 9.23149L12.0112 13.7075L17.3732 9.3925C17.8032 9.0465 18.4332 9.1145 18.7792 9.5445C19.1252 9.9755 19.0572 10.6045 18.6272 10.9515L12.6272 15.7795C12.2562 16.0775 11.7262 16.0735 11.3602 15.7685L5.36017 10.7685C5.12317 10.5705 5.00017 10.2865 5.00017 9.99949Z" fill="white"/>
</mask>
<g mask="url(#mask0_1_12017)">
<rect x="24" width="24" height="24" transform="rotate(90 24 0)" fill="#03133D"/>
</g>
</svg>
