<svg xmlns="http://www.w3.org/2000/svg" width="64" height="65" fill="none" viewBox="0 0 64 65"><rect width="64" height="64" y=".5" fill="url(#paint0_linear_461_9602)" rx="10"/><path fill="#03133D" fill-rule="evenodd" d="M36 32.5H33.3333V29.8334C33.3333 29.096 32.736 28.5 32 28.5C31.264 28.5 30.6667 29.096 30.6667 29.8334V33.8334C30.6667 34.5707 31.264 35.1667 32 35.1667H36C36.736 35.1667 37.3333 34.5707 37.3333 33.8334C37.3333 33.096 36.736 32.5 36 32.5ZM32 42.8334C27.0373 42.8334 23 38.796 23 33.8334C23 28.8707 27.0373 24.8334 32 24.8334C36.9627 24.8334 41 28.8707 41 33.8334C41 38.796 36.9627 42.8334 32 42.8334M33.3173 21.9107C33.32 21.8827 33.3333 21.8614 33.3333 21.8334V20.5H34.6667C35.4027 20.5 36 19.904 36 19.1667C36 18.4294 35.4027 17.8334 34.6667 17.8334H29.3333C28.5973 17.8334 28 18.4294 28 19.1667C28 19.904 28.5973 20.5 29.3333 20.5H30.6667V21.8334C30.6667 21.8614 30.68 21.8827 30.6827 21.9107C24.684 22.5694 20 27.6627 20 33.8334C20 40.4507 25.384 45.8334 32 45.8334C38.616 45.8334 44 40.4507 44 33.8334C44 27.6627 39.316 22.5694 33.3173 21.9107" clip-rule="evenodd"/><mask id="mask0_461_9602" style="mask-type:alpha" width="24" height="29" x="20" y="17" maskUnits="userSpaceOnUse"><path fill="#fff" fill-rule="evenodd" d="M36 32.5H33.3333V29.8334C33.3333 29.096 32.736 28.5 32 28.5C31.264 28.5 30.6667 29.096 30.6667 29.8334V33.8334C30.6667 34.5707 31.264 35.1667 32 35.1667H36C36.736 35.1667 37.3333 34.5707 37.3333 33.8334C37.3333 33.096 36.736 32.5 36 32.5ZM32 42.8334C27.0373 42.8334 23 38.796 23 33.8334C23 28.8707 27.0373 24.8334 32 24.8334C36.9627 24.8334 41 28.8707 41 33.8334C41 38.796 36.9627 42.8334 32 42.8334M33.3173 21.9107C33.32 21.8827 33.3333 21.8614 33.3333 21.8334V20.5H34.6667C35.4027 20.5 36 19.904 36 19.1667C36 18.4294 35.4027 17.8334 34.6667 17.8334H29.3333C28.5973 17.8334 28 18.4294 28 19.1667C28 19.904 28.5973 20.5 29.3333 20.5H30.6667V21.8334C30.6667 21.8614 30.68 21.8827 30.6827 21.9107C24.684 22.5694 20 27.6627 20 33.8334C20 40.4507 25.384 45.8334 32 45.8334C38.616 45.8334 44 40.4507 44 33.8334C44 27.6627 39.316 22.5694 33.3173 21.9107" clip-rule="evenodd"/></mask><g mask="url(#mask0_461_9602)"><rect width="32" height="32" x="16" y="16.5" fill="#fff"/></g><defs><linearGradient id="paint0_linear_461_9602" x1="-.416" x2="70.953" y1="72.344" y2="17.324" gradientUnits="userSpaceOnUse"><stop stop-color="#0097FE"/><stop offset="1" stop-color="#14358A"/></linearGradient></defs></svg>