<svg xmlns="http://www.w3.org/2000/svg" width="64" height="65" fill="none" viewBox="0 0 64 65"><rect width="64" height="64" y=".5" fill="url(#paint0_linear_402_8735)" rx="10"/><path fill="#03133D" fill-rule="evenodd" d="M39.6803 37.22L32.0003 41.6293L24.3203 37.22L26.5789 36.2587L31.3363 38.9893C31.5416 39.108 31.7709 39.1667 32.0003 39.1667C32.2296 39.1667 32.4576 39.108 32.6643 38.9893L37.4216 36.2573L39.6803 37.22ZM31.3363 33.656C31.5416 33.7747 31.7709 33.8333 32.0003 33.8333C32.2296 33.8333 32.4576 33.7747 32.6643 33.656L37.4216 30.924L39.6803 31.8867L32.0003 36.296L24.3203 31.8867L26.5789 30.924L31.3363 33.656ZM32.0003 23.2827L39.6803 26.5534L32.0003 30.9627L24.3203 26.5534L32.0003 23.2827ZM43.9977 31.6307C43.9671 31.1254 43.6537 30.6814 43.1884 30.4827L40.3191 29.2614L43.3311 27.532C43.7697 27.2814 44.0271 26.8027 43.9977 26.2974C43.9671 25.7934 43.6537 25.348 43.1884 25.1494L32.5217 20.6067C32.1884 20.464 31.8111 20.464 31.4777 20.6067L20.8111 25.1494C20.3457 25.348 20.0324 25.7934 20.0031 26.2974C19.9724 26.8027 20.2311 27.2814 20.6697 27.532L23.6804 29.2614L20.8111 30.4827C20.3457 30.6814 20.0324 31.1254 20.0031 31.6307C19.9724 32.136 20.2311 32.6147 20.6697 32.8654L23.6804 34.5947L20.8111 35.816C20.3457 36.0147 20.0324 36.4587 20.0031 36.964C19.9724 37.4694 20.2311 37.948 20.6697 38.1987L31.3364 44.3227C31.5417 44.4414 31.7711 44.5 32.0004 44.5C32.2297 44.5 32.4577 44.4414 32.6644 44.3227L43.3311 38.1987C43.7697 37.948 44.0271 37.4694 43.9977 36.964C43.9671 36.46 43.6537 36.0147 43.1897 35.816L40.3204 34.5934L43.3311 32.8654C43.7697 32.6147 44.0271 32.136 43.9977 31.6307Z" clip-rule="evenodd"/><mask id="mask0_402_8735" style="mask-type:alpha" width="24" height="25" x="20" y="20" maskUnits="userSpaceOnUse"><path fill="#fff" fill-rule="evenodd" d="M39.6803 37.22L32.0003 41.6293L24.3203 37.22L26.5789 36.2587L31.3363 38.9893C31.5416 39.108 31.7709 39.1667 32.0003 39.1667C32.2296 39.1667 32.4576 39.108 32.6643 38.9893L37.4216 36.2573L39.6803 37.22ZM31.3363 33.656C31.5416 33.7747 31.7709 33.8333 32.0003 33.8333C32.2296 33.8333 32.4576 33.7747 32.6643 33.656L37.4216 30.924L39.6803 31.8867L32.0003 36.296L24.3203 31.8867L26.5789 30.924L31.3363 33.656ZM32.0003 23.2827L39.6803 26.5534L32.0003 30.9627L24.3203 26.5534L32.0003 23.2827ZM43.9977 31.6307C43.9671 31.1254 43.6537 30.6814 43.1884 30.4827L40.3191 29.2614L43.3311 27.532C43.7697 27.2814 44.0271 26.8027 43.9977 26.2974C43.9671 25.7934 43.6537 25.348 43.1884 25.1494L32.5217 20.6067C32.1884 20.464 31.8111 20.464 31.4777 20.6067L20.8111 25.1494C20.3457 25.348 20.0324 25.7934 20.0031 26.2974C19.9724 26.8027 20.2311 27.2814 20.6697 27.532L23.6804 29.2614L20.8111 30.4827C20.3457 30.6814 20.0324 31.1254 20.0031 31.6307C19.9724 32.136 20.2311 32.6147 20.6697 32.8654L23.6804 34.5947L20.8111 35.816C20.3457 36.0147 20.0324 36.4587 20.0031 36.964C19.9724 37.4694 20.2311 37.948 20.6697 38.1987L31.3364 44.3227C31.5417 44.4414 31.7711 44.5 32.0004 44.5C32.2297 44.5 32.4577 44.4414 32.6644 44.3227L43.3311 38.1987C43.7697 37.948 44.0271 37.4694 43.9977 36.964C43.9671 36.46 43.6537 36.0147 43.1897 35.816L40.3204 34.5934L43.3311 32.8654C43.7697 32.6147 44.0271 32.136 43.9977 31.6307Z" clip-rule="evenodd"/></mask><g mask="url(#mask0_402_8735)"><rect width="32" height="32" x="16" y="16.5" fill="#fff"/></g><defs><linearGradient id="paint0_linear_402_8735" x1="-.416" x2="70.953" y1="72.344" y2="17.324" gradientUnits="userSpaceOnUse"><stop stop-color="#0097FE"/><stop offset="1" stop-color="#14358A"/></linearGradient></defs></svg>