<svg width="64" height="64" viewBox="0 0 64 64" fill="none" xmlns="http://www.w3.org/2000/svg">
<rect width="64" height="64" rx="10" fill="url(#paint0_linear_2374_5838)"/>
<path d="M34.6667 30.6667H33.3333V25.3334H36C36.3536 25.3334 36.6928 25.4738 36.9428 25.7239C37.1929 25.9739 37.3333 26.3131 37.3333 26.6667C37.3333 27.0203 37.4738 27.3594 37.7239 27.6095C37.9739 27.8595 38.313 28 38.6667 28C39.0203 28 39.3594 27.8595 39.6095 27.6095C39.8595 27.3594 40 27.0203 40 26.6667C40 25.6058 39.5786 24.5884 38.8284 23.8383C38.0783 23.0881 37.0609 22.6667 36 22.6667H33.3333V20C33.3333 19.6464 33.1929 19.3073 32.9428 19.0572C32.6928 18.8072 32.3536 18.6667 32 18.6667C31.6464 18.6667 31.3072 18.8072 31.0572 19.0572C30.8071 19.3073 30.6667 19.6464 30.6667 20V22.6667H29.3333C27.9188 22.6667 26.5623 23.2286 25.5621 24.2288C24.5619 25.229 24 26.5855 24 28C24 29.4145 24.5619 30.7711 25.5621 31.7713C26.5623 32.7715 27.9188 33.3334 29.3333 33.3334H30.6667V38.6667H28C27.6464 38.6667 27.3072 38.5262 27.0572 38.2762C26.8071 38.0261 26.6667 37.687 26.6667 37.3334C26.6667 36.9797 26.5262 36.6406 26.2761 36.3905C26.0261 36.1405 25.687 36 25.3333 36C24.9797 36 24.6406 36.1405 24.3905 36.3905C24.1405 36.6406 24 36.9797 24 37.3334C24 38.3942 24.4214 39.4116 25.1716 40.1618C25.9217 40.9119 26.9391 41.3334 28 41.3334H30.6667V44C30.6667 44.3536 30.8071 44.6928 31.0572 44.9428C31.3072 45.1929 31.6464 45.3334 32 45.3334C32.3536 45.3334 32.6928 45.1929 32.9428 44.9428C33.1929 44.6928 33.3333 44.3536 33.3333 44V41.3334H34.6667C36.0812 41.3334 37.4377 40.7715 38.4379 39.7713C39.4381 38.7711 40 37.4145 40 36C40 34.5855 39.4381 33.229 38.4379 32.2288C37.4377 31.2286 36.0812 30.6667 34.6667 30.6667ZM30.6667 30.6667H29.3333C28.6261 30.6667 27.9478 30.3857 27.4477 29.8856C26.9476 29.3855 26.6667 28.7073 26.6667 28C26.6667 27.2928 26.9476 26.6145 27.4477 26.1144C27.9478 25.6143 28.6261 25.3334 29.3333 25.3334H30.6667V30.6667ZM34.6667 38.6667H33.3333V33.3334H34.6667C35.3739 33.3334 36.0522 33.6143 36.5523 34.1144C37.0524 34.6145 37.3333 35.2928 37.3333 36C37.3333 36.7073 37.0524 37.3855 36.5523 37.8856C36.0522 38.3857 35.3739 38.6667 34.6667 38.6667Z" fill="white"/>
<defs>
<linearGradient id="paint0_linear_2374_5838" x1="-0.415645" y1="71.8441" x2="70.9528" y2="16.8239" gradientUnits="userSpaceOnUse">
<stop stop-color="#0097FE"/>
<stop offset="1" stop-color="#14358A"/>
</linearGradient>
</defs>
</svg>
