<svg xmlns="http://www.w3.org/2000/svg" width="20" height="21" fill="none" viewBox="0 0 20 21"><path fill="#354263" d="M10.2329 16.6345L10.5828 17.2979H10.5828L10.2329 16.6345ZM9.4338 16.6345L9.08391 17.2979H9.08391L9.4338 16.6345ZM14.9167 9.33333C14.9167 11.1198 14.0233 12.5939 12.9063 13.7402C11.7893 14.8864 10.507 15.642 9.88297 15.9711L10.5828 17.2979C11.2751 16.9327 12.7097 16.0911 13.9805 14.7871C15.2513 13.4831 16.4167 11.6538 16.4167 9.33333H14.9167ZM9.83333 4.25C12.6408 4.25 14.9167 6.52589 14.9167 9.33333H16.4167C16.4167 5.69746 13.4692 2.75 9.83333 2.75V4.25ZM4.75 9.33333C4.75 6.52589 7.02589 4.25 9.83333 4.25V2.75C6.19746 2.75 3.25 5.69746 3.25 9.33333H4.75ZM9.78369 15.9711C9.15964 15.642 7.8774 14.8864 6.76039 13.7402C5.64333 12.5939 4.75 11.1198 4.75 9.33333H3.25C3.25 11.6538 4.41538 13.4831 5.68612 14.7871C6.95692 16.0911 8.39158 16.9327 9.08391 17.2979L9.78369 15.9711ZM9.88298 15.9711C9.84999 15.9885 9.81668 15.9885 9.78369 15.9711L9.08391 17.2979C9.55483 17.5463 10.1118 17.5463 10.5828 17.2979L9.88298 15.9711ZM11.5833 9.33333C11.5833 10.2998 10.7998 11.0833 9.83333 11.0833V12.5833C11.6283 12.5833 13.0833 11.1283 13.0833 9.33333H11.5833ZM9.83333 7.58333C10.7998 7.58333 11.5833 8.36684 11.5833 9.33333H13.0833C13.0833 7.53841 11.6283 6.08333 9.83333 6.08333V7.58333ZM8.08333 9.33333C8.08333 8.36684 8.86684 7.58333 9.83333 7.58333V6.08333C8.03841 6.08333 6.58333 7.53841 6.58333 9.33333H8.08333ZM9.83333 11.0833C8.86684 11.0833 8.08333 10.2998 8.08333 9.33333H6.58333C6.58333 11.1283 8.03841 12.5833 9.83333 12.5833V11.0833Z"/></svg>