<svg xmlns="http://www.w3.org/2000/svg" width="64" height="64" fill="none" viewBox="0 0 64 64"><rect width="64" height="64" fill="#E95C49" rx="10"/><path fill="#03133D" fill-rule="evenodd" d="M42.9903 35.961C41.6583 40.245 38.3383 43.211 33.9203 43.865C27.1783 44.863 20.5583 39.751 20.0343 32.951C19.4903 25.895 25.0563 20.001 32.0023 20.001C33.6083 20.001 35.1403 20.317 36.5403 20.889C37.0263 21.087 37.5763 20.917 37.8243 20.457L40.6943 15.163C40.9663 14.657 40.7703 14.005 40.2463 13.769C37.7323 12.633 34.9443 12.001 32.0083 12.001C20.7643 12.001 11.6863 21.273 12.0083 32.587C12.3023 42.909 20.8223 51.545 31.1363 51.983C42.2283 52.451 51.4283 43.891 51.9863 33.045C52.0083 32.649 52.0003 30.343 51.9923 28.991C51.9903 28.439 51.5423 28.001 50.9923 28.001H32.9943C32.4423 28.001 31.9943 28.447 31.9943 29.001V34.961C31.9943 35.511 32.4423 35.961 32.9943 35.961H42.9903Z" clip-rule="evenodd"/><mask id="mask0_2161_7145" style="mask-type:alpha" width="41" height="41" x="12" y="12" maskUnits="userSpaceOnUse"><path fill="#fff" fill-rule="evenodd" d="M42.9903 35.961C41.6583 40.245 38.3383 43.211 33.9203 43.865C27.1783 44.863 20.5583 39.751 20.0343 32.951C19.4903 25.895 25.0563 20.001 32.0023 20.001C33.6083 20.001 35.1403 20.317 36.5403 20.889C37.0263 21.087 37.5763 20.917 37.8243 20.457L40.6943 15.163C40.9663 14.657 40.7703 14.005 40.2463 13.769C37.7323 12.633 34.9443 12.001 32.0083 12.001C20.7643 12.001 11.6863 21.273 12.0083 32.587C12.3023 42.909 20.8223 51.545 31.1363 51.983C42.2283 52.451 51.4283 43.891 51.9863 33.045C52.0083 32.649 52.0003 30.343 51.9923 28.991C51.9903 28.439 51.5423 28.001 50.9923 28.001H32.9943C32.4423 28.001 31.9943 28.447 31.9943 29.001V34.961C31.9943 35.511 32.4423 35.961 32.9943 35.961H42.9903Z" clip-rule="evenodd"/></mask><g mask="url(#mask0_2161_7145)"><rect width="48" height="48" x="8" y="8" fill="#fff"/></g></svg>