<svg xmlns="http://www.w3.org/2000/svg" width="48" height="48" fill="none" viewBox="0 0 48 48"><rect width="48" height="48" fill="url(#paint0_linear_2293_7113)" rx="10"/><path fill="#231F20" fill-rule="evenodd" d="M28 24C27.448 24 27 23.552 27 23C27 22.448 27.448 22 28 22C28.552 22 29 22.448 29 23C29 23.552 28.552 24 28 24ZM24 24C23.448 24 23 23.552 23 23C23 22.448 23.448 22 24 22C24.552 22 25 22.448 25 23C25 23.552 24.552 24 24 24ZM20 24C19.448 24 19 23.552 19 23C19 22.448 19.448 22 20 22C20.552 22 21 22.448 21 23C21 23.552 20.552 24 20 24ZM31 15H17C15.346 15 14 16.346 14 18V33C14 33.36 14.194 33.693 14.507 33.87C14.66 33.957 14.83 34 15 34C15.178 34 15.356 33.953 15.515 33.857L20.039 31.143C20.195 31.049 20.373 31 20.554 31H31C32.654 31 34 29.654 34 28V18C34 16.346 32.654 15 31 15Z" clip-rule="evenodd"/><mask id="mask0_2293_7113" style="mask-type:alpha" width="20" height="19" x="14" y="15" maskUnits="userSpaceOnUse"><path fill="#fff" fill-rule="evenodd" d="M28 24C27.448 24 27 23.552 27 23C27 22.448 27.448 22 28 22C28.552 22 29 22.448 29 23C29 23.552 28.552 24 28 24ZM24 24C23.448 24 23 23.552 23 23C23 22.448 23.448 22 24 22C24.552 22 25 22.448 25 23C25 23.552 24.552 24 24 24ZM20 24C19.448 24 19 23.552 19 23C19 22.448 19.448 22 20 22C20.552 22 21 22.448 21 23C21 23.552 20.552 24 20 24ZM31 15H17C15.346 15 14 16.346 14 18V33C14 33.36 14.194 33.693 14.507 33.87C14.66 33.957 14.83 34 15 34C15.178 34 15.356 33.953 15.515 33.857L20.039 31.143C20.195 31.049 20.373 31 20.554 31H31C32.654 31 34 29.654 34 28V18C34 16.346 32.654 15 31 15Z" clip-rule="evenodd"/></mask><g mask="url(#mask0_2293_7113)"><rect width="24" height="24" x="12" y="12" fill="#fff"/></g><defs><linearGradient id="paint0_linear_2293_7113" x1="-.312" x2="53.215" y1="53.883" y2="12.618" gradientUnits="userSpaceOnUse"><stop stop-color="#0097FE"/><stop offset="1" stop-color="#14358A"/></linearGradient></defs></svg>