<svg xmlns="http://www.w3.org/2000/svg" width="58" height="68" fill="none" viewBox="0 0 58 68"><path fill="#231F20" fill-rule="evenodd" d="M40.8004 9.86087C40.8004 9.08327 40.2604 8.45218 39.6004 8.45218H33.6004C26.9716 8.45218 21.6004 14.1292 21.6004 21.1304V28.7374H15.6004C14.938 28.7374 14.4004 29.3685 14.4004 30.1461V37.4713C14.4004 38.2489 14.938 38.88 15.6004 38.88H21.6004V57.7565C21.6004 58.5341 22.138 59.1652 22.8004 59.1652H30.0004C30.6604 59.1652 31.2004 58.5341 31.2004 57.7565V38.88H37.486C38.026 38.88 38.4988 38.4574 38.6452 37.8488L40.3756 30.5236C40.5892 29.6277 40.0132 28.7374 39.2212 28.7374H31.2004V21.1304C31.2004 19.7302 32.2732 18.5948 33.6004 18.5948H39.6004C40.2604 18.5948 40.8004 17.9637 40.8004 17.1861V9.86087Z" clip-rule="evenodd"/><mask id="mask0_1_13799" style="mask-type:alpha" width="27" height="52" x="14" y="8" maskUnits="userSpaceOnUse"><path fill="#fff" fill-rule="evenodd" d="M40.8004 9.86087C40.8004 9.08327 40.2604 8.45218 39.6004 8.45218H33.6004C26.9716 8.45218 21.6004 14.1292 21.6004 21.1304V28.7374H15.6004C14.938 28.7374 14.4004 29.3685 14.4004 30.1461V37.4713C14.4004 38.2489 14.938 38.88 15.6004 38.88H21.6004V57.7565C21.6004 58.5341 22.138 59.1652 22.8004 59.1652H30.0004C30.6604 59.1652 31.2004 58.5341 31.2004 57.7565V38.88H37.486C38.026 38.88 38.4988 38.4574 38.6452 37.8488L40.3756 30.5236C40.5892 29.6277 40.0132 28.7374 39.2212 28.7374H31.2004V21.1304C31.2004 19.7302 32.2732 18.5948 33.6004 18.5948H39.6004C40.2604 18.5948 40.8004 17.9637 40.8004 17.1861V9.86087Z" clip-rule="evenodd"/></mask><g mask="url(#mask0_1_13799)"><rect width="57.6" height="67.617" fill="#006EEA"/></g></svg>