<svg width="64" height="64" viewBox="0 0 64 64" fill="none" xmlns="http://www.w3.org/2000/svg">
<rect width="64" height="64" rx="10" fill="url(#paint0_linear_461_9537)"/>
<path fill-rule="evenodd" clip-rule="evenodd" d="M31.9999 37.3334C31.2639 37.3334 30.6666 36.7361 30.6666 36.0001C30.6666 35.2641 31.2639 34.6667 31.9999 34.6667C32.7359 34.6667 33.3333 35.2641 33.3333 36.0001C33.3333 36.7361 32.7359 37.3334 31.9999 37.3334ZM31.9999 32.0001C29.7946 32.0001 27.9999 33.7947 27.9999 36.0001C27.9999 38.2054 29.7946 40.0001 31.9999 40.0001C34.2053 40.0001 35.9999 38.2054 35.9999 36.0001C35.9999 33.7947 34.2053 32.0001 31.9999 32.0001ZM39.9999 41.3334C39.9999 42.0694 39.4026 42.6667 38.6666 42.6667H25.3333C24.5973 42.6667 23.9999 42.0694 23.9999 41.3334V30.6667C23.9999 29.9307 24.5973 29.3334 25.3333 29.3334H26.6666H29.3333H34.6666H37.3333H38.6666C39.4026 29.3334 39.9999 29.9307 39.9999 30.6667V41.3334ZM29.3333 24.1481C29.3333 22.5961 30.5293 21.3334 31.9999 21.3334C33.4706 21.3334 34.6666 22.5961 34.6666 24.1481V26.6667H29.3333V24.1481ZM38.6666 26.6667H37.3333V24.1481C37.3333 21.1267 34.9413 18.6667 31.9999 18.6667C29.0586 18.6667 26.6666 21.1267 26.6666 24.1481V26.6667H25.3333C23.1279 26.6667 21.3333 28.4614 21.3333 30.6667V41.3334C21.3333 43.5387 23.1279 45.3334 25.3333 45.3334H38.6666C40.8719 45.3334 42.6666 43.5387 42.6666 41.3334V30.6667C42.6666 28.4614 40.8719 26.6667 38.6666 26.6667Z" fill="#03133D"/>
<mask id="mask0_461_9537" style="mask-type:alpha" maskUnits="userSpaceOnUse" x="21" y="18" width="22" height="28">
<path fill-rule="evenodd" clip-rule="evenodd" d="M31.9999 37.3334C31.2639 37.3334 30.6666 36.7361 30.6666 36.0001C30.6666 35.2641 31.2639 34.6667 31.9999 34.6667C32.7359 34.6667 33.3333 35.2641 33.3333 36.0001C33.3333 36.7361 32.7359 37.3334 31.9999 37.3334ZM31.9999 32.0001C29.7946 32.0001 27.9999 33.7947 27.9999 36.0001C27.9999 38.2054 29.7946 40.0001 31.9999 40.0001C34.2053 40.0001 35.9999 38.2054 35.9999 36.0001C35.9999 33.7947 34.2053 32.0001 31.9999 32.0001ZM39.9999 41.3334C39.9999 42.0694 39.4026 42.6667 38.6666 42.6667H25.3333C24.5973 42.6667 23.9999 42.0694 23.9999 41.3334V30.6667C23.9999 29.9307 24.5973 29.3334 25.3333 29.3334H26.6666H29.3333H34.6666H37.3333H38.6666C39.4026 29.3334 39.9999 29.9307 39.9999 30.6667V41.3334ZM29.3333 24.1481C29.3333 22.5961 30.5293 21.3334 31.9999 21.3334C33.4706 21.3334 34.6666 22.5961 34.6666 24.1481V26.6667H29.3333V24.1481ZM38.6666 26.6667H37.3333V24.1481C37.3333 21.1267 34.9413 18.6667 31.9999 18.6667C29.0586 18.6667 26.6666 21.1267 26.6666 24.1481V26.6667H25.3333C23.1279 26.6667 21.3333 28.4614 21.3333 30.6667V41.3334C21.3333 43.5387 23.1279 45.3334 25.3333 45.3334H38.6666C40.8719 45.3334 42.6666 43.5387 42.6666 41.3334V30.6667C42.6666 28.4614 40.8719 26.6667 38.6666 26.6667Z" fill="white"/>
</mask>
<g mask="url(#mask0_461_9537)">
<rect x="16" y="16" width="32" height="32" fill="white"/>
</g>
<defs>
<linearGradient id="paint0_linear_461_9537" x1="-0.415645" y1="71.8441" x2="70.9528" y2="16.8239" gradientUnits="userSpaceOnUse">
<stop stop-color="#0097FE"/>
<stop offset="1" stop-color="#14358A"/>
</linearGradient>
</defs>
</svg>
