<svg xmlns="http://www.w3.org/2000/svg" width="24" height="26" fill="none" viewBox="0 0 24 26"><path fill="#231F20" fill-rule="evenodd" d="M9.86338 19.4141C9.58738 19.4141 9.32338 19.297 9.13438 19.0906L4.27138 13.7721C3.89238 13.3593 3.91338 12.7092 4.31538 12.3211C4.71838 11.9329 5.35138 11.9534 5.72838 12.3662L9.85338 16.8755L18.2614 7.42565C18.6354 7.00563 19.2674 6.97791 19.6754 7.35993C20.0824 7.74195 20.1104 8.392 19.7384 8.80996L10.6014 19.0793C10.4144 19.2909 10.1484 19.4121 9.87038 19.4141H9.86338Z" clip-rule="evenodd"/><mask id="mask0_727_10101" style="mask-type:alpha" width="16" height="13" x="4" y="7" maskUnits="userSpaceOnUse"><path fill="#fff" fill-rule="evenodd" d="M9.86338 19.4141C9.58738 19.4141 9.32338 19.297 9.13438 19.0906L4.27138 13.7721C3.89238 13.3593 3.91338 12.7092 4.31538 12.3211C4.71838 11.9329 5.35138 11.9534 5.72838 12.3662L9.85338 16.8755L18.2614 7.42565C18.6354 7.00563 19.2674 6.97791 19.6754 7.35993C20.0824 7.74195 20.1104 8.392 19.7384 8.80996L10.6014 19.0793C10.4144 19.2909 10.1484 19.4121 9.87038 19.4141H9.86338Z" clip-rule="evenodd"/></mask><g mask="url(#mask0_727_10101)"><rect width="24" height="24.646" y=".929" fill="#7C2BB8"/></g></svg>