<svg width="32" height="32" viewBox="0 0 32 32" fill="none" xmlns="http://www.w3.org/2000/svg">
<path fill-rule="evenodd" clip-rule="evenodd" d="M4.0004 7C4.0004 5.344 5.3444 4 7.0004 4C8.6564 4 10.0004 5.344 10.0004 7C10.0004 8.656 8.6564 10 7.0004 10C5.3444 10 4.0004 8.656 4.0004 7ZM20.2011 11.2005C15.8931 11.2005 12.3997 14.6725 12.3997 18.9525V26.7992C12.3997 27.4619 12.9384 28.0005 13.6011 28.0005H16.3997C17.0624 28.0005 17.6011 27.4619 17.6011 26.7992V18.9525C17.6011 17.4379 18.9131 16.2272 20.4704 16.3832C21.8224 16.5179 22.7997 17.7539 22.7997 19.1125V26.7992C22.7997 27.4619 23.3384 28.0005 24.0011 28.0005H26.7997C27.4624 28.0005 28.0011 27.4619 28.0011 26.7992V18.9525C28.0011 14.6725 24.5077 11.2005 20.2011 11.2005ZM8.8 12.3997H5.20133C4.53867 12.3997 4 12.9371 4 13.5997V26.7997C4 27.4624 4.53867 27.9997 5.20133 27.9997H8.8C9.46267 27.9997 10 27.4624 10 26.7997V13.5997C10 12.9371 9.46267 12.3997 8.8 12.3997Z" fill="#03133D"/>
<mask id="mask0_1_6468" style="mask-type:alpha" maskUnits="userSpaceOnUse" x="4" y="4" width="25" height="25">
<path fill-rule="evenodd" clip-rule="evenodd" d="M4.0004 7C4.0004 5.344 5.3444 4 7.0004 4C8.6564 4 10.0004 5.344 10.0004 7C10.0004 8.656 8.6564 10 7.0004 10C5.3444 10 4.0004 8.656 4.0004 7ZM20.2011 11.2005C15.8931 11.2005 12.3997 14.6725 12.3997 18.9525V26.7992C12.3997 27.4619 12.9384 28.0005 13.6011 28.0005H16.3997C17.0624 28.0005 17.6011 27.4619 17.6011 26.7992V18.9525C17.6011 17.4379 18.9131 16.2272 20.4704 16.3832C21.8224 16.5179 22.7997 17.7539 22.7997 19.1125V26.7992C22.7997 27.4619 23.3384 28.0005 24.0011 28.0005H26.7997C27.4624 28.0005 28.0011 27.4619 28.0011 26.7992V18.9525C28.0011 14.6725 24.5077 11.2005 20.2011 11.2005ZM8.8 12.3997H5.20133C4.53867 12.3997 4 12.9371 4 13.5997V26.7997C4 27.4624 4.53867 27.9997 5.20133 27.9997H8.8C9.46267 27.9997 10 27.4624 10 26.7997V13.5997C10 12.9371 9.46267 12.3997 8.8 12.3997Z" fill="white"/>
</mask>
<g mask="url(#mask0_1_6468)">
<rect width="32" height="32" fill="white"/>
</g>
</svg>
