<svg width="48" height="40" viewBox="0 0 48 40" fill="none" xmlns="http://www.w3.org/2000/svg">
<g clip-path="url(#clip0_1_13773)">
<path d="M15.6765 38.9302C33.2926 38.9302 42.9262 24.3474 42.9262 11.7018C42.9262 11.2876 42.9177 10.8752 42.8991 10.4648C44.7691 9.11396 46.3945 7.42826 47.6765 5.5093C45.9604 6.27147 44.1138 6.78454 42.1765 7.0159C44.1539 5.83114 45.6719 3.957 46.3881 1.72281C44.5376 2.81894 42.4884 3.61562 40.3065 4.04574C38.5589 2.18564 36.0707 1.02222 33.3157 1.02222C28.0268 1.02222 23.7379 5.30793 23.7379 10.5907C23.7379 11.3416 23.8219 12.0721 23.9862 12.7728C16.0264 12.3725 8.96823 8.56452 4.24449 2.77416C3.42199 4.18839 2.94772 5.83119 2.94772 7.58407C2.94772 10.9042 4.63853 13.8352 7.20967 15.5499C5.63838 15.5014 4.16233 15.0704 2.87222 14.353C2.87081 14.3932 2.8708 14.4323 2.8708 14.4752C2.8708 19.1098 6.17207 22.9794 10.5543 23.8562C9.74955 24.0754 8.90283 24.193 8.02891 24.193C7.41274 24.193 6.81242 24.1324 6.22892 24.0204C7.4482 27.8228 10.9838 30.5897 15.1756 30.6671C11.8977 33.2343 7.76842 34.7634 3.28059 34.7634C2.50849 34.7634 1.74574 34.7195 0.996094 34.6309C5.23471 37.3456 10.2677 38.9296 15.677 38.9296" fill="#1DA1F2"/>
</g>
<defs>
<clipPath id="clip0_1_13773">
<rect width="46.993" height="38.221" fill="white" transform="translate(0.839844 0.867188)"/>
</clipPath>
</defs>
</svg>
