<svg xmlns="http://www.w3.org/2000/svg" width="32" height="32" fill="none" viewBox="0 0 32 32"><path fill="#03133D" fill-rule="evenodd" d="M19.4886 26.0694C20.8873 24.0721 22.3419 21.1347 22.6326 17.3334H26.5726C26.0619 21.4027 23.2539 24.7601 19.4886 26.0694ZM5.4248 17.3334H9.41414C9.6888 21.1494 11.1248 24.0747 12.5421 26.0814C8.75947 24.7787 5.93814 21.4147 5.4248 17.3334ZM12.5835 5.90535C11.1808 7.90269 9.7128 10.8494 9.41947 14.6667H5.4248C5.93947 10.5707 8.7808 7.19602 12.5835 5.90535ZM12.1048 14.6667C12.5128 10.304 14.7448 7.26671 16.0342 5.86271C17.3675 7.29071 19.5648 10.3 19.9448 14.6667H12.1048ZM12.1061 17.3334H19.9488C19.5408 21.7027 17.3035 24.7401 16.0155 26.1441C14.6195 24.6641 12.4781 21.6961 12.1061 17.3334ZM26.5726 14.6668H22.6366C22.3632 10.8682 20.9432 7.95216 19.5326 5.94816C23.2766 7.26816 26.0646 10.6135 26.5726 14.6668ZM29.3327 16.0001C29.3327 8.66141 23.3713 2.69075 16.0367 2.66941C16.0313 2.66941 16.026 2.66808 16.0194 2.66808C16.014 2.66808 16.006 2.66675 15.9993 2.66675C8.64735 2.66675 2.66602 8.64942 2.66602 16.0001C2.66602 23.3521 8.64735 29.3334 15.9993 29.3334C16.0073 29.3334 16.014 29.3321 16.0194 29.3321C16.022 29.3321 16.0233 29.3334 16.026 29.3334C16.03 29.3334 16.034 29.3307 16.0367 29.3307C23.3713 29.3107 29.3327 23.3387 29.3327 16.0001Z" clip-rule="evenodd"/><mask id="mask0_1_6460" style="mask-type:alpha" width="28" height="28" x="2" y="2" maskUnits="userSpaceOnUse"><path fill="#fff" fill-rule="evenodd" d="M19.4886 26.0694C20.8873 24.0721 22.3419 21.1347 22.6326 17.3334H26.5726C26.0619 21.4027 23.2539 24.7601 19.4886 26.0694ZM5.4248 17.3334H9.41414C9.6888 21.1494 11.1248 24.0747 12.5421 26.0814C8.75947 24.7787 5.93814 21.4147 5.4248 17.3334ZM12.5835 5.90535C11.1808 7.90269 9.7128 10.8494 9.41947 14.6667H5.4248C5.93947 10.5707 8.7808 7.19602 12.5835 5.90535ZM12.1048 14.6667C12.5128 10.304 14.7448 7.26671 16.0342 5.86271C17.3675 7.29071 19.5648 10.3 19.9448 14.6667H12.1048ZM12.1061 17.3334H19.9488C19.5408 21.7027 17.3035 24.7401 16.0155 26.1441C14.6195 24.6641 12.4781 21.6961 12.1061 17.3334ZM26.5726 14.6668H22.6366C22.3632 10.8682 20.9432 7.95216 19.5326 5.94816C23.2766 7.26816 26.0646 10.6135 26.5726 14.6668ZM29.3327 16.0001C29.3327 8.66141 23.3713 2.69075 16.0367 2.66941C16.0313 2.66941 16.026 2.66808 16.0194 2.66808C16.014 2.66808 16.006 2.66675 15.9993 2.66675C8.64735 2.66675 2.66602 8.64942 2.66602 16.0001C2.66602 23.3521 8.64735 29.3334 15.9993 29.3334C16.0073 29.3334 16.014 29.3321 16.0194 29.3321C16.022 29.3321 16.0233 29.3334 16.026 29.3334C16.03 29.3334 16.034 29.3307 16.0367 29.3307C23.3713 29.3107 29.3327 23.3387 29.3327 16.0001Z" clip-rule="evenodd"/></mask><g mask="url(#mask0_1_6460)"><rect width="32" height="32" fill="#fff"/></g></svg>