<svg width="48" height="54" viewBox="0 0 48 54" fill="none" xmlns="http://www.w3.org/2000/svg">
<g clip-path="url(#clip0_1_13780)">
<path fill-rule="evenodd" clip-rule="evenodd" d="M33.9068 52.5462L33.7886 7.13312C33.4824 6.82724 32.8851 6.91961 32.6517 6.98775L31.0964 7.46929C30.9044 6.83823 30.6552 6.22595 30.352 5.64005C29.2485 3.5352 27.6355 2.42221 25.6831 2.41918H25.677C25.5466 2.41918 25.4178 2.4313 25.2874 2.4419L25.2723 2.44341C25.2158 2.37394 25.1572 2.30627 25.0964 2.2405C24.2475 1.33193 23.1561 0.88825 21.8493 0.926107C19.3299 0.998792 16.8211 2.81895 14.7852 6.05193C13.3527 8.32788 12.2658 11.1853 11.955 13.3977L6.99349 14.9347C5.53368 15.3935 5.4882 15.4389 5.29568 16.8154C5.15167 17.8572 1.33008 47.4144 1.33008 47.4144L33.3581 52.9536L33.9068 52.5447V52.5462ZM23.4138 3.00218C22.9878 2.72204 22.4891 2.59181 21.8979 2.60392C18.008 2.71598 14.6155 8.79277 13.7499 12.8419L17.476 11.6881L18.1414 11.4821C18.6296 8.91088 19.8544 6.24273 21.4567 4.52554C22.017 3.91022 22.6783 3.39503 23.4122 3.00218H23.4138ZM19.9833 10.9112L25.3314 9.25462C25.348 7.86149 25.1965 5.80207 24.4991 4.34837C23.7563 4.65425 23.1318 5.19031 22.6831 5.67033C21.481 6.96201 20.5002 8.93208 19.9848 10.9112H19.9833ZM27.0064 8.73674L29.4925 7.96597C29.0954 6.67581 28.1525 4.51342 26.2409 4.15C26.8352 5.68396 26.9883 7.4602 27.0064 8.73674Z" fill="#95BF47"/>
<path d="M41.0844 10.5115C40.8934 10.4964 37.1916 10.4389 37.1916 10.4389C37.1916 10.4389 34.0946 7.4315 33.7884 7.1241C33.6698 7.0148 33.5196 6.94588 33.3594 6.92725V52.9461L47.2375 49.495C47.2375 49.495 41.574 11.1975 41.5377 10.9355C41.5202 10.8243 41.4659 10.7221 41.3834 10.6452C41.301 10.5684 41.1952 10.5213 41.0829 10.5115H41.0844Z" fill="#5E8E3E"/>
<path d="M25.6666 17.6573L24.0537 23.6902C24.0537 23.6902 22.2558 22.871 20.1229 23.0058C16.9971 23.2026 16.9638 25.1757 16.9956 25.6709C17.1654 28.3663 24.2613 28.9569 24.66 35.2759C24.9738 40.2473 22.0239 43.6499 17.7733 43.9164C12.6722 44.2389 9.86328 41.2286 9.86328 41.2286L10.9441 36.6282C10.9441 36.6282 13.7713 38.7618 16.033 38.6179C17.5125 38.5256 18.0401 37.3232 17.987 36.4722C17.7642 32.9546 11.9855 33.1605 11.6202 27.379C11.314 22.5106 14.508 17.5816 21.5585 17.1364C24.275 16.9638 25.6666 17.6589 25.6666 17.6589" fill="white"/>
</g>
<defs>
<clipPath id="clip0_1_13780">
<rect width="46.993" height="52.9996" fill="white" transform="translate(0.839844 0.482422)"/>
</clipPath>
</defs>
</svg>
