<svg width="392" height="420" viewBox="0 0 392 420" fill="none" xmlns="http://www.w3.org/2000/svg">
<g filter="url(#filter0_d_2418_180626)">
<rect x="88.1384" y="72" width="199.645" height="228" rx="10" fill="white"/>
</g>
<g filter="url(#filter1_d_2418_180626)">
<rect x="111.575" y="258" width="157.719" height="23.2761" rx="11.6381" fill="white"/>
</g>
<rect x="124.473" y="266.729" width="127.773" height="5.81906" rx="2.90953" fill="#EDF1FC"/>
<g filter="url(#filter2_d_2418_180626)">
<rect x="150.575" y="211" width="169.698" height="26.1857" rx="13.0928" fill="white"/>
</g>
<rect x="165.549" y="221.668" width="139.751" height="5.81903" rx="2.90952" fill="#0097FE"/>
<path d="M109.152 104.138C108.56 104.138 108.045 104.031 107.607 103.815C107.168 103.6 106.83 103.3 106.591 102.916C106.353 102.531 106.234 102.085 106.234 101.578H107.249C107.249 101.893 107.322 102.185 107.468 102.454C107.614 102.716 107.826 102.927 108.103 103.089C108.387 103.243 108.737 103.319 109.152 103.319C109.698 103.319 110.121 103.189 110.421 102.927C110.721 102.666 110.871 102.339 110.871 101.947C110.871 101.624 110.802 101.366 110.663 101.174C110.525 100.974 110.336 100.812 110.098 100.689C109.867 100.566 109.598 100.459 109.291 100.366C108.991 100.274 108.675 100.17 108.345 100.055C107.722 99.8397 107.26 99.5744 106.961 99.2591C106.661 98.9361 106.511 98.517 106.511 98.0018C106.503 97.5712 106.603 97.1905 106.811 96.8598C107.018 96.5215 107.31 96.26 107.687 96.0754C108.072 95.8832 108.525 95.7871 109.048 95.7871C109.564 95.7871 110.01 95.8832 110.386 96.0754C110.771 96.2677 111.067 96.533 111.275 96.8714C111.49 97.2097 111.601 97.5942 111.609 98.0249H110.594C110.594 97.8019 110.536 97.5827 110.421 97.3674C110.306 97.1444 110.129 96.9636 109.89 96.8252C109.66 96.6868 109.368 96.6176 109.014 96.6176C108.575 96.6099 108.214 96.7214 107.93 96.9521C107.653 97.1828 107.514 97.5019 107.514 97.9095C107.514 98.2556 107.61 98.5209 107.803 98.7054C108.003 98.89 108.279 99.0438 108.633 99.1668C108.987 99.2822 109.394 99.4168 109.856 99.5706C110.24 99.709 110.586 99.8705 110.894 100.055C111.202 100.24 111.44 100.478 111.609 100.77C111.786 101.062 111.874 101.435 111.874 101.889C111.874 102.274 111.775 102.639 111.575 102.985C111.375 103.323 111.071 103.6 110.663 103.815C110.263 104.031 109.76 104.138 109.152 104.138ZM114.863 104.138C114.387 104.138 113.991 104.058 113.675 103.896C113.36 103.735 113.126 103.519 112.972 103.25C112.818 102.981 112.741 102.689 112.741 102.374C112.741 101.789 112.964 101.339 113.41 101.024C113.856 100.709 114.464 100.551 115.233 100.551H116.778V100.482C116.778 99.982 116.648 99.6052 116.386 99.3514C116.125 99.0899 115.775 98.9592 115.336 98.9592C114.96 98.9592 114.633 99.0553 114.356 99.2476C114.087 99.4321 113.918 99.7051 113.848 100.067H112.856C112.895 99.6513 113.033 99.3014 113.272 99.0169C113.518 98.7323 113.821 98.517 114.183 98.3709C114.544 98.2171 114.929 98.1402 115.336 98.1402C116.136 98.1402 116.736 98.3555 117.136 98.7862C117.543 99.2091 117.747 99.7743 117.747 100.482V104H116.882L116.824 102.973C116.663 103.296 116.425 103.573 116.109 103.804C115.802 104.027 115.386 104.138 114.863 104.138ZM115.013 103.319C115.383 103.319 115.698 103.223 115.959 103.031C116.228 102.839 116.432 102.589 116.571 102.281C116.709 101.974 116.778 101.651 116.778 101.312V101.301H115.313C114.744 101.301 114.341 101.401 114.102 101.601C113.871 101.793 113.756 102.035 113.756 102.327C113.756 102.627 113.864 102.87 114.079 103.054C114.302 103.231 114.614 103.319 115.013 103.319ZM118.97 104V95.6948H119.939V104H118.97ZM123.869 104.138C123.323 104.138 122.838 104.015 122.415 103.769C121.992 103.516 121.658 103.166 121.412 102.72C121.173 102.274 121.054 101.747 121.054 101.139C121.054 100.539 121.173 100.017 121.412 99.5706C121.65 99.1168 121.981 98.767 122.404 98.5209C122.835 98.2671 123.331 98.1402 123.892 98.1402C124.446 98.1402 124.922 98.2671 125.322 98.5209C125.73 98.767 126.041 99.0938 126.257 99.5013C126.472 99.9089 126.58 100.347 126.58 100.816C126.58 100.901 126.576 100.986 126.568 101.07C126.568 101.155 126.568 101.251 126.568 101.358H122.012C122.035 101.797 122.135 102.162 122.312 102.454C122.496 102.739 122.723 102.954 122.992 103.1C123.269 103.246 123.561 103.319 123.869 103.319C124.269 103.319 124.603 103.227 124.872 103.043C125.142 102.858 125.338 102.608 125.461 102.293H126.418C126.264 102.823 125.968 103.266 125.53 103.619C125.099 103.965 124.546 104.138 123.869 104.138ZM123.869 98.9592C123.407 98.9592 122.996 99.1015 122.635 99.386C122.281 99.6628 122.077 100.07 122.023 100.609H125.622C125.599 100.093 125.422 99.6898 125.092 99.3975C124.761 99.1053 124.353 98.9592 123.869 98.9592ZM129.825 104.138C129.14 104.138 128.571 103.965 128.118 103.619C127.664 103.273 127.399 102.804 127.322 102.212H128.314C128.375 102.512 128.533 102.773 128.787 102.996C129.048 103.212 129.398 103.319 129.836 103.319C130.244 103.319 130.544 103.235 130.736 103.066C130.928 102.889 131.024 102.681 131.024 102.443C131.024 102.097 130.898 101.866 130.644 101.751C130.398 101.635 130.048 101.532 129.594 101.439C129.286 101.378 128.979 101.289 128.671 101.174C128.364 101.059 128.106 100.897 127.898 100.689C127.691 100.474 127.587 100.193 127.587 99.8474C127.587 99.3475 127.772 98.94 128.141 98.6247C128.517 98.3017 129.025 98.1402 129.663 98.1402C130.271 98.1402 130.767 98.294 131.151 98.6016C131.543 98.9015 131.77 99.3322 131.832 99.8935H130.874C130.836 99.6013 130.709 99.3745 130.494 99.213C130.286 99.0438 130.005 98.9592 129.652 98.9592C129.306 98.9592 129.037 99.0323 128.844 99.1784C128.66 99.3245 128.567 99.5167 128.567 99.7551C128.567 99.9858 128.687 100.167 128.925 100.297C129.171 100.428 129.502 100.539 129.917 100.632C130.271 100.709 130.605 100.805 130.921 100.92C131.244 101.028 131.505 101.193 131.705 101.416C131.913 101.631 132.016 101.947 132.016 102.362C132.024 102.877 131.828 103.304 131.428 103.642C131.036 103.973 130.501 104.138 129.825 104.138ZM138.253 104C137.73 104 137.318 103.873 137.019 103.619C136.719 103.366 136.569 102.908 136.569 102.247V99.0976H135.577V98.2786H136.569L136.696 96.906H137.538V98.2786H139.222V99.0976H137.538V102.247C137.538 102.608 137.611 102.854 137.757 102.985C137.903 103.108 138.161 103.169 138.53 103.169H139.129V104H138.253ZM140.222 104V98.2786H141.099L141.179 99.3745C141.356 98.9977 141.625 98.6977 141.987 98.4747C142.348 98.2517 142.794 98.1402 143.325 98.1402V99.1553H143.06C142.721 99.1553 142.41 99.2168 142.125 99.3399C141.841 99.4552 141.614 99.6551 141.445 99.9397C141.276 100.224 141.191 100.616 141.191 101.116V104H140.222ZM146.54 104.138C145.994 104.138 145.51 104.015 145.087 103.769C144.664 103.516 144.329 103.166 144.083 102.72C143.845 102.274 143.726 101.747 143.726 101.139C143.726 100.539 143.845 100.017 144.083 99.5706C144.321 99.1168 144.652 98.767 145.075 98.5209C145.506 98.2671 146.002 98.1402 146.563 98.1402C147.117 98.1402 147.594 98.2671 147.993 98.5209C148.401 98.767 148.712 99.0938 148.928 99.5013C149.143 99.9089 149.251 100.347 149.251 100.816C149.251 100.901 149.247 100.986 149.239 101.07C149.239 101.155 149.239 101.251 149.239 101.358H144.683C144.706 101.797 144.806 102.162 144.983 102.454C145.167 102.739 145.394 102.954 145.663 103.1C145.94 103.246 146.232 103.319 146.54 103.319C146.94 103.319 147.274 103.227 147.544 103.043C147.813 102.858 148.009 102.608 148.132 102.293H149.089C148.935 102.823 148.639 103.266 148.201 103.619C147.77 103.965 147.217 104.138 146.54 104.138ZM146.54 98.9592C146.079 98.9592 145.667 99.1015 145.306 99.386C144.952 99.6628 144.748 100.07 144.694 100.609H148.293C148.27 100.093 148.093 99.6898 147.763 99.3975C147.432 99.1053 147.025 98.9592 146.54 98.9592ZM150.304 104V98.2786H151.181L151.239 99.3053C151.423 98.9438 151.689 98.6593 152.035 98.4517C152.381 98.244 152.773 98.1402 153.211 98.1402C153.888 98.1402 154.426 98.3478 154.826 98.7631C155.234 99.1707 155.437 99.8013 155.437 100.655V104H154.468V100.759C154.468 99.5667 153.976 98.9707 152.992 98.9707C152.5 98.9707 152.088 99.1515 151.758 99.5129C151.435 99.8666 151.273 100.374 151.273 101.036V104H150.304ZM159.27 104.138C158.701 104.138 158.201 104.008 157.771 103.746C157.348 103.485 157.017 103.127 156.779 102.673C156.548 102.22 156.432 101.705 156.432 101.128C156.432 100.551 156.552 100.04 156.79 99.5936C157.028 99.1399 157.359 98.7862 157.782 98.5324C158.205 98.2709 158.705 98.1402 159.282 98.1402C159.751 98.1402 160.166 98.2363 160.527 98.4286C160.889 98.6208 161.17 98.89 161.369 99.236V95.6948H162.338V104H161.462L161.369 103.054C161.185 103.331 160.92 103.581 160.574 103.804C160.228 104.027 159.793 104.138 159.27 104.138ZM159.374 103.296C159.758 103.296 160.097 103.208 160.389 103.031C160.689 102.846 160.92 102.593 161.081 102.27C161.25 101.947 161.335 101.57 161.335 101.139C161.335 100.709 161.25 100.332 161.081 100.009C160.92 99.6859 160.689 99.436 160.389 99.2591C160.097 99.0746 159.758 98.9823 159.374 98.9823C158.997 98.9823 158.659 99.0746 158.359 99.2591C158.067 99.436 157.836 99.6859 157.667 100.009C157.505 100.332 157.425 100.709 157.425 101.139C157.425 101.57 157.505 101.947 157.667 102.27C157.836 102.593 158.067 102.846 158.359 103.031C158.659 103.208 158.997 103.296 159.374 103.296Z" fill="#68718B"/>
<path d="M116.164 141.378C114.504 141.378 113.106 141.074 111.97 140.464C110.835 139.854 109.92 139.034 109.227 138.004C108.533 136.974 108.028 135.828 107.713 134.567C107.419 133.305 107.272 132.013 107.272 130.688C107.272 128.228 107.618 126.094 108.312 124.286C109.006 122.457 110.005 121.049 111.308 120.061C112.611 119.052 114.188 118.547 116.038 118.547C117.552 118.547 118.834 118.852 119.886 119.462C120.958 120.05 121.788 120.828 122.377 121.795C122.965 122.762 123.312 123.803 123.417 124.917H119.665C119.476 123.95 119.066 123.204 118.435 122.678C117.804 122.153 116.995 121.89 116.007 121.89C114.598 121.89 113.463 122.542 112.601 123.845C111.739 125.127 111.276 127.093 111.213 129.742C111.718 128.88 112.475 128.165 113.484 127.598C114.493 127.03 115.618 126.746 116.858 126.746C118.078 126.746 119.223 127.041 120.295 127.629C121.368 128.218 122.23 129.048 122.881 130.12C123.554 131.193 123.89 132.454 123.89 133.905C123.89 135.229 123.565 136.459 122.913 137.594C122.282 138.729 121.378 139.644 120.201 140.338C119.045 141.032 117.699 141.378 116.164 141.378ZM115.944 137.91C117.121 137.91 118.088 137.552 118.845 136.837C119.623 136.102 120.012 135.177 120.012 134.062C120.012 132.885 119.623 131.939 118.845 131.224C118.067 130.509 117.079 130.152 115.881 130.152C115.103 130.152 114.398 130.331 113.768 130.688C113.158 131.024 112.675 131.487 112.317 132.076C111.96 132.643 111.781 133.284 111.781 133.999C111.781 135.134 112.17 136.07 112.948 136.806C113.747 137.542 114.745 137.91 115.944 137.91ZM135.016 141.378C133.502 141.378 132.135 141.116 130.916 140.59C129.697 140.043 128.719 139.276 127.983 138.288C127.269 137.3 126.911 136.154 126.911 134.851C126.911 133.505 127.258 132.328 127.952 131.319C128.667 130.31 129.602 129.584 130.758 129.143C129.749 128.701 128.95 128.071 128.362 127.251C127.773 126.41 127.479 125.474 127.479 124.444C127.479 123.393 127.763 122.426 128.33 121.543C128.898 120.639 129.739 119.914 130.853 119.367C131.988 118.82 133.376 118.547 135.016 118.547C136.656 118.547 138.033 118.82 139.147 119.367C140.261 119.914 141.102 120.639 141.67 121.543C142.237 122.426 142.521 123.393 142.521 124.444C142.521 125.453 142.216 126.389 141.607 127.251C141.018 128.092 140.229 128.722 139.241 129.143C140.419 129.584 141.354 130.31 142.048 131.319C142.742 132.328 143.089 133.505 143.089 134.851C143.089 136.154 142.731 137.3 142.016 138.288C141.302 139.276 140.324 140.043 139.084 140.59C137.864 141.116 136.508 141.378 135.016 141.378ZM135.016 127.945C136.109 127.945 136.971 127.661 137.602 127.093C138.232 126.525 138.548 125.8 138.548 124.917C138.548 123.95 138.232 123.193 137.602 122.647C136.992 122.1 136.13 121.827 135.016 121.827C133.88 121.827 133.008 122.1 132.398 122.647C131.789 123.193 131.484 123.95 131.484 124.917C131.484 125.821 131.789 126.557 132.398 127.125C133.029 127.671 133.901 127.945 135.016 127.945ZM135.016 138.004C136.361 138.004 137.381 137.678 138.075 137.027C138.768 136.354 139.115 135.513 139.115 134.504C139.115 133.39 138.747 132.517 138.012 131.886C137.297 131.256 136.298 130.94 135.016 130.94C133.733 130.94 132.714 131.256 131.957 131.886C131.221 132.517 130.853 133.39 130.853 134.504C130.853 135.513 131.2 136.354 131.894 137.027C132.609 137.678 133.649 138.004 135.016 138.004ZM150.969 129.774C149.96 129.774 149.046 129.553 148.226 129.111C147.406 128.649 146.754 127.997 146.271 127.156C145.787 126.315 145.545 125.317 145.545 124.16C145.545 123.004 145.787 122.005 146.271 121.164C146.754 120.324 147.406 119.682 148.226 119.241C149.046 118.778 149.971 118.547 151.001 118.547C152.01 118.547 152.914 118.778 153.713 119.241C154.533 119.682 155.185 120.324 155.668 121.164C156.152 122.005 156.393 123.004 156.393 124.16C156.393 125.317 156.152 126.315 155.668 127.156C155.185 127.997 154.533 128.649 153.713 129.111C152.893 129.553 151.979 129.774 150.969 129.774ZM149.771 141L162.227 118.925H166.169L153.713 141H149.771ZM150.969 126.967C151.579 126.967 152.105 126.736 152.546 126.273C152.988 125.79 153.208 125.085 153.208 124.16C153.208 123.235 152.988 122.531 152.546 122.047C152.126 121.564 151.6 121.322 150.969 121.322C150.339 121.322 149.803 121.564 149.361 122.047C148.941 122.531 148.73 123.235 148.73 124.16C148.73 125.085 148.941 125.79 149.361 126.273C149.803 126.736 150.339 126.967 150.969 126.967ZM165.097 141.378C164.088 141.378 163.173 141.158 162.354 140.716C161.534 140.254 160.882 139.602 160.398 138.761C159.915 137.92 159.673 136.921 159.673 135.765C159.673 134.609 159.915 133.621 160.398 132.801C160.882 131.96 161.534 131.319 162.354 130.877C163.173 130.415 164.099 130.183 165.129 130.183C166.138 130.183 167.042 130.415 167.841 130.877C168.661 131.319 169.312 131.96 169.796 132.801C170.279 133.621 170.521 134.609 170.521 135.765C170.521 136.921 170.279 137.92 169.796 138.761C169.312 139.602 168.661 140.254 167.841 140.716C167.042 141.158 166.127 141.378 165.097 141.378ZM165.097 138.572C165.728 138.572 166.253 138.341 166.674 137.878C167.115 137.394 167.336 136.69 167.336 135.765C167.336 134.84 167.115 134.136 166.674 133.652C166.253 133.169 165.728 132.927 165.097 132.927C164.466 132.927 163.93 133.169 163.489 133.652C163.068 134.136 162.858 134.84 162.858 135.765C162.858 136.69 163.068 137.394 163.489 137.878C163.93 138.341 164.466 138.572 165.097 138.572Z" fill="#03133D"/>
<path d="M111.576 201.182C130.787 201.182 128.517 164.967 147.728 164.967C166.939 164.967 164.665 174.624 183.876 174.624C203.087 174.624 200.128 190.49 219.339 190.49C238.55 190.49 241.803 198.64 261.014 198.64" stroke="#FFAE00" stroke-width="2.0694" stroke-linecap="round"/>
<path d="M111.575 201.182C130.346 201.182 132.744 176.004 151.514 176.004C170.284 176.004 167.173 156 185.943 156C204.714 156 204.355 184.282 223.125 184.282C241.896 184.282 242.915 198.536 261.686 198.536" stroke="#0097FE" stroke-width="2.0694" stroke-linecap="round"/>
<defs>
<filter id="filter0_d_2418_180626" x="0.138428" y="0" width="391.645" height="420" filterUnits="userSpaceOnUse" color-interpolation-filters="sRGB">
<feFlood flood-opacity="0" result="BackgroundImageFix"/>
<feColorMatrix in="SourceAlpha" type="matrix" values="0 0 0 0 0 0 0 0 0 0 0 0 0 0 0 0 0 0 127 0" result="hardAlpha"/>
<feOffset dx="8" dy="24"/>
<feGaussianBlur stdDeviation="48"/>
<feComposite in2="hardAlpha" operator="out"/>
<feColorMatrix type="matrix" values="0 0 0 0 0.494118 0 0 0 0 0.541176 0 0 0 0 0.992157 0 0 0 0.08 0"/>
<feBlend mode="normal" in2="BackgroundImageFix" result="effect1_dropShadow_2418_180626"/>
<feBlend mode="normal" in="SourceGraphic" in2="effect1_dropShadow_2418_180626" result="shape"/>
</filter>
<filter id="filter1_d_2418_180626" x="95.0969" y="246.465" width="190.677" height="56.2333" filterUnits="userSpaceOnUse" color-interpolation-filters="sRGB">
<feFlood flood-opacity="0" result="BackgroundImageFix"/>
<feColorMatrix in="SourceAlpha" type="matrix" values="0 0 0 0 0 0 0 0 0 0 0 0 0 0 0 0 0 0 127 0" result="hardAlpha"/>
<feOffset dy="4.94357"/>
<feGaussianBlur stdDeviation="8.23929"/>
<feColorMatrix type="matrix" values="0 0 0 0 0.11 0 0 0 0 0.14137 0 0 0 0 0.4125 0 0 0 0.05 0"/>
<feBlend mode="normal" in2="BackgroundImageFix" result="effect1_dropShadow_2418_180626"/>
<feBlend mode="normal" in="SourceGraphic" in2="effect1_dropShadow_2418_180626" result="shape"/>
</filter>
<filter id="filter2_d_2418_180626" x="130.575" y="195" width="209.698" height="66.1857" filterUnits="userSpaceOnUse" color-interpolation-filters="sRGB">
<feFlood flood-opacity="0" result="BackgroundImageFix"/>
<feColorMatrix in="SourceAlpha" type="matrix" values="0 0 0 0 0 0 0 0 0 0 0 0 0 0 0 0 0 0 127 0" result="hardAlpha"/>
<feOffset dy="4"/>
<feGaussianBlur stdDeviation="10"/>
<feColorMatrix type="matrix" values="0 0 0 0 0.14902 0 0 0 0 0.14902 0 0 0 0 0.14902 0 0 0 0.04 0"/>
<feBlend mode="normal" in2="BackgroundImageFix" result="effect1_dropShadow_2418_180626"/>
<feBlend mode="normal" in="SourceGraphic" in2="effect1_dropShadow_2418_180626" result="shape"/>
</filter>
</defs>
</svg>
