<svg width="488" height="560" viewBox="0 0 488 560" fill="none" xmlns="http://www.w3.org/2000/svg">
<g filter="url(#filter0_d_2418_180591)">
<rect x="58.7266" y="42" width="339" height="412" rx="10" fill="white"/>
</g>
<path d="M157.501 88.513C156.033 88.513 154.75 88.1794 153.653 87.512C152.555 86.8446 151.703 85.9177 151.095 84.7312C150.487 83.5299 150.182 82.1358 150.182 80.5489C150.182 78.9472 150.494 77.5383 151.117 76.3222C151.755 75.0912 152.652 74.1347 153.809 73.4524C154.98 72.7554 156.367 72.4069 157.969 72.4069C159.793 72.4069 161.306 72.8444 162.507 73.7194C163.708 74.5944 164.487 75.8031 164.843 77.3455H161.661C161.424 76.6188 160.994 76.0552 160.371 75.6548C159.748 75.2395 158.947 75.0319 157.969 75.0319C156.411 75.0319 155.21 75.5287 154.365 76.5224C153.519 77.5012 153.097 78.8508 153.097 80.5712C153.097 82.2916 153.512 83.6263 154.342 84.5755C155.188 85.5098 156.33 85.977 157.768 85.977C159.177 85.977 160.238 85.5988 160.95 84.8424C161.676 84.0712 162.114 83.0628 162.262 81.817H158.325V79.6814H165.132V88.2461H162.507L162.284 86.1995C161.78 86.941 161.15 87.512 160.393 87.9124C159.637 88.3128 158.673 88.513 157.501 88.513ZM167.388 88.2461V72.2289H170.236V88.2461H167.388ZM177.995 88.513C176.927 88.513 175.963 88.2683 175.103 87.7789C174.258 87.2895 173.583 86.6147 173.079 85.7545C172.589 84.8795 172.345 83.871 172.345 82.7291C172.345 81.5871 172.597 80.586 173.101 79.7258C173.605 78.8508 174.28 78.1686 175.125 77.6792C175.986 77.1898 176.95 76.9451 178.017 76.9451C179.07 76.9451 180.02 77.1898 180.865 77.6792C181.725 78.1686 182.4 78.8508 182.889 79.7258C183.394 80.586 183.646 81.5871 183.646 82.7291C183.646 83.871 183.394 84.8795 182.889 85.7545C182.4 86.6147 181.725 87.2895 180.865 87.7789C180.005 88.2683 179.048 88.513 177.995 88.513ZM177.995 86.0437C178.737 86.0437 179.382 85.7694 179.931 85.2206C180.479 84.6571 180.754 83.8265 180.754 82.7291C180.754 81.6316 180.479 80.8085 179.931 80.2597C179.382 79.6962 178.744 79.4144 178.017 79.4144C177.261 79.4144 176.608 79.6962 176.06 80.2597C175.526 80.8085 175.259 81.6316 175.259 82.7291C175.259 83.8265 175.526 84.6571 176.06 85.2206C176.608 85.7694 177.254 86.0437 177.995 86.0437ZM192.287 88.513C191.456 88.513 190.73 88.3573 190.107 88.0459C189.484 87.7344 188.98 87.2969 188.594 86.7334L188.283 88.2461H185.747V72.2289H188.594V78.7915C188.95 78.3021 189.417 77.872 189.996 77.5012C190.589 77.1305 191.353 76.9451 192.287 76.9451C193.325 76.9451 194.252 77.1972 195.068 77.7014C195.883 78.2057 196.529 78.8953 197.003 79.7703C197.478 80.6453 197.715 81.639 197.715 82.7513C197.715 83.8636 197.478 84.8573 197.003 85.7323C196.529 86.5925 195.883 87.2747 195.068 87.7789C194.252 88.2683 193.325 88.513 192.287 88.513ZM191.686 86.0215C192.591 86.0215 193.34 85.7175 193.933 85.1094C194.526 84.5013 194.823 83.7153 194.823 82.7513C194.823 81.7873 194.526 80.9939 193.933 80.371C193.34 79.7481 192.591 79.4366 191.686 79.4366C190.767 79.4366 190.01 79.7481 189.417 80.371C188.839 80.979 188.55 81.7651 188.55 82.7291C188.55 83.6931 188.839 84.4865 189.417 85.1094C190.01 85.7175 190.767 86.0215 191.686 86.0215ZM203.618 88.513C202.669 88.513 201.89 88.3647 201.282 88.0681C200.674 87.7567 200.222 87.3488 199.925 86.8446C199.628 86.3403 199.48 85.7842 199.48 85.1761C199.48 84.1528 199.881 83.3223 200.681 82.6846C201.482 82.0469 202.684 81.728 204.285 81.728H207.088V81.461C207.088 80.7047 206.873 80.1485 206.443 79.7926C206.013 79.4366 205.479 79.2587 204.841 79.2587C204.263 79.2587 203.759 79.3996 203.329 79.6814C202.899 79.9483 202.632 80.3487 202.528 80.8826H199.747C199.821 80.0818 200.088 79.3847 200.548 78.7915C201.023 78.1983 201.631 77.7459 202.372 77.4345C203.114 77.1082 203.944 76.9451 204.864 76.9451C206.436 76.9451 207.674 77.3381 208.579 78.1241C209.483 78.9102 209.936 80.0225 209.936 81.461V88.2461H207.511L207.244 86.4664C206.918 87.0596 206.458 87.549 205.865 87.9346C205.286 88.3202 204.537 88.513 203.618 88.513ZM204.263 86.2884C205.079 86.2884 205.709 86.0215 206.154 85.4876C206.614 84.9537 206.903 84.2937 207.022 83.5077H204.597C203.84 83.5077 203.299 83.6486 202.973 83.9304C202.647 84.1973 202.483 84.531 202.483 84.9314C202.483 85.3615 202.647 85.6952 202.973 85.9325C203.299 86.1698 203.729 86.2884 204.263 86.2884ZM212.208 88.2461V72.2289H215.056V88.2461H212.208ZM227.76 88.513C226.618 88.513 225.609 88.3202 224.734 87.9346C223.859 87.5342 223.17 86.9707 222.665 86.2439C222.161 85.5024 221.902 84.6052 221.887 83.5522H224.89C224.92 84.2789 225.179 84.8944 225.669 85.3986C226.173 85.888 226.863 86.1327 227.738 86.1327C228.494 86.1327 229.095 85.9547 229.539 85.5988C229.984 85.228 230.207 84.7386 230.207 84.1306C230.207 83.4928 230.007 82.996 229.606 82.6401C229.221 82.2841 228.702 81.9949 228.049 81.7725C227.396 81.55 226.699 81.3127 225.958 81.0606C224.757 80.6453 223.837 80.1114 223.199 79.4589C222.576 78.8063 222.265 77.9387 222.265 76.8561C222.25 75.9366 222.465 75.1506 222.91 74.498C223.37 73.8306 223.993 73.319 224.779 72.963C225.565 72.5923 226.47 72.4069 227.493 72.4069C228.531 72.4069 229.443 72.5923 230.229 72.963C231.03 73.3338 231.653 73.8529 232.098 74.5203C232.558 75.1876 232.802 75.9811 232.832 76.9006H229.784C229.769 76.3519 229.554 75.8699 229.139 75.4546C228.739 75.0245 228.175 74.8095 227.448 74.8095C226.825 74.7946 226.299 74.9503 225.869 75.2766C225.454 75.5881 225.246 76.0478 225.246 76.6559C225.246 77.175 225.409 77.5902 225.735 77.9017C226.062 78.1983 226.507 78.4504 227.07 78.658C227.634 78.8657 228.279 79.0881 229.006 79.3254C229.777 79.5924 230.481 79.9038 231.119 80.2597C231.757 80.6157 232.268 81.0903 232.654 81.6835C233.04 82.2619 233.232 83.0108 233.232 83.9304C233.232 84.746 233.025 85.5024 232.609 86.1995C232.194 86.8965 231.579 87.4601 230.763 87.8902C229.947 88.3054 228.946 88.513 227.76 88.513ZM240.121 88.2461C238.965 88.2461 238.038 87.9643 237.341 87.4007C236.644 86.8372 236.295 85.8361 236.295 84.3975V79.5924H234.404V77.212H236.295L236.629 74.2533H239.143V77.212H242.124V79.5924H239.143V84.4198C239.143 84.9537 239.254 85.3244 239.476 85.5321C239.714 85.7249 240.114 85.8213 240.678 85.8213H242.057V88.2461H240.121ZM247.928 88.513C246.978 88.513 246.2 88.3647 245.592 88.0681C244.984 87.7567 244.531 87.3488 244.235 86.8446C243.938 86.3403 243.79 85.7842 243.79 85.1761C243.79 84.1528 244.19 83.3223 244.991 82.6846C245.792 82.0469 246.993 81.728 248.595 81.728H251.398V81.461C251.398 80.7047 251.183 80.1485 250.753 79.7926C250.323 79.4366 249.789 79.2587 249.151 79.2587C248.573 79.2587 248.068 79.3996 247.638 79.6814C247.208 79.9483 246.941 80.3487 246.838 80.8826H244.057C244.131 80.0818 244.398 79.3847 244.858 78.7915C245.332 78.1983 245.94 77.7459 246.682 77.4345C247.423 77.1082 248.254 76.9451 249.173 76.9451C250.745 76.9451 251.984 77.3381 252.888 78.1241C253.793 78.9102 254.245 80.0225 254.245 81.461V88.2461H251.821L251.554 86.4664C251.227 87.0596 250.768 87.549 250.174 87.9346C249.596 88.3202 248.847 88.513 247.928 88.513ZM248.573 86.2884C249.388 86.2884 250.019 86.0215 250.464 85.4876C250.923 84.9537 251.213 84.2937 251.331 83.5077H248.906C248.15 83.5077 247.609 83.6486 247.282 83.9304C246.956 84.1973 246.793 84.531 246.793 84.9314C246.793 85.3615 246.956 85.6952 247.282 85.9325C247.609 86.1698 248.039 86.2884 248.573 86.2884ZM261.282 88.2461C260.125 88.2461 259.198 87.9643 258.501 87.4007C257.804 86.8372 257.456 85.8361 257.456 84.3975V79.5924H255.565V77.212H257.456L257.79 74.2533H260.303V77.212H263.284V79.5924H260.303V84.4198C260.303 84.9537 260.415 85.3244 260.637 85.5321C260.874 85.7249 261.275 85.8213 261.838 85.8213H263.218V88.2461H261.282ZM266.819 75.4991C266.3 75.4991 265.87 75.3434 265.529 75.0319C265.203 74.7205 265.04 74.3275 265.04 73.8529C265.04 73.3783 265.203 72.9927 265.529 72.6961C265.87 72.3846 266.3 72.2289 266.819 72.2289C267.338 72.2289 267.761 72.3846 268.087 72.6961C268.428 72.9927 268.599 73.3783 268.599 73.8529C268.599 74.3275 268.428 74.7205 268.087 75.0319C267.761 75.3434 267.338 75.4991 266.819 75.4991ZM265.395 88.2461V77.212H268.243V88.2461H265.395ZM275.331 88.513C274.352 88.513 273.492 88.3573 272.75 88.0459C272.009 87.7196 271.415 87.2747 270.97 86.7111C270.525 86.1475 270.258 85.495 270.17 84.7535H273.039C273.128 85.1835 273.366 85.5543 273.751 85.8658C274.152 86.1624 274.663 86.3107 275.286 86.3107C275.909 86.3107 276.361 86.1846 276.643 85.9325C276.94 85.6804 277.088 85.3912 277.088 85.0649C277.088 84.5903 276.88 84.2715 276.465 84.1083C276.05 83.9304 275.471 83.7598 274.73 83.5967C274.255 83.4928 273.773 83.3668 273.284 83.2185C272.795 83.0702 272.342 82.8848 271.927 82.6623C271.527 82.425 271.2 82.1284 270.948 81.7725C270.696 81.4017 270.57 80.9494 270.57 80.4155C270.57 79.4366 270.956 78.6135 271.727 77.9462C272.513 77.2788 273.61 76.9451 275.019 76.9451C276.324 76.9451 277.362 77.2491 278.134 77.8572C278.92 78.4652 279.387 79.3032 279.535 80.371H276.843C276.68 79.5553 276.065 79.1474 274.997 79.1474C274.463 79.1474 274.048 79.2513 273.751 79.4589C273.469 79.6665 273.328 79.9261 273.328 80.2375C273.328 80.5638 273.543 80.8233 273.974 81.0161C274.404 81.2089 274.975 81.3869 275.687 81.55C276.458 81.728 277.162 81.9282 277.8 82.1507C278.452 82.3583 278.972 82.6772 279.357 83.1072C279.743 83.5225 279.936 84.1232 279.936 84.9092C279.95 85.5914 279.772 86.2069 279.402 86.7556C279.031 87.3043 278.497 87.7344 277.8 88.0459C277.103 88.3573 276.28 88.513 275.331 88.513ZM286.582 88.2461C285.425 88.2461 284.498 87.9643 283.801 87.4007C283.104 86.8372 282.756 85.8361 282.756 84.3975V79.5924H280.865V77.212H282.756L283.089 74.2533H285.603V77.212H288.584V79.5924H285.603V84.4198C285.603 84.9537 285.714 85.3244 285.937 85.5321C286.174 85.7249 286.574 85.8213 287.138 85.8213H288.517V88.2461H286.582ZM292.119 75.4991C291.6 75.4991 291.17 75.3434 290.829 75.0319C290.502 74.7205 290.339 74.3275 290.339 73.8529C290.339 73.3783 290.502 72.9927 290.829 72.6961C291.17 72.3846 291.6 72.2289 292.119 72.2289C292.638 72.2289 293.061 72.3846 293.387 72.6961C293.728 72.9927 293.899 73.3783 293.899 73.8529C293.899 74.3275 293.728 74.7205 293.387 75.0319C293.061 75.3434 292.638 75.4991 292.119 75.4991ZM290.695 88.2461V77.212H293.543V88.2461H290.695ZM301.476 88.513C300.349 88.513 299.355 88.2683 298.495 87.7789C297.635 87.2895 296.952 86.6073 296.448 85.7323C295.959 84.8573 295.714 83.8562 295.714 82.7291C295.714 81.6019 295.959 80.6009 296.448 79.7258C296.952 78.8508 297.635 78.1686 298.495 77.6792C299.355 77.1898 300.349 76.9451 301.476 76.9451C302.885 76.9451 304.071 77.3158 305.035 78.0574C305.999 78.7841 306.615 79.7926 306.881 81.0829H303.878C303.73 80.5489 303.433 80.1337 302.988 79.8371C302.558 79.5256 302.047 79.3699 301.453 79.3699C300.667 79.3699 300 79.6665 299.451 80.2597C298.903 80.853 298.628 81.6761 298.628 82.7291C298.628 83.782 298.903 84.6052 299.451 85.1984C300 85.7916 300.667 86.0882 301.453 86.0882C302.047 86.0882 302.558 85.9399 302.988 85.6433C303.433 85.3467 303.73 84.924 303.878 84.3753H306.881C306.615 85.6211 305.999 86.6221 305.035 87.3785C304.071 88.1349 302.885 88.513 301.476 88.513Z" fill="#03133D"/>
<path d="M228.572 346.696C213.657 346.696 198.889 343.758 185.11 338.051C171.331 332.343 158.811 323.978 148.265 313.432C137.719 302.886 129.354 290.366 123.646 276.587C117.939 262.808 115.001 248.04 115.001 233.125C115.001 218.211 117.939 203.443 123.646 189.664C129.354 175.885 137.719 163.365 148.265 152.819C158.811 142.273 171.331 133.908 185.11 128.201C198.889 122.493 213.657 119.555 228.572 119.555C243.486 119.555 258.254 122.493 272.033 128.201C285.812 133.908 298.332 142.273 308.878 152.819C319.424 163.365 327.791 175.885 333.496 189.664C339.205 203.443 342.143 218.211 342.143 233.125C342.143 248.04 339.205 262.808 333.496 276.587C327.787 290.366 319.424 302.886 308.878 313.432C298.332 323.978 285.812 332.343 272.033 338.051C258.254 343.758 243.486 346.696 228.572 346.696Z" stroke="#F0F3FF" stroke-width="7.41536" stroke-linecap="round"/>
<path d="M228.572 346.696C211.748 346.696 195.135 342.958 179.933 335.753C164.73 328.548 151.318 318.056 140.666 305.034C130.014 292.012 122.388 276.787 118.34 260.458C114.291 244.129 113.92 227.105 117.255 210.615C120.589 194.126 127.545 178.583 137.621 165.11C147.696 151.637 160.639 140.571 175.513 132.711C190.388 124.852 206.823 120.395 223.63 119.663C240.438 118.931 257.198 121.942 272.699 128.479" stroke="#0097FE" stroke-width="7.41536" stroke-linecap="round"/>
<path d="M228.24 320.026C216.747 320.026 205.367 317.762 194.75 313.364C184.132 308.966 174.485 302.52 166.358 294.394C158.232 286.267 151.786 276.62 147.388 266.002C142.991 255.385 140.727 244.005 140.727 232.513C140.727 221.021 142.991 209.64 147.388 199.023C151.786 188.405 158.232 178.758 166.358 170.632C174.485 162.506 184.132 156.059 194.75 151.661C205.367 147.264 216.747 145 228.24 145C239.732 145 251.112 147.264 261.729 151.661C272.347 156.059 281.994 162.506 290.12 170.632C298.247 178.758 304.693 188.405 309.09 199.023C313.488 209.641 315.751 221.02 315.751 232.513C315.751 244.005 313.488 255.385 309.09 266.002C304.693 276.62 298.247 286.267 290.12 294.394C281.994 302.52 272.347 308.966 261.729 313.364C251.112 317.762 239.732 320.026 228.24 320.026Z" stroke="#F0F3FF" stroke-width="7.41536" stroke-linecap="round"/>
<path d="M228.24 320.026C213.465 320.026 198.931 316.285 185.992 309.152C173.053 302.02 162.13 291.727 154.243 279.234C146.354 266.741 141.758 252.455 140.881 237.707C140.004 222.958 142.876 208.228 149.228 194.888C155.58 181.548 165.206 170.035 177.209 161.419C189.211 152.804 203.2 147.367 217.87 145.617C232.541 143.866 247.416 145.858 261.109 151.407C274.801 156.956 286.867 165.882 296.179 177.352" stroke="#AC5FE6" stroke-width="7.41536" stroke-linecap="round"/>
<path d="M229.017 297.581C220.574 297.581 212.214 295.918 204.414 292.687C196.614 289.456 189.527 284.72 183.557 278.751C177.587 272.781 172.851 265.694 169.62 257.893C166.39 250.093 164.727 241.733 164.727 233.29C164.727 224.848 166.39 216.488 169.62 208.688C172.851 200.888 177.587 193.8 183.557 187.83C189.527 181.86 196.614 177.125 204.414 173.894C212.214 170.663 220.574 169 229.017 169C237.46 169 245.82 170.663 253.62 173.894C261.42 177.125 268.507 181.86 274.477 187.83C280.447 193.8 285.183 200.888 288.414 208.688C291.645 216.488 293.308 224.848 293.308 233.29C293.308 241.733 291.645 250.093 288.414 257.893C285.183 265.694 280.447 272.781 274.477 278.751C268.507 284.72 261.42 289.456 253.62 292.687C245.82 295.918 237.46 297.581 229.017 297.581Z" stroke="#EDF1FC" stroke-width="7.41536" stroke-linecap="round"/>
<path d="M229.017 297.581C214.813 297.581 201.008 292.877 189.759 284.203C178.511 275.53 170.451 263.375 166.839 249.638C163.228 235.9 164.267 221.353 169.796 208.269C175.324 195.184 185.03 184.299 197.398 177.313C209.765 170.327 224.098 167.634 238.158 169.653C252.218 171.673 265.214 178.292 275.115 188.477C285.016 198.662 291.265 211.839 292.887 225.951C294.509 240.062 291.411 254.314 284.079 266.479" stroke="#FFAE00" stroke-width="7.41536" stroke-linecap="round"/>
<path d="M228.541 227.053C236.84 227.053 243.567 220.326 243.567 212.027C243.567 203.728 236.84 197 228.541 197C220.242 197 213.514 203.728 213.514 212.027C213.514 220.326 220.242 227.053 228.541 227.053Z" fill="#EBF7FF"/>
<path fill-rule="evenodd" clip-rule="evenodd" d="M235.006 208.092C235.005 208.039 234.989 207.988 234.975 207.937C234.964 207.894 234.959 207.85 234.94 207.811C234.923 207.773 234.894 207.741 234.869 207.706C234.838 207.661 234.81 207.615 234.77 207.578C234.763 207.572 234.76 207.563 234.753 207.557C234.726 207.534 234.694 207.526 234.665 207.507C234.62 207.478 234.576 207.449 234.526 207.429C234.476 207.412 234.427 207.407 234.376 207.4C234.341 207.394 234.309 207.378 234.271 207.378H230.564C230.155 207.378 229.823 207.71 229.823 208.119C229.823 208.529 230.155 208.861 230.564 208.861H232.659L229.668 212.351L226.498 210.449C226.184 210.26 225.781 210.329 225.547 210.61L221.84 215.058C221.578 215.372 221.621 215.84 221.935 216.102C222.074 216.217 222.242 216.274 222.409 216.274C222.622 216.274 222.833 216.183 222.979 216.007L226.28 212.047L229.441 213.945C229.752 214.131 230.151 214.065 230.386 213.791L233.53 210.123V211.826C233.53 212.235 233.861 212.567 234.271 212.567C234.681 212.567 235.012 212.235 235.012 211.826V208.119C235.012 208.11 235.007 208.102 235.006 208.092Z" fill="#231F20"/>
<mask id="mask0_2418_180591" style="mask-type:alpha" maskUnits="userSpaceOnUse" x="221" y="207" width="15" height="10">
<path fill-rule="evenodd" clip-rule="evenodd" d="M235.006 208.092C235.005 208.039 234.989 207.988 234.975 207.937C234.964 207.894 234.959 207.85 234.94 207.811C234.923 207.773 234.894 207.741 234.869 207.706C234.838 207.661 234.81 207.615 234.77 207.578C234.763 207.572 234.76 207.563 234.753 207.557C234.726 207.534 234.694 207.526 234.665 207.507C234.62 207.478 234.576 207.449 234.526 207.429C234.476 207.412 234.427 207.407 234.376 207.4C234.341 207.394 234.309 207.378 234.271 207.378H230.564C230.155 207.378 229.823 207.71 229.823 208.119C229.823 208.529 230.155 208.861 230.564 208.861H232.659L229.668 212.351L226.498 210.449C226.184 210.26 225.781 210.329 225.547 210.61L221.84 215.058C221.578 215.372 221.621 215.84 221.935 216.102C222.074 216.217 222.242 216.274 222.409 216.274C222.622 216.274 222.833 216.183 222.979 216.007L226.28 212.047L229.441 213.945C229.752 214.131 230.151 214.065 230.386 213.791L233.53 210.123V211.826C233.53 212.235 233.861 212.567 234.271 212.567C234.681 212.567 235.012 212.235 235.012 211.826V208.119C235.012 208.11 235.007 208.102 235.006 208.092Z" fill="white"/>
</mask>
<g mask="url(#mask0_2418_180591)">
<rect x="219.445" y="202.93" width="17.7913" height="17.7913" fill="#0097FE"/>
</g>
<path d="M202.309 241.452V235.839H200.45V235.225H204.915V235.839H203.056V241.452H202.309ZM205.102 241.452V237.04H205.778L205.84 237.885C205.976 237.594 206.184 237.363 206.463 237.191C206.741 237.019 207.085 236.933 207.495 236.933V237.716H207.29C207.029 237.716 206.789 237.763 206.569 237.858C206.35 237.947 206.175 238.101 206.045 238.321C205.914 238.54 205.849 238.842 205.849 239.228V241.452H205.102ZM209.623 241.559C209.255 241.559 208.95 241.496 208.707 241.372C208.464 241.247 208.283 241.081 208.164 240.874C208.046 240.666 207.986 240.441 207.986 240.197C207.986 239.747 208.158 239.4 208.502 239.157C208.846 238.914 209.315 238.792 209.908 238.792H211.1V238.739C211.1 238.353 210.999 238.063 210.797 237.867C210.596 237.665 210.326 237.564 209.988 237.564C209.697 237.564 209.445 237.639 209.232 237.787C209.024 237.929 208.894 238.14 208.84 238.418H208.075C208.105 238.098 208.212 237.828 208.395 237.609C208.585 237.389 208.819 237.223 209.098 237.111C209.377 236.992 209.673 236.933 209.988 236.933C210.605 236.933 211.067 237.099 211.376 237.431C211.69 237.757 211.847 238.193 211.847 238.739V241.452H211.18L211.135 240.66C211.011 240.909 210.827 241.123 210.584 241.301C210.347 241.473 210.026 241.559 209.623 241.559ZM209.739 240.927C210.023 240.927 210.267 240.853 210.468 240.705C210.676 240.556 210.833 240.364 210.94 240.126C211.046 239.889 211.1 239.64 211.1 239.379V239.37H209.97C209.531 239.37 209.22 239.447 209.036 239.601C208.858 239.75 208.769 239.937 208.769 240.162C208.769 240.393 208.852 240.58 209.018 240.722C209.19 240.859 209.43 240.927 209.739 240.927ZM213.03 241.452V237.671H212.363V237.04H213.03V236.275C213.03 235.848 213.137 235.536 213.35 235.34C213.564 235.145 213.875 235.047 214.285 235.047H214.729V235.687H214.4C214.175 235.687 214.015 235.735 213.92 235.83C213.825 235.919 213.777 236.073 213.777 236.292V237.04H214.863V237.671H213.777V241.452H213.03ZM215.815 241.452V237.671H215.147V237.04H215.815V236.275C215.815 235.848 215.921 235.536 216.135 235.34C216.348 235.145 216.66 235.047 217.069 235.047H217.514V235.687H217.185C216.959 235.687 216.799 235.735 216.704 235.83C216.609 235.919 216.562 236.073 216.562 236.292V237.04H219.302V241.452H218.555V237.671H216.562V241.452H215.815ZM218.937 236.194C218.795 236.194 218.673 236.147 218.572 236.052C218.471 235.951 218.421 235.827 218.421 235.679C218.421 235.536 218.471 235.418 218.572 235.323C218.673 235.228 218.795 235.18 218.937 235.18C219.085 235.18 219.207 235.228 219.302 235.323C219.403 235.418 219.453 235.536 219.453 235.679C219.453 235.827 219.403 235.951 219.302 236.052C219.207 236.147 219.085 236.194 218.937 236.194ZM222.472 241.559C222.051 241.559 221.671 241.464 221.333 241.274C221.001 241.078 220.737 240.808 220.542 240.464C220.352 240.114 220.257 239.708 220.257 239.246C220.257 238.783 220.352 238.38 220.542 238.036C220.737 237.686 221.001 237.416 221.333 237.226C221.671 237.031 222.051 236.933 222.472 236.933C222.994 236.933 223.433 237.069 223.789 237.342C224.15 237.615 224.379 237.98 224.474 238.436H223.709C223.649 238.163 223.504 237.953 223.273 237.805C223.041 237.65 222.771 237.573 222.463 237.573C222.214 237.573 221.98 237.636 221.76 237.76C221.541 237.885 221.363 238.071 221.227 238.321C221.09 238.57 221.022 238.878 221.022 239.246C221.022 239.613 221.09 239.922 221.227 240.171C221.363 240.42 221.541 240.61 221.76 240.74C221.98 240.865 222.214 240.927 222.463 240.927C222.771 240.927 223.041 240.853 223.273 240.705C223.504 240.55 223.649 240.334 223.709 240.055H224.474C224.385 240.5 224.159 240.862 223.797 241.14C223.436 241.419 222.994 241.559 222.472 241.559ZM230.238 241.559C229.656 241.559 229.146 241.425 228.708 241.158C228.269 240.885 227.928 240.509 227.685 240.028C227.441 239.542 227.32 238.982 227.32 238.347C227.32 237.713 227.441 237.152 227.685 236.666C227.934 236.18 228.283 235.8 228.734 235.527C229.191 235.254 229.728 235.118 230.344 235.118C231.044 235.118 231.625 235.287 232.088 235.625C232.556 235.963 232.859 236.429 232.995 237.022H232.132C232.049 236.648 231.851 236.352 231.536 236.132C231.228 235.913 230.831 235.803 230.344 235.803C229.888 235.803 229.49 235.907 229.152 236.114C228.814 236.316 228.55 236.607 228.361 236.986C228.177 237.366 228.085 237.819 228.085 238.347C228.085 238.875 228.177 239.329 228.361 239.708C228.544 240.088 228.799 240.381 229.126 240.589C229.452 240.791 229.831 240.891 230.264 240.891C230.928 240.891 231.43 240.699 231.768 240.313C232.106 239.922 232.298 239.388 232.346 238.712H230.549V238.125H233.111V241.452H232.426L232.364 240.429C232.138 240.791 231.863 241.069 231.536 241.265C231.21 241.461 230.777 241.559 230.238 241.559ZM234.07 241.452V237.04H234.746L234.808 237.885C234.945 237.594 235.152 237.363 235.431 237.191C235.71 237.019 236.054 236.933 236.463 236.933V237.716H236.258C235.998 237.716 235.757 237.763 235.538 237.858C235.318 237.947 235.144 238.101 235.013 238.321C234.883 238.54 234.817 238.842 234.817 239.228V241.452H234.07ZM238.969 241.559C238.554 241.559 238.18 241.464 237.848 241.274C237.516 241.084 237.252 240.817 237.057 240.473C236.867 240.123 236.772 239.714 236.772 239.246C236.772 238.777 236.87 238.371 237.066 238.027C237.261 237.677 237.525 237.407 237.857 237.217C238.195 237.028 238.572 236.933 238.987 236.933C239.402 236.933 239.776 237.028 240.108 237.217C240.44 237.407 240.701 237.677 240.891 238.027C241.086 238.371 241.184 238.777 241.184 239.246C241.184 239.714 241.086 240.123 240.891 240.473C240.695 240.817 240.428 241.084 240.09 241.274C239.758 241.464 239.384 241.559 238.969 241.559ZM238.969 240.918C239.224 240.918 239.461 240.856 239.681 240.731C239.9 240.607 240.078 240.42 240.215 240.171C240.351 239.922 240.419 239.613 240.419 239.246C240.419 238.878 240.351 238.57 240.215 238.321C240.084 238.071 239.909 237.885 239.69 237.76C239.47 237.636 239.236 237.573 238.987 237.573C238.732 237.573 238.495 237.636 238.275 237.76C238.056 237.885 237.878 238.071 237.742 238.321C237.605 238.57 237.537 238.878 237.537 239.246C237.537 239.613 237.605 239.922 237.742 240.171C237.878 240.42 238.053 240.607 238.266 240.731C238.486 240.856 238.72 240.918 238.969 240.918ZM242.77 241.452L241.48 237.04H242.227L243.161 240.5L244.193 237.04H245.038L246.079 240.5L247.004 237.04H247.76L246.47 241.452H245.705L244.62 237.813L243.535 241.452H242.77ZM250.152 241.452C249.749 241.452 249.432 241.354 249.201 241.158C248.969 240.963 248.854 240.61 248.854 240.1V237.671H248.089V237.04H248.854L248.951 235.981H249.601V237.04H250.9V237.671H249.601V240.1C249.601 240.378 249.657 240.568 249.77 240.669C249.883 240.764 250.081 240.811 250.366 240.811H250.828V241.452H250.152ZM251.671 241.452V235.047H252.418V237.796C252.567 237.523 252.777 237.312 253.05 237.164C253.323 237.01 253.619 236.933 253.939 236.933C254.449 236.933 254.859 237.093 255.167 237.413C255.475 237.727 255.63 238.214 255.63 238.872V241.452H254.891V238.952C254.891 238.033 254.521 237.573 253.779 237.573C253.394 237.573 253.071 237.713 252.81 237.991C252.549 238.264 252.418 238.656 252.418 239.166V241.452H251.671Z" fill="#03133D"/>
<path d="M209.954 269.883C208.587 269.883 207.437 269.632 206.503 269.13C205.569 268.629 204.816 267.954 204.246 267.107C203.675 266.259 203.26 265.316 203 264.278C202.758 263.241 202.637 262.177 202.637 261.087C202.637 259.063 202.922 257.308 203.493 255.82C204.064 254.315 204.886 253.156 205.958 252.343C207.03 251.513 208.328 251.098 209.85 251.098C211.095 251.098 212.15 251.349 213.015 251.851C213.897 252.335 214.581 252.975 215.065 253.771C215.549 254.566 215.835 255.422 215.921 256.339H212.834C212.678 255.543 212.341 254.929 211.822 254.497C211.303 254.065 210.637 253.848 209.824 253.848C208.665 253.848 207.731 254.385 207.022 255.457C206.313 256.512 205.932 258.129 205.88 260.309C206.295 259.6 206.918 259.012 207.748 258.545C208.579 258.077 209.504 257.844 210.524 257.844C211.528 257.844 212.47 258.086 213.353 258.57C214.235 259.055 214.944 259.738 215.48 260.62C216.034 261.502 216.31 262.54 216.31 263.734C216.31 264.823 216.042 265.835 215.506 266.769C214.987 267.703 214.243 268.456 213.275 269.027C212.323 269.597 211.216 269.883 209.954 269.883ZM209.772 267.029C210.741 267.029 211.536 266.735 212.159 266.147C212.799 265.541 213.119 264.78 213.119 263.863C213.119 262.895 212.799 262.116 212.159 261.528C211.519 260.94 210.706 260.646 209.72 260.646C209.08 260.646 208.501 260.793 207.982 261.087C207.48 261.364 207.082 261.744 206.788 262.229C206.494 262.696 206.347 263.223 206.347 263.811C206.347 264.746 206.667 265.515 207.307 266.121C207.965 266.726 208.786 267.029 209.772 267.029ZM225.464 269.883C224.218 269.883 223.094 269.667 222.091 269.234C221.088 268.784 220.283 268.153 219.678 267.34C219.09 266.527 218.796 265.584 218.796 264.512C218.796 263.405 219.081 262.436 219.652 261.606C220.24 260.776 221.01 260.179 221.961 259.816C221.131 259.453 220.474 258.934 219.989 258.259C219.505 257.567 219.263 256.797 219.263 255.95C219.263 255.085 219.496 254.289 219.963 253.563C220.43 252.819 221.122 252.222 222.039 251.773C222.973 251.323 224.115 251.098 225.464 251.098C226.813 251.098 227.946 251.323 228.863 251.773C229.779 252.222 230.471 252.819 230.938 253.563C231.405 254.289 231.639 255.085 231.639 255.95C231.639 256.78 231.388 257.55 230.886 258.259C230.402 258.951 229.753 259.47 228.94 259.816C229.909 260.179 230.679 260.776 231.25 261.606C231.82 262.436 232.106 263.405 232.106 264.512C232.106 265.584 231.812 266.527 231.224 267.34C230.636 268.153 229.831 268.784 228.811 269.234C227.807 269.667 226.692 269.883 225.464 269.883ZM225.464 258.83C226.363 258.83 227.072 258.596 227.591 258.129C228.11 257.662 228.37 257.066 228.37 256.339C228.37 255.543 228.11 254.921 227.591 254.471C227.09 254.021 226.38 253.796 225.464 253.796C224.53 253.796 223.812 254.021 223.31 254.471C222.809 254.921 222.558 255.543 222.558 256.339C222.558 257.083 222.809 257.688 223.31 258.155C223.829 258.605 224.547 258.83 225.464 258.83ZM225.464 267.107C226.571 267.107 227.41 266.838 227.98 266.302C228.551 265.749 228.837 265.057 228.837 264.227C228.837 263.31 228.534 262.592 227.929 262.073C227.34 261.554 226.519 261.295 225.464 261.295C224.409 261.295 223.57 261.554 222.947 262.073C222.342 262.592 222.039 263.31 222.039 264.227C222.039 265.057 222.324 265.749 222.895 266.302C223.483 266.838 224.339 267.107 225.464 267.107ZM238.59 260.335C237.76 260.335 237.007 260.153 236.333 259.79C235.658 259.409 235.122 258.873 234.724 258.181C234.326 257.489 234.127 256.668 234.127 255.716C234.127 254.765 234.326 253.943 234.724 253.252C235.122 252.56 235.658 252.032 236.333 251.669C237.007 251.288 237.768 251.098 238.616 251.098C239.446 251.098 240.19 251.288 240.847 251.669C241.522 252.032 242.058 252.56 242.456 253.252C242.854 253.943 243.052 254.765 243.052 255.716C243.052 256.668 242.854 257.489 242.456 258.181C242.058 258.873 241.522 259.409 240.847 259.79C240.172 260.153 239.42 260.335 238.59 260.335ZM237.604 269.571L247.852 251.409H251.096L240.847 269.571H237.604ZM238.59 258.026C239.091 258.026 239.524 257.835 239.887 257.455C240.25 257.057 240.432 256.478 240.432 255.716C240.432 254.955 240.25 254.376 239.887 253.978C239.541 253.58 239.109 253.381 238.59 253.381C238.071 253.381 237.63 253.58 237.267 253.978C236.921 254.376 236.748 254.955 236.748 255.716C236.748 256.478 236.921 257.057 237.267 257.455C237.63 257.835 238.071 258.026 238.59 258.026ZM250.213 269.883C249.383 269.883 248.631 269.701 247.956 269.338C247.282 268.957 246.745 268.421 246.348 267.729C245.95 267.037 245.751 266.216 245.751 265.264C245.751 264.313 245.95 263.5 246.348 262.826C246.745 262.134 247.282 261.606 247.956 261.243C248.631 260.862 249.392 260.672 250.239 260.672C251.07 260.672 251.813 260.862 252.471 261.243C253.145 261.606 253.682 262.134 254.079 262.826C254.477 263.5 254.676 264.313 254.676 265.264C254.676 266.216 254.477 267.037 254.079 267.729C253.682 268.421 253.145 268.957 252.471 269.338C251.813 269.701 251.061 269.883 250.213 269.883ZM250.213 267.574C250.732 267.574 251.165 267.383 251.511 267.003C251.874 266.605 252.056 266.026 252.056 265.264C252.056 264.503 251.874 263.924 251.511 263.526C251.165 263.128 250.732 262.929 250.213 262.929C249.695 262.929 249.253 263.128 248.89 263.526C248.544 263.924 248.371 264.503 248.371 265.264C248.371 266.026 248.544 266.605 248.89 267.003C249.253 267.383 249.695 267.574 250.213 267.574Z" fill="#03133D"/>
<g filter="url(#filter1_d_2418_180591)">
<rect x="81.572" y="369" width="140" height="62.0189" rx="8" fill="white"/>
</g>
<rect x="92.572" y="380.491" width="55.782" height="6" rx="3" fill="#C4D2F6"/>
<rect x="91.572" y="399.07" width="117" height="6" rx="3" fill="#EDF1FC"/>
<rect x="92.572" y="415.769" width="117" height="6" rx="3" fill="#EDF1FC"/>
<g filter="url(#filter2_d_2418_180591)">
<rect x="235.572" y="369" width="140" height="62.0189" rx="8" fill="white"/>
</g>
<rect x="246.572" y="380.491" width="55.782" height="6" rx="3" fill="#C4D2F6"/>
<rect x="245.572" y="399.07" width="117" height="6" rx="3" fill="#EDF1FC"/>
<rect x="246.572" y="415.769" width="117" height="6" rx="3" fill="#EDF1FC"/>
<defs>
<filter id="filter0_d_2418_180591" x="0.726562" y="0" width="487" height="560" filterUnits="userSpaceOnUse" color-interpolation-filters="sRGB">
<feFlood flood-opacity="0" result="BackgroundImageFix"/>
<feColorMatrix in="SourceAlpha" type="matrix" values="0 0 0 0 0 0 0 0 0 0 0 0 0 0 0 0 0 0 127 0" result="hardAlpha"/>
<feOffset dx="16" dy="32"/>
<feGaussianBlur stdDeviation="37"/>
<feComposite in2="hardAlpha" operator="out"/>
<feColorMatrix type="matrix" values="0 0 0 0 0.495833 0 0 0 0 0.542422 0 0 0 0 0.991667 0 0 0 0.08 0"/>
<feBlend mode="normal" in2="BackgroundImageFix" result="effect1_dropShadow_2418_180591"/>
<feBlend mode="normal" in="SourceGraphic" in2="effect1_dropShadow_2418_180591" result="shape"/>
</filter>
<filter id="filter1_d_2418_180591" x="65.0934" y="357.465" width="172.957" height="94.9761" filterUnits="userSpaceOnUse" color-interpolation-filters="sRGB">
<feFlood flood-opacity="0" result="BackgroundImageFix"/>
<feColorMatrix in="SourceAlpha" type="matrix" values="0 0 0 0 0 0 0 0 0 0 0 0 0 0 0 0 0 0 127 0" result="hardAlpha"/>
<feOffset dy="4.94357"/>
<feGaussianBlur stdDeviation="8.23929"/>
<feColorMatrix type="matrix" values="0 0 0 0 0.11 0 0 0 0 0.14137 0 0 0 0 0.4125 0 0 0 0.05 0"/>
<feBlend mode="normal" in2="BackgroundImageFix" result="effect1_dropShadow_2418_180591"/>
<feBlend mode="normal" in="SourceGraphic" in2="effect1_dropShadow_2418_180591" result="shape"/>
</filter>
<filter id="filter2_d_2418_180591" x="219.093" y="357.465" width="172.957" height="94.9761" filterUnits="userSpaceOnUse" color-interpolation-filters="sRGB">
<feFlood flood-opacity="0" result="BackgroundImageFix"/>
<feColorMatrix in="SourceAlpha" type="matrix" values="0 0 0 0 0 0 0 0 0 0 0 0 0 0 0 0 0 0 127 0" result="hardAlpha"/>
<feOffset dy="4.94357"/>
<feGaussianBlur stdDeviation="8.23929"/>
<feColorMatrix type="matrix" values="0 0 0 0 0.11 0 0 0 0 0.14137 0 0 0 0 0.4125 0 0 0 0.05 0"/>
<feBlend mode="normal" in2="BackgroundImageFix" result="effect1_dropShadow_2418_180591"/>
<feBlend mode="normal" in="SourceGraphic" in2="effect1_dropShadow_2418_180591" result="shape"/>
</filter>
</defs>
</svg>
