<svg width="41" height="40" viewBox="0 0 41 40" fill="none" xmlns="http://www.w3.org/2000/svg">
<path d="M40.4997 19.9965C40.4986 19.676 40.3624 19.3771 40.1564 19.1711L21.3289 0.343671C21.1157 0.130312 20.8187 0 20.5 0C20.1937 0 19.8935 0.120937 19.671 0.343671L0.843437 19.1712C0.626953 19.3876 0.5 19.6922 0.5 20C0.5 20.3002 0.621406 20.607 0.843437 20.8289L19.6709 39.6563C19.8961 39.8817 20.2049 40 20.4999 40C20.7965 40 21.1042 39.8812 21.3289 39.6563L40.1564 20.8289C40.3744 20.611 40.4997 20.3133 40.4997 19.9965ZM20.5 27.1489L13.3511 20L20.5 12.851L27.6488 20L20.5 27.1489ZM19.3281 10.7084L11.2083 18.8282H4.50101L19.3281 4.00101V10.7084ZM11.2083 21.1719L19.3281 29.2917V35.999L4.50101 21.1719H11.2083ZM21.6718 29.2917L29.7916 21.1719H36.4989L21.6718 35.999V29.2917ZM29.7915 18.8282L21.6718 10.7084V4.00101L36.4989 18.8281H29.7915V18.8282Z" fill="#006FBA"/>
</svg>
