<svg width="41" height="40" viewBox="0 0 41 40" fill="none" xmlns="http://www.w3.org/2000/svg">
<g clip-path="url(#clip0_1558_5669)">
<path d="M40.5 12.9688C40.5 12.7263 40.4194 12.4685 40.2619 12.2606L33.1525 2.88563C32.9327 2.59617 32.5813 2.42188 32.2188 2.42188H8.78125C8.42297 2.42188 8.0693 2.59313 7.8475 2.88563L0.738125 12.2606C0.580781 12.4684 0.5 12.7189 0.5 12.9688C0.5 13.2379 0.597109 13.502 0.758281 13.7027L19.5864 37.1402C19.8134 37.4218 20.1543 37.5781 20.5 37.5781C20.8495 37.5781 21.1897 37.418 21.4136 37.1402L40.2418 13.7027C40.4033 13.5017 40.5 13.236 40.5 12.9688ZM8.57602 5.80375L11.5726 11.7969H4.03125L8.57602 5.80375ZM25.9562 14.1406L20.5 32.328L15.0438 14.1406H25.9562ZM15.8125 11.7969L20.5 5.54688L25.1875 11.7969H15.8125ZM22.8438 4.76562H30.3227L27.3311 10.7487L22.8438 4.76562ZM13.6689 10.7487L10.6774 4.76562H18.1562L13.6689 10.7487ZM12.5969 14.1406L17.6514 30.9891L4.11648 14.1406H12.5969ZM28.4032 14.1406H36.8836L23.3487 30.9891L28.4032 14.1406ZM29.4274 11.7969L32.424 5.80375L36.9688 11.7969H29.4274Z" fill="#006FBA"/>
</g>
<defs>
<clipPath id="clip0_1558_5669">
<rect width="40" height="40" fill="white" transform="translate(0.5)"/>
</clipPath>
</defs>
</svg>
