<svg width="145" height="130" viewBox="0 0 145 130" fill="none" xmlns="http://www.w3.org/2000/svg">
<path d="M0 0H145V130L0 0Z" fill="url(#paint0_linear_1677_6187)"/>
<path d="M91.7507 29.6684L98.0923 35.2484L103.742 28.2917C103.901 28.0972 104.101 27.941 104.328 27.8345C104.555 27.7281 104.803 27.6742 105.053 27.6769C105.304 27.6796 105.551 27.7389 105.775 27.8502C106 27.9616 106.197 28.1222 106.351 28.3201L111.742 35.2467L118.289 29.5867C118.546 29.3649 118.865 29.2269 119.202 29.1912C119.54 29.1555 119.881 29.2238 120.178 29.3869C120.476 29.55 120.717 29.8002 120.869 30.104C121.021 30.4078 121.076 30.7507 121.027 31.0867L118.527 48.3317H91.539L89.0007 31.1651C88.9502 30.8271 89.0049 30.4818 89.1573 30.176C89.3096 29.8702 89.5523 29.6185 89.8524 29.4552C90.1525 29.2919 90.4955 29.2247 90.8351 29.2629C91.1746 29.301 91.4943 29.4426 91.7507 29.6684ZM91.669 49.9984H118.336V51.6651C118.336 52.1071 118.16 52.531 117.848 52.8436C117.535 53.1561 117.111 53.3317 116.669 53.3317H93.3357C92.8936 53.3317 92.4697 53.1561 92.1572 52.8436C91.8446 52.531 91.669 52.1071 91.669 51.6651V49.9984Z" fill="white"/>
<defs>
<linearGradient id="paint0_linear_1677_6187" x1="7.85032" y1="-85.9678" x2="208.119" y2="7.93554" gradientUnits="userSpaceOnUse">
<stop stop-color="#6A36FF"/>
<stop offset="1" stop-color="#AC5FE6"/>
</linearGradient>
</defs>
</svg>
