<svg xmlns="http://www.w3.org/2000/svg" width="292" height="222" fill="none" viewBox="0 0 292 222"><path fill="#fff" d="M0 9.99999C0 4.47715 4.47715 0 10 0H282C287.523 0 292 4.47715 292 10V212C292 217.523 287.523 222 282 222H10C4.47715 222 0 217.523 0 212V9.99999Z"/><path fill="#03133D" d="M23.368 37.288C22.136 37.288 21.048 37.08 20.104 36.664C19.16 36.232 18.416 35.624 17.872 34.84C17.328 34.04 17.048 33.072 17.032 31.936H20.272C20.304 32.72 20.584 33.384 21.112 33.928C21.656 34.456 22.4 34.72 23.344 34.72C24.16 34.72 24.808 34.528 25.288 34.144C25.768 33.744 26.008 33.216 26.008 32.56C26.008 31.872 25.792 31.336 25.36 30.952C24.944 30.568 24.384 30.256 23.68 30.016C22.976 29.776 22.224 29.52 21.424 29.248C20.128 28.8 19.136 28.224 18.448 27.52C17.776 26.816 17.44 25.88 17.44 24.712C17.424 23.72 17.656 22.872 18.136 22.168C18.632 21.448 19.304 20.896 20.152 20.512C21 20.112 21.976 19.912 23.08 19.912C24.2 19.912 25.184 20.112 26.032 20.512C26.896 20.912 27.568 21.472 28.048 22.192C28.544 22.912 28.808 23.768 28.84 24.76H25.552C25.536 24.168 25.304 23.648 24.856 23.2C24.424 22.736 23.816 22.504 23.032 22.504C22.36 22.488 21.792 22.656 21.328 23.008C20.88 23.344 20.656 23.84 20.656 24.496C20.656 25.056 20.832 25.504 21.184 25.84C21.536 26.16 22.016 26.432 22.624 26.656C23.232 26.88 23.928 27.12 24.712 27.376C25.544 27.664 26.304 28 26.992 28.384C27.68 28.768 28.232 29.28 28.648 29.92C29.064 30.544 29.272 31.352 29.272 32.344C29.272 33.224 29.048 34.04 28.6 34.792C28.152 35.544 27.488 36.152 26.608 36.616C25.728 37.064 24.648 37.288 23.368 37.288ZM36.8723 37.288C35.7203 37.288 34.6803 37.024 33.7523 36.496C32.8403 35.968 32.1123 35.24 31.5683 34.312C31.0403 33.368 30.7763 32.28 30.7763 31.048C30.7763 29.816 31.0483 28.736 31.5923 27.808C32.1363 26.864 32.8643 26.128 33.7763 25.6C34.7043 25.072 35.7443 24.808 36.8963 24.808C38.0323 24.808 39.0563 25.072 39.9683 25.6C40.8963 26.128 41.6243 26.864 42.1523 27.808C42.6963 28.736 42.9683 29.816 42.9683 31.048C42.9683 32.28 42.6963 33.368 42.1523 34.312C41.6243 35.24 40.8963 35.968 39.9683 36.496C39.0403 37.024 38.0083 37.288 36.8723 37.288ZM36.8723 34.624C37.6723 34.624 38.3683 34.328 38.9603 33.736C39.5523 33.128 39.8483 32.232 39.8483 31.048C39.8483 29.864 39.5523 28.976 38.9603 28.384C38.3683 27.776 37.6803 27.472 36.8963 27.472C36.0803 27.472 35.3763 27.776 34.7843 28.384C34.2083 28.976 33.9203 29.864 33.9203 31.048C33.9203 32.232 34.2083 33.128 34.7843 33.736C35.3763 34.328 36.0723 34.624 36.8723 34.624ZM50.827 37.288C49.611 37.288 48.539 37.024 47.611 36.496C46.683 35.968 45.947 35.232 45.403 34.288C44.875 33.344 44.611 32.264 44.611 31.048C44.611 29.832 44.875 28.752 45.403 27.808C45.947 26.864 46.683 26.128 47.611 25.6C48.539 25.072 49.611 24.808 50.827 24.808C52.347 24.808 53.627 25.208 54.667 26.008C55.707 26.792 56.371 27.88 56.659 29.272H53.419C53.259 28.696 52.939 28.248 52.459 27.928C51.995 27.592 51.443 27.424 50.803 27.424C49.955 27.424 49.235 27.744 48.643 28.384C48.051 29.024 47.755 29.912 47.755 31.048C47.755 32.184 48.051 33.072 48.643 33.712C49.235 34.352 49.955 34.672 50.803 34.672C51.443 34.672 51.995 34.512 52.459 34.192C52.939 33.872 53.259 33.416 53.419 32.824H56.659C56.371 34.168 55.707 35.248 54.667 36.064C53.627 36.88 52.347 37.288 50.827 37.288ZM58.6656 37V25.096H61.3776L61.6416 26.704C62.0256 26.128 62.5296 25.672 63.1536 25.336C63.7936 24.984 64.5296 24.808 65.3616 24.808C67.2016 24.808 68.5056 25.52 69.2736 26.944C69.7056 26.288 70.2816 25.768 71.0016 25.384C71.7376 25 72.5376 24.808 73.4016 24.808C74.9536 24.808 76.1456 25.272 76.9776 26.2C77.8096 27.128 78.2256 28.488 78.2256 30.28V37H75.1536V30.568C75.1536 29.544 74.9536 28.76 74.5536 28.216C74.1696 27.672 73.5696 27.4 72.7536 27.4C71.9216 27.4 71.2496 27.704 70.7376 28.312C70.2416 28.92 69.9936 29.768 69.9936 30.856V37H66.9216V30.568C66.9216 29.544 66.7216 28.76 66.3216 28.216C65.9216 27.672 65.3056 27.4 64.4736 27.4C63.6576 27.4 62.9936 27.704 62.4816 28.312C61.9856 28.92 61.7376 29.768 61.7376 30.856V37H58.6656ZM86.2062 37.288C85.0062 37.288 83.9422 37.032 83.0142 36.52C82.0862 36.008 81.3582 35.288 80.8302 34.36C80.3022 33.432 80.0382 32.36 80.0382 31.144C80.0382 29.912 80.2942 28.816 80.8062 27.856C81.3342 26.896 82.0542 26.152 82.9662 25.624C83.8942 25.08 84.9822 24.808 86.2302 24.808C87.3982 24.808 88.4302 25.064 89.3262 25.576C90.2222 26.088 90.9182 26.792 91.4142 27.688C91.9262 28.568 92.1822 29.552 92.1822 30.64C92.1822 30.816 92.1742 31 92.1582 31.192C92.1582 31.384 92.1502 31.584 92.1342 31.792H83.0862C83.1502 32.72 83.4702 33.448 84.0462 33.976C84.6382 34.504 85.3502 34.768 86.1822 34.768C86.8062 34.768 87.3262 34.632 87.7422 34.36C88.1742 34.072 88.4942 33.704 88.7022 33.256H91.8222C91.5982 34.008 91.2222 34.696 90.6942 35.32C90.1822 35.928 89.5422 36.408 88.7742 36.76C88.0222 37.112 87.1662 37.288 86.2062 37.288ZM86.2302 27.304C85.4782 27.304 84.8142 27.52 84.2382 27.952C83.6622 28.368 83.2942 29.008 83.1342 29.872H89.0622C89.0142 29.088 88.7262 28.464 88.1982 28C87.6702 27.536 87.0142 27.304 86.2302 27.304ZM99.5179 37.288C98.3979 37.288 97.3979 37.016 96.5179 36.472C95.6379 35.928 94.9419 35.184 94.4299 34.24C93.9179 33.296 93.6619 32.224 93.6619 31.024C93.6619 29.824 93.9179 28.76 94.4299 27.832C94.9419 26.888 95.6379 26.152 96.5179 25.624C97.3979 25.08 98.3979 24.808 99.5179 24.808C100.414 24.808 101.198 24.976 101.87 25.312C102.542 25.648 103.086 26.12 103.502 26.728V19.72H106.574V37H103.838L103.502 35.296C103.118 35.824 102.606 36.288 101.966 36.688C101.342 37.088 100.526 37.288 99.5179 37.288ZM100.166 34.6C101.158 34.6 101.966 34.272 102.59 33.616C103.23 32.944 103.55 32.088 103.55 31.048C103.55 30.008 103.23 29.16 102.59 28.504C101.966 27.832 101.158 27.496 100.166 27.496C99.1899 27.496 98.3819 27.824 97.7419 28.48C97.1019 29.136 96.7819 29.984 96.7819 31.024C96.7819 32.064 97.1019 32.92 97.7419 33.592C98.3819 34.264 99.1899 34.6 100.166 34.6Z"/><circle cx="56" cy="98" r="24" fill="#006EEA"/><path fill="#03133D" fill-rule="evenodd" d="M62.6667 86.6667C62.6667 86.2987 62.3667 86 62 86H58.6667C54.984 86 52 88.6867 52 92V95.6H48.6667C48.2987 95.6 48 95.8987 48 96.2667V99.7333C48 100.101 48.2987 100.4 48.6667 100.4H52V109.333C52 109.701 52.2987 110 52.6667 110H56.6667C57.0333 110 57.3333 109.701 57.3333 109.333V100.4H60.8253C61.1253 100.4 61.388 100.2 61.4693 99.912L62.4307 96.4453C62.5493 96.0213 62.2293 95.6 61.7893 95.6H57.3333V92C57.3333 91.3373 57.9293 90.8 58.6667 90.8H62C62.3667 90.8 62.6667 90.5013 62.6667 90.1333V86.6667Z" clip-rule="evenodd"/><mask id="mask0_1_6974" style="mask-type:alpha" width="15" height="24" x="48" y="86" maskUnits="userSpaceOnUse"><path fill="#fff" fill-rule="evenodd" d="M62.6667 86.6667C62.6667 86.2987 62.3667 86 62 86H58.6667C54.984 86 52 88.6867 52 92V95.6H48.6667C48.2987 95.6 48 95.8987 48 96.2667V99.7333C48 100.101 48.2987 100.4 48.6667 100.4H52V109.333C52 109.701 52.2987 110 52.6667 110H56.6667C57.0333 110 57.3333 109.701 57.3333 109.333V100.4H60.8253C61.1253 100.4 61.388 100.2 61.4693 99.912L62.4307 96.4453C62.5493 96.0213 62.2293 95.6 61.7893 95.6H57.3333V92C57.3333 91.3373 57.9293 90.8 58.6667 90.8H62C62.3667 90.8 62.6667 90.5013 62.6667 90.1333V86.6667Z" clip-rule="evenodd"/></mask><g mask="url(#mask0_1_6974)"><rect width="32" height="32" x="40" y="82" fill="#fff"/></g><rect width="90.345" height="12" x="92" y="82" fill="#C2DCE9" rx="6"/><rect width="120" height="12" x="92" y="102" fill="#EAF4F9" rx="6"/><path fill="#03133D" fill-rule="evenodd" d="M245.999 105C245.773 105 245.546 104.924 245.359 104.768C244.935 104.415 244.878 103.784 245.231 103.36L249.707 97.989L245.392 92.627C245.046 92.197 245.114 91.567 245.544 91.221C245.975 90.875 246.604 90.943 246.951 91.373L251.779 97.373C252.077 97.744 252.073 98.274 251.768 98.64L246.768 104.64C246.57 104.877 246.286 105 245.999 105Z" clip-rule="evenodd"/><mask id="mask1_1_6974" style="mask-type:alpha" width="7" height="14" x="245" y="91" maskUnits="userSpaceOnUse"><path fill="#fff" fill-rule="evenodd" d="M245.999 105C245.773 105 245.546 104.924 245.359 104.768C244.935 104.415 244.878 103.784 245.231 103.36L249.707 97.989L245.392 92.627C245.046 92.197 245.114 91.567 245.544 91.221C245.975 90.875 246.604 90.943 246.951 91.373L251.779 97.373C252.077 97.744 252.073 98.274 251.768 98.64L246.768 104.64C246.57 104.877 246.286 105 245.999 105Z" clip-rule="evenodd"/></mask><g mask="url(#mask1_1_6974)"><rect width="24" height="24" x="236" y="86" fill="#03133D"/></g><rect width="259" height="63" x="16.5" y="66.5" stroke="#C1C5CF" rx="9.5"/><g opacity=".8"><circle cx="56" cy="174" r="24" fill="#1DA1F2"/><path fill="#03133D" fill-rule="evenodd" d="M50.7692 184.667C60.4306 184.667 66.0199 177.166 66.0199 170.047C66.0199 169.851 67.3932 168.672 67.9812 166.215C68.1012 165.716 67.6159 165.323 67.1586 165.532C65.9852 166.071 64.7946 165.644 64.2772 165.031C62.2879 162.862 58.9612 162.758 56.8452 164.798C55.4812 166.114 54.9026 168.074 55.3252 169.944C50.8572 170.263 47.7892 168.146 45.2666 165.243C44.9412 164.866 44.3372 165.064 44.2692 165.563C43.8959 168.339 43.7786 175.088 50.4666 178.964C49.3052 180.634 47.0319 181.619 44.5012 182.042C43.9412 182.136 43.8079 182.912 44.3199 183.163C46.3252 184.15 48.5292 184.666 50.7692 184.663" clip-rule="evenodd"/><mask id="mask2_1_6974" style="mask-type:alpha" width="24" height="22" x="44" y="163" maskUnits="userSpaceOnUse"><path fill="#fff" fill-rule="evenodd" d="M50.7692 184.667C60.4306 184.667 66.0199 177.166 66.0199 170.047C66.0199 169.851 67.3932 168.672 67.9812 166.215C68.1012 165.716 67.6159 165.323 67.1586 165.532C65.9852 166.071 64.7946 165.644 64.2772 165.031C62.2879 162.862 58.9612 162.758 56.8452 164.798C55.4812 166.114 54.9026 168.074 55.3252 169.944C50.8572 170.263 47.7892 168.146 45.2666 165.243C44.9412 164.866 44.3372 165.064 44.2692 165.563C43.8959 168.339 43.7786 175.088 50.4666 178.964C49.3052 180.634 47.0319 181.619 44.5012 182.042C43.9412 182.136 43.8079 182.912 44.3199 183.163C46.3252 184.15 48.5292 184.666 50.7692 184.663" clip-rule="evenodd"/></mask><g mask="url(#mask2_1_6974)"><rect width="32" height="32" x="40" y="158" fill="#fff"/></g><rect width="90.345" height="12" x="92" y="158" fill="#C2DCE9" rx="6"/><rect width="120" height="12" x="92" y="178" fill="#EAF4F9" rx="6"/><path fill="#03133D" fill-rule="evenodd" d="M245.999 181C245.773 181 245.546 180.924 245.359 180.768C244.935 180.415 244.878 179.784 245.231 179.36L249.707 173.989L245.392 168.627C245.046 168.197 245.114 167.567 245.544 167.221C245.975 166.875 246.604 166.943 246.951 167.373L251.779 173.373C252.077 173.744 252.073 174.274 251.768 174.64L246.768 180.64C246.57 180.877 246.286 181 245.999 181Z" clip-rule="evenodd"/><mask id="mask3_1_6974" style="mask-type:alpha" width="7" height="14" x="245" y="167" maskUnits="userSpaceOnUse"><path fill="#fff" fill-rule="evenodd" d="M245.999 181C245.773 181 245.546 180.924 245.359 180.768C244.935 180.415 244.878 179.784 245.231 179.36L249.707 173.989L245.392 168.627C245.046 168.197 245.114 167.567 245.544 167.221C245.975 166.875 246.604 166.943 246.951 167.373L251.779 173.373C252.077 173.744 252.073 174.274 251.768 174.64L246.768 180.64C246.57 180.877 246.286 181 245.999 181Z" clip-rule="evenodd"/></mask><g mask="url(#mask3_1_6974)"><rect width="24" height="24" x="236" y="162" fill="#03133D"/></g><rect width="259" height="63" x="16.5" y="142.5" stroke="#C1C5CF" rx="9.5"/></g></svg>