<svg xmlns="http://www.w3.org/2000/svg" width="33" height="33" fill="none" viewBox="0 0 33 33"><g clip-path="url(#clip0_54_7981)"><path fill="url(#paint0_linear_54_7981)" d="M2.39219 2.54491C-0.122474 5.15691 0.392193 7.93157 0.392193 16.3609C0.392193 23.3609 -0.829141 30.3782 5.56286 32.0302C7.55886 32.5436 25.2442 32.5436 27.2375 32.0276C29.8989 31.3409 32.0642 29.1822 32.3602 25.4182C32.4015 24.8929 32.4015 7.83824 32.3589 7.30224C32.0442 3.29291 29.5762 0.982241 26.3242 0.514242C25.5789 0.406242 25.4295 0.374242 21.6055 0.367575C8.04153 0.374242 5.06819 -0.229758 2.39219 2.54491V2.54491Z"/><path fill="#fff" d="M16.3903 4.55339C11.549 4.55339 6.95165 4.12273 5.19565 8.6294C4.47031 10.4907 4.57565 12.9081 4.57565 16.3694C4.57565 19.4067 4.47831 22.2614 5.19565 24.1081C6.94765 28.6174 11.5823 28.1854 16.3876 28.1854C21.0236 28.1854 25.8036 28.6681 27.581 24.1081C28.3076 22.2281 28.201 19.8467 28.201 16.3694C28.201 11.7534 28.4556 8.7734 26.217 6.53606C23.9503 4.26939 20.885 4.55339 16.385 4.55339H16.3903ZM15.3316 6.68273C25.4303 6.66673 26.7156 5.54406 26.0063 21.1401C25.7543 26.6561 21.5543 26.0507 16.3916 26.0507C6.97831 26.0507 6.70765 25.7814 6.70765 16.3641C6.70765 6.8374 7.45431 6.68806 15.3316 6.68006V6.68273ZM22.697 8.64406C21.9143 8.64406 21.2796 9.27873 21.2796 10.0614C21.2796 10.8441 21.9143 11.4787 22.697 11.4787C23.4796 11.4787 24.1143 10.8441 24.1143 10.0614C24.1143 9.27873 23.4796 8.64406 22.697 8.64406V8.64406ZM16.3903 10.3014C13.0396 10.3014 10.3236 13.0187 10.3236 16.3694C10.3236 19.7201 13.0396 22.4361 16.3903 22.4361C19.741 22.4361 22.4556 19.7201 22.4556 16.3694C22.4556 13.0187 19.741 10.3014 16.3903 10.3014V10.3014ZM16.3903 12.4307C21.597 12.4307 21.6036 20.3081 16.3903 20.3081C11.185 20.3081 11.177 12.4307 16.3903 12.4307Z"/></g><defs><linearGradient id="paint0_linear_54_7981" x1="2.454" x2="32.194" y1="30.324" y2="4.584" gradientUnits="userSpaceOnUse"><stop stop-color="#FD5"/><stop offset=".5" stop-color="#FF543E"/><stop offset="1" stop-color="#C837AB"/></linearGradient><clipPath id="clip0_54_7981"><rect width="32" height="32" fill="#fff" transform="translate(0.392578 0.368164)"/></clipPath></defs></svg>