<svg width="33" height="33" viewBox="0 0 33 33" fill="none" xmlns="http://www.w3.org/2000/svg">
<g clip-path="url(#clip0_54_7966)">
<path d="M29.1286 10.7002C29.1286 10.4108 29.1179 10.1295 29.1046 9.85216C30.4059 8.92816 31.5006 7.77483 32.3926 6.44683V6.4455C31.2019 6.96683 29.9352 7.3135 28.6126 7.4815C29.9726 6.6695 31.0112 5.3935 31.4992 3.85616C30.2312 4.61216 28.8312 5.1455 27.3392 5.44416C26.1352 4.1615 24.4192 3.36816 22.5472 3.36816C18.9152 3.36816 15.9912 6.31616 15.9912 9.9295C15.9912 10.4495 16.0352 10.9495 16.1432 11.4255C10.6899 11.1588 5.86324 8.5455 2.62058 4.56283C2.05524 5.5455 1.72191 6.6695 1.72191 7.87883C1.72191 10.1508 2.89124 12.1642 4.63658 13.3308C3.58191 13.3108 2.54858 13.0042 1.67258 12.5228V12.5948C1.67258 15.7828 3.94591 18.4308 6.92858 19.0415C5.92591 19.3162 4.69124 19.3055 3.96724 19.1455C4.81658 21.7428 7.22991 23.6535 10.0966 23.7162C7.86458 25.4615 5.02991 26.5135 1.96191 26.5135C1.42458 26.5135 0.908578 26.4895 0.392578 26.4242C3.29924 28.2975 6.74191 29.3682 10.4566 29.3682C22.5286 29.3682 29.1286 19.3682 29.1286 10.7002V10.7002Z" fill="#55ACEE"/>
</g>
<defs>
<clipPath id="clip0_54_7966">
<rect width="32" height="32" fill="white" transform="translate(0.392578 0.368164)"/>
</clipPath>
</defs>
</svg>
