<svg xmlns="http://www.w3.org/2000/svg" width="33" height="33" fill="none" viewBox="0 0 33 33"><g clip-path="url(#clip0_54_7959)"><path fill="#3B5999" d="M28.3926 0.368164H4.39258C2.18591 0.368164 0.392578 2.1615 0.392578 4.36816V28.3682C0.392578 30.5735 2.18591 32.3682 4.39258 32.3682H28.3926C30.5979 32.3682 32.3926 30.5735 32.3926 28.3682V4.36816C32.3926 2.1615 30.5979 0.368164 28.3926 0.368164Z"/><path fill="#fff" d="M22.3926 16.3682V12.3682C22.3926 11.2642 23.2886 11.3682 24.3926 11.3682H26.3926V6.36816H22.3926C19.0779 6.36816 16.3926 9.0535 16.3926 12.3682V16.3682H12.3926V21.3682H16.3926V32.3682H22.3926V21.3682H25.3926L27.3926 16.3682H22.3926Z"/></g><defs><clipPath id="clip0_54_7959"><rect width="32" height="32" fill="#fff" transform="translate(0.392578 0.368164)"/></clipPath></defs></svg>