<svg width="25" height="25" viewBox="0 0 25 25" fill="none" xmlns="http://www.w3.org/2000/svg">
<g clip-path="url(#clip0_54_7972)">
<path d="M24.3859 24.3684V24.3674H24.3919V15.5654C24.3919 11.2594 23.4649 7.94238 18.4309 7.94238C16.0109 7.94238 14.3869 9.27038 13.7239 10.5294H13.6539V8.34438H8.88086V24.3674H13.8509V16.4334C13.8509 14.3444 14.2469 12.3244 16.8339 12.3244C19.3829 12.3244 19.4209 14.7084 19.4209 16.5674V24.3684H24.3859Z" fill="#0077B5"/>
<path d="M0.789062 8.34473H5.76506V24.3677H0.789062V8.34473Z" fill="#0077B5"/>
<path d="M3.27458 0.368164C1.68358 0.368164 0.392578 1.65916 0.392578 3.25016C0.392578 4.84116 1.68358 6.15916 3.27458 6.15916C4.86558 6.15916 6.15658 4.84116 6.15658 3.25016C6.15558 1.65916 4.86458 0.368164 3.27458 0.368164V0.368164Z" fill="#0077B5"/>
</g>
<defs>
<clipPath id="clip0_54_7972">
<rect width="24" height="24" fill="white" transform="translate(0.392578 0.368164)"/>
</clipPath>
</defs>
</svg>
